<mxfile host="app.diagrams.net" modified="2023-03-08T14:17:18.899Z" agent="5.0 (Windows NT 10.0; Win64; x64) AppleWebKit/537.36 (KHTML, like Gecko) Chrome/110.0.0.0 Safari/537.36" etag="efOiERS88H9PlMOBqPq4" compressed="false" version="21.0.2" type="device" pages="4">
  <diagram id="nyaN2-kBiswAAlUFx_wD" name="Inequality">
    <mxGraphModel dx="1728" dy="963" grid="1" gridSize="10" guides="1" tooltips="1" connect="1" arrows="1" fold="1" page="1" pageScale="1" pageWidth="850" pageHeight="1100" math="0" shadow="0">
      <root>
        <mxCell id="0" />
        <mxCell id="1" parent="0" />
        <mxCell id="aI2B37Rgd6xhzrk_4RN9-1" value="1" style="edgeStyle=orthogonalEdgeStyle;rounded=0;orthogonalLoop=1;jettySize=auto;html=1;exitX=1;exitY=0.5;exitDx=0;exitDy=0;entryX=0;entryY=0.5;entryDx=0;entryDy=0;" parent="1" source="aI2B37Rgd6xhzrk_4RN9-2" target="aI2B37Rgd6xhzrk_4RN9-8" edge="1">
          <mxGeometry relative="1" as="geometry" />
        </mxCell>
        <mxCell id="aI2B37Rgd6xhzrk_4RN9-2" value="p1" style="ellipse;whiteSpace=wrap;html=1;" parent="1" vertex="1">
          <mxGeometry x="120" y="120" width="40" height="40" as="geometry" />
        </mxCell>
        <mxCell id="aI2B37Rgd6xhzrk_4RN9-3" value="0" style="edgeStyle=orthogonalEdgeStyle;rounded=0;orthogonalLoop=1;jettySize=auto;html=1;exitX=1;exitY=0.5;exitDx=0;exitDy=0;entryX=0;entryY=0.5;entryDx=0;entryDy=0;" parent="1" source="aI2B37Rgd6xhzrk_4RN9-4" target="aI2B37Rgd6xhzrk_4RN9-2" edge="1">
          <mxGeometry relative="1" as="geometry" />
        </mxCell>
        <mxCell id="aI2B37Rgd6xhzrk_4RN9-4" value="Xn" style="ellipse;whiteSpace=wrap;html=1;" parent="1" vertex="1">
          <mxGeometry x="40" y="120" width="40" height="40" as="geometry" />
        </mxCell>
        <mxCell id="aI2B37Rgd6xhzrk_4RN9-5" value="1" style="edgeStyle=orthogonalEdgeStyle;rounded=0;orthogonalLoop=1;jettySize=auto;html=1;exitX=0.5;exitY=0;exitDx=0;exitDy=0;entryX=0.5;entryY=1;entryDx=0;entryDy=0;" parent="1" source="aI2B37Rgd6xhzrk_4RN9-6" target="aI2B37Rgd6xhzrk_4RN9-2" edge="1">
          <mxGeometry relative="1" as="geometry" />
        </mxCell>
        <mxCell id="aI2B37Rgd6xhzrk_4RN9-6" value="p3" style="ellipse;whiteSpace=wrap;html=1;" parent="1" vertex="1">
          <mxGeometry x="120" y="200" width="40" height="40" as="geometry" />
        </mxCell>
        <mxCell id="aI2B37Rgd6xhzrk_4RN9-7" value="2" style="edgeStyle=orthogonalEdgeStyle;rounded=0;orthogonalLoop=1;jettySize=auto;html=1;exitX=1;exitY=0.5;exitDx=0;exitDy=0;entryX=0;entryY=0.5;entryDx=0;entryDy=0;" parent="1" source="aI2B37Rgd6xhzrk_4RN9-8" target="aI2B37Rgd6xhzrk_4RN9-11" edge="1">
          <mxGeometry relative="1" as="geometry" />
        </mxCell>
        <mxCell id="aI2B37Rgd6xhzrk_4RN9-8" value="m1" style="ellipse;whiteSpace=wrap;html=1;" parent="1" vertex="1">
          <mxGeometry x="200" y="120" width="40" height="40" as="geometry" />
        </mxCell>
        <mxCell id="aI2B37Rgd6xhzrk_4RN9-9" value="Yn" style="ellipse;whiteSpace=wrap;html=1;" parent="1" vertex="1">
          <mxGeometry x="360" y="120" width="40" height="40" as="geometry" />
        </mxCell>
        <mxCell id="aI2B37Rgd6xhzrk_4RN9-10" value="1" style="edgeStyle=orthogonalEdgeStyle;rounded=0;orthogonalLoop=1;jettySize=auto;html=1;exitX=1;exitY=0.5;exitDx=0;exitDy=0;entryX=0;entryY=0.5;entryDx=0;entryDy=0;" parent="1" source="aI2B37Rgd6xhzrk_4RN9-11" target="aI2B37Rgd6xhzrk_4RN9-9" edge="1">
          <mxGeometry relative="1" as="geometry" />
        </mxCell>
        <mxCell id="aI2B37Rgd6xhzrk_4RN9-11" value="p2" style="ellipse;whiteSpace=wrap;html=1;" parent="1" vertex="1">
          <mxGeometry x="280" y="120" width="40" height="40" as="geometry" />
        </mxCell>
        <mxCell id="aI2B37Rgd6xhzrk_4RN9-12" value="2" style="edgeStyle=orthogonalEdgeStyle;rounded=0;orthogonalLoop=1;jettySize=auto;html=1;exitX=0;exitY=0.5;exitDx=0;exitDy=0;entryX=1;entryY=0.5;entryDx=0;entryDy=0;" parent="1" source="aI2B37Rgd6xhzrk_4RN9-14" target="aI2B37Rgd6xhzrk_4RN9-6" edge="1">
          <mxGeometry relative="1" as="geometry" />
        </mxCell>
        <mxCell id="aI2B37Rgd6xhzrk_4RN9-13" value="2" style="edgeStyle=orthogonalEdgeStyle;rounded=0;orthogonalLoop=1;jettySize=auto;html=1;exitX=1;exitY=0.5;exitDx=0;exitDy=0;entryX=0;entryY=0.5;entryDx=0;entryDy=0;" parent="1" source="aI2B37Rgd6xhzrk_4RN9-14" target="aI2B37Rgd6xhzrk_4RN9-26" edge="1">
          <mxGeometry relative="1" as="geometry">
            <mxPoint as="offset" />
          </mxGeometry>
        </mxCell>
        <mxCell id="aI2B37Rgd6xhzrk_4RN9-14" value="m2" style="ellipse;whiteSpace=wrap;html=1;" parent="1" vertex="1">
          <mxGeometry x="200" y="200" width="40" height="40" as="geometry" />
        </mxCell>
        <mxCell id="aI2B37Rgd6xhzrk_4RN9-15" value="2" style="edgeStyle=none;rounded=0;orthogonalLoop=1;jettySize=auto;html=1;exitX=1;exitY=0.5;exitDx=0;exitDy=0;entryX=0;entryY=0.5;entryDx=0;entryDy=0;" parent="1" source="aI2B37Rgd6xhzrk_4RN9-16" target="aI2B37Rgd6xhzrk_4RN9-28" edge="1">
          <mxGeometry relative="1" as="geometry" />
        </mxCell>
        <mxCell id="aI2B37Rgd6xhzrk_4RN9-16" value="m3" style="ellipse;whiteSpace=wrap;html=1;" parent="1" vertex="1">
          <mxGeometry x="200" y="360" width="40" height="40" as="geometry" />
        </mxCell>
        <mxCell id="aI2B37Rgd6xhzrk_4RN9-17" value="2" style="edgeStyle=none;rounded=0;orthogonalLoop=1;jettySize=auto;html=1;entryX=0;entryY=0.5;entryDx=0;entryDy=0;" parent="1" source="aI2B37Rgd6xhzrk_4RN9-18" target="aI2B37Rgd6xhzrk_4RN9-28" edge="1">
          <mxGeometry relative="1" as="geometry" />
        </mxCell>
        <mxCell id="aI2B37Rgd6xhzrk_4RN9-18" value="m5" style="ellipse;whiteSpace=wrap;html=1;" parent="1" vertex="1">
          <mxGeometry x="200" y="440" width="40" height="40" as="geometry" />
        </mxCell>
        <mxCell id="aI2B37Rgd6xhzrk_4RN9-19" value="m4" style="ellipse;whiteSpace=wrap;html=1;" parent="1" vertex="1">
          <mxGeometry x="200" y="280" width="40" height="40" as="geometry" />
        </mxCell>
        <mxCell id="aI2B37Rgd6xhzrk_4RN9-20" value="0" style="edgeStyle=orthogonalEdgeStyle;rounded=0;orthogonalLoop=1;jettySize=auto;html=1;exitX=0.5;exitY=1;exitDx=0;exitDy=0;entryX=0.5;entryY=0;entryDx=0;entryDy=0;" parent="1" source="aI2B37Rgd6xhzrk_4RN9-21" target="aI2B37Rgd6xhzrk_4RN9-8" edge="1">
          <mxGeometry relative="1" as="geometry" />
        </mxCell>
        <mxCell id="aI2B37Rgd6xhzrk_4RN9-21" value="b0" style="ellipse;whiteSpace=wrap;html=1;" parent="1" vertex="1">
          <mxGeometry x="200" y="40" width="40" height="40" as="geometry" />
        </mxCell>
        <mxCell id="aI2B37Rgd6xhzrk_4RN9-22" value="-2" style="endArrow=classic;html=1;rounded=0;exitX=1;exitY=1;exitDx=0;exitDy=0;entryX=0;entryY=0;entryDx=0;entryDy=0;" parent="1" source="aI2B37Rgd6xhzrk_4RN9-2" target="aI2B37Rgd6xhzrk_4RN9-14" edge="1">
          <mxGeometry width="50" height="50" relative="1" as="geometry">
            <mxPoint x="210" y="290" as="sourcePoint" />
            <mxPoint x="260" y="240" as="targetPoint" />
          </mxGeometry>
        </mxCell>
        <mxCell id="aI2B37Rgd6xhzrk_4RN9-23" value="-2" style="curved=1;endArrow=classic;html=1;rounded=0;exitX=0;exitY=1;exitDx=0;exitDy=0;entryX=0;entryY=0.5;entryDx=0;entryDy=0;" parent="1" source="aI2B37Rgd6xhzrk_4RN9-2" target="aI2B37Rgd6xhzrk_4RN9-16" edge="1">
          <mxGeometry x="-0.0021" y="-2" width="50" height="50" relative="1" as="geometry">
            <mxPoint x="200" y="230" as="sourcePoint" />
            <mxPoint x="250" y="180" as="targetPoint" />
            <Array as="points">
              <mxPoint x="110" y="190" />
              <mxPoint x="90" y="360" />
              <mxPoint x="150" y="390" />
            </Array>
            <mxPoint x="-1" as="offset" />
          </mxGeometry>
        </mxCell>
        <mxCell id="aI2B37Rgd6xhzrk_4RN9-24" value="-5" style="curved=1;endArrow=classic;html=1;rounded=0;exitX=0;exitY=1;exitDx=0;exitDy=0;entryX=0;entryY=0.5;entryDx=0;entryDy=0;" parent="1" source="aI2B37Rgd6xhzrk_4RN9-2" target="aI2B37Rgd6xhzrk_4RN9-19" edge="1">
          <mxGeometry x="0.433" y="-2" width="50" height="50" relative="1" as="geometry">
            <mxPoint x="86" y="190" as="sourcePoint" />
            <mxPoint x="160" y="336" as="targetPoint" />
            <Array as="points">
              <mxPoint x="100" y="250" />
              <mxPoint x="150" y="320" />
            </Array>
            <mxPoint as="offset" />
          </mxGeometry>
        </mxCell>
        <mxCell id="aI2B37Rgd6xhzrk_4RN9-25" value="-5" style="curved=1;endArrow=classic;html=1;rounded=0;exitX=0;exitY=1;exitDx=0;exitDy=0;entryX=0;entryY=0.5;entryDx=0;entryDy=0;" parent="1" source="aI2B37Rgd6xhzrk_4RN9-2" target="aI2B37Rgd6xhzrk_4RN9-18" edge="1">
          <mxGeometry x="0.0101" y="-3" width="50" height="50" relative="1" as="geometry">
            <mxPoint x="66" y="219" as="sourcePoint" />
            <mxPoint x="140" y="445" as="targetPoint" />
            <Array as="points">
              <mxPoint x="30" y="291" />
              <mxPoint x="150" y="470" />
            </Array>
            <mxPoint as="offset" />
          </mxGeometry>
        </mxCell>
        <mxCell id="aI2B37Rgd6xhzrk_4RN9-26" value="p3" style="ellipse;whiteSpace=wrap;html=1;" parent="1" vertex="1">
          <mxGeometry x="320" y="200" width="40" height="40" as="geometry" />
        </mxCell>
        <mxCell id="aI2B37Rgd6xhzrk_4RN9-27" value="1" style="edgeStyle=orthogonalEdgeStyle;rounded=0;orthogonalLoop=1;jettySize=auto;html=1;exitX=1;exitY=0.5;exitDx=0;exitDy=0;entryX=0.5;entryY=1;entryDx=0;entryDy=0;" parent="1" source="aI2B37Rgd6xhzrk_4RN9-28" target="aI2B37Rgd6xhzrk_4RN9-11" edge="1">
          <mxGeometry relative="1" as="geometry">
            <Array as="points">
              <mxPoint x="380" y="380" />
              <mxPoint x="380" y="180" />
              <mxPoint x="300" y="180" />
            </Array>
          </mxGeometry>
        </mxCell>
        <mxCell id="aI2B37Rgd6xhzrk_4RN9-28" value="p4" style="ellipse;whiteSpace=wrap;html=1;" parent="1" vertex="1">
          <mxGeometry x="320" y="360" width="40" height="40" as="geometry" />
        </mxCell>
        <mxCell id="aI2B37Rgd6xhzrk_4RN9-29" value="1" style="endArrow=classic;html=1;rounded=0;exitX=0;exitY=0;exitDx=0;exitDy=0;entryX=0.959;entryY=0.712;entryDx=0;entryDy=0;entryPerimeter=0;" parent="1" source="aI2B37Rgd6xhzrk_4RN9-26" target="aI2B37Rgd6xhzrk_4RN9-2" edge="1">
          <mxGeometry width="50" height="50" relative="1" as="geometry">
            <mxPoint x="160" y="260" as="sourcePoint" />
            <mxPoint x="210" y="210" as="targetPoint" />
          </mxGeometry>
        </mxCell>
        <mxCell id="aI2B37Rgd6xhzrk_4RN9-30" value="2" style="endArrow=classic;html=1;rounded=0;exitX=1;exitY=0;exitDx=0;exitDy=0;entryX=0;entryY=1;entryDx=0;entryDy=0;" parent="1" source="aI2B37Rgd6xhzrk_4RN9-19" target="aI2B37Rgd6xhzrk_4RN9-26" edge="1">
          <mxGeometry width="50" height="50" relative="1" as="geometry">
            <mxPoint x="260" y="340" as="sourcePoint" />
            <mxPoint x="310" y="290" as="targetPoint" />
          </mxGeometry>
        </mxCell>
      </root>
    </mxGraphModel>
  </diagram>
  <diagram id="bqV65TbbX3AxNGtO1bbk" name="Scheduling">
    <mxGraphModel dx="493" dy="613" grid="1" gridSize="10" guides="1" tooltips="1" connect="1" arrows="1" fold="1" page="1" pageScale="1" pageWidth="850" pageHeight="1100" math="0" shadow="0">
      <root>
        <mxCell id="0" />
        <mxCell id="1" parent="0" />
        <mxCell id="lC7s5BB026H5bTzBdzqU-1" value="X" style="rounded=0;whiteSpace=wrap;html=1;" parent="1" vertex="1">
          <mxGeometry x="40" y="40" width="40" height="30" as="geometry" />
        </mxCell>
        <mxCell id="lC7s5BB026H5bTzBdzqU-2" value="X" style="rounded=0;whiteSpace=wrap;html=1;" parent="1" vertex="1">
          <mxGeometry x="40" y="80" width="40" height="30" as="geometry" />
        </mxCell>
        <mxCell id="lC7s5BB026H5bTzBdzqU-3" value="X" style="rounded=0;whiteSpace=wrap;html=1;" parent="1" vertex="1">
          <mxGeometry x="40" y="120" width="40" height="30" as="geometry" />
        </mxCell>
        <mxCell id="lC7s5BB026H5bTzBdzqU-4" value="X" style="rounded=0;whiteSpace=wrap;html=1;" parent="1" vertex="1">
          <mxGeometry x="40" y="160" width="40" height="30" as="geometry" />
        </mxCell>
        <mxCell id="lC7s5BB026H5bTzBdzqU-5" value="X" style="rounded=0;whiteSpace=wrap;html=1;" parent="1" vertex="1">
          <mxGeometry x="40" y="200" width="40" height="30" as="geometry" />
        </mxCell>
        <mxCell id="lC7s5BB026H5bTzBdzqU-6" value="&lt;font style=&quot;font-size: 20px;&quot;&gt;+&lt;/font&gt;" style="rounded=0;whiteSpace=wrap;html=1;" parent="1" vertex="1">
          <mxGeometry x="40" y="240" width="40" height="30" as="geometry" />
        </mxCell>
        <mxCell id="lC7s5BB026H5bTzBdzqU-7" value="&lt;font style=&quot;font-size: 20px;&quot;&gt;+&lt;/font&gt;" style="rounded=0;whiteSpace=wrap;html=1;" parent="1" vertex="1">
          <mxGeometry x="40" y="280" width="40" height="30" as="geometry" />
        </mxCell>
        <mxCell id="lC7s5BB026H5bTzBdzqU-8" value="&lt;font style=&quot;font-size: 20px;&quot;&gt;+&lt;/font&gt;" style="rounded=0;whiteSpace=wrap;html=1;" parent="1" vertex="1">
          <mxGeometry x="40" y="320" width="40" height="30" as="geometry" />
        </mxCell>
        <mxCell id="lC7s5BB026H5bTzBdzqU-9" value="&lt;font style=&quot;font-size: 20px;&quot;&gt;+&lt;/font&gt;" style="rounded=0;whiteSpace=wrap;html=1;" parent="1" vertex="1">
          <mxGeometry x="40" y="360" width="40" height="30" as="geometry" />
        </mxCell>
        <mxCell id="lC7s5BB026H5bTzBdzqU-10" value="m2" style="rounded=0;whiteSpace=wrap;html=1;" parent="1" vertex="1">
          <mxGeometry x="120" y="80" width="80" height="30" as="geometry" />
        </mxCell>
        <mxCell id="lC7s5BB026H5bTzBdzqU-11" value="p3" style="rounded=0;whiteSpace=wrap;html=1;" parent="1" vertex="1">
          <mxGeometry x="200" y="320" width="40" height="30" as="geometry" />
        </mxCell>
        <mxCell id="lC7s5BB026H5bTzBdzqU-12" value="" style="rounded=0;whiteSpace=wrap;html=1;fillColor=#000000;fillStyle=hatch;" parent="1" vertex="1">
          <mxGeometry x="120" y="40" width="160" height="30" as="geometry" />
        </mxCell>
        <mxCell id="lC7s5BB026H5bTzBdzqU-13" value="p1" style="rounded=0;whiteSpace=wrap;html=1;" parent="1" vertex="1">
          <mxGeometry x="240" y="240" width="40" height="30" as="geometry" />
        </mxCell>
        <mxCell id="lC7s5BB026H5bTzBdzqU-14" value="m1" style="rounded=0;whiteSpace=wrap;html=1;" parent="1" vertex="1">
          <mxGeometry x="280" y="40" width="80" height="30" as="geometry" />
        </mxCell>
        <mxCell id="lC7s5BB026H5bTzBdzqU-15" value="p2" style="rounded=0;whiteSpace=wrap;html=1;" parent="1" vertex="1">
          <mxGeometry x="360" y="280" width="40" height="30" as="geometry" />
        </mxCell>
        <mxCell id="lC7s5BB026H5bTzBdzqU-16" value="m5" style="rounded=0;whiteSpace=wrap;html=1;" parent="1" vertex="1">
          <mxGeometry x="120" y="200" width="80" height="30" as="geometry" />
        </mxCell>
        <mxCell id="lC7s5BB026H5bTzBdzqU-17" value="p4" style="rounded=0;whiteSpace=wrap;html=1;" parent="1" vertex="1">
          <mxGeometry x="200" y="360" width="40" height="30" as="geometry" />
        </mxCell>
        <mxCell id="lC7s5BB026H5bTzBdzqU-18" value="" style="rounded=0;whiteSpace=wrap;html=1;fillColor=#000000;fillStyle=hatch;" parent="1" vertex="1">
          <mxGeometry x="240" y="360" width="160" height="30" as="geometry" />
        </mxCell>
        <mxCell id="lC7s5BB026H5bTzBdzqU-19" value="m4" style="rounded=0;whiteSpace=wrap;html=1;" parent="1" vertex="1">
          <mxGeometry x="120" y="160" width="80" height="30" as="geometry" />
        </mxCell>
        <mxCell id="lC7s5BB026H5bTzBdzqU-20" value="m3" style="rounded=0;whiteSpace=wrap;html=1;" parent="1" vertex="1">
          <mxGeometry x="120" y="120" width="80" height="30" as="geometry" />
        </mxCell>
        <mxCell id="lC7s5BB026H5bTzBdzqU-21" value="" style="rounded=0;whiteSpace=wrap;html=1;fillColor=#000000;fillStyle=hatch;" parent="1" vertex="1">
          <mxGeometry x="200" y="80" width="200" height="30" as="geometry" />
        </mxCell>
        <mxCell id="lC7s5BB026H5bTzBdzqU-22" value="" style="rounded=0;whiteSpace=wrap;html=1;fillColor=#000000;fillStyle=hatch;" parent="1" vertex="1">
          <mxGeometry x="200" y="120" width="200" height="30" as="geometry" />
        </mxCell>
        <mxCell id="lC7s5BB026H5bTzBdzqU-23" value="" style="rounded=0;whiteSpace=wrap;html=1;fillColor=#000000;fillStyle=hatch;" parent="1" vertex="1">
          <mxGeometry x="200" y="160" width="200" height="30" as="geometry" />
        </mxCell>
        <mxCell id="lC7s5BB026H5bTzBdzqU-24" value="" style="rounded=0;whiteSpace=wrap;html=1;fillColor=#000000;fillStyle=hatch;" parent="1" vertex="1">
          <mxGeometry x="200" y="200" width="200" height="30" as="geometry" />
        </mxCell>
        <mxCell id="lC7s5BB026H5bTzBdzqU-25" value="" style="rounded=0;whiteSpace=wrap;html=1;fillColor=#000000;fillStyle=hatch;" parent="1" vertex="1">
          <mxGeometry x="120" y="240" width="120" height="30" as="geometry" />
        </mxCell>
        <mxCell id="lC7s5BB026H5bTzBdzqU-26" value="" style="rounded=0;whiteSpace=wrap;html=1;fillColor=#000000;fillStyle=hatch;" parent="1" vertex="1">
          <mxGeometry x="280" y="240" width="120" height="30" as="geometry" />
        </mxCell>
        <mxCell id="lC7s5BB026H5bTzBdzqU-27" value="" style="rounded=0;whiteSpace=wrap;html=1;fillColor=#000000;fillStyle=hatch;" parent="1" vertex="1">
          <mxGeometry x="120" y="280" width="240" height="30" as="geometry" />
        </mxCell>
        <mxCell id="lC7s5BB026H5bTzBdzqU-28" value="" style="rounded=0;whiteSpace=wrap;html=1;fillColor=#000000;fillStyle=hatch;" parent="1" vertex="1">
          <mxGeometry x="240" y="320" width="160" height="30" as="geometry" />
        </mxCell>
        <mxCell id="lC7s5BB026H5bTzBdzqU-29" value="" style="rounded=0;whiteSpace=wrap;html=1;fillColor=#000000;fillStyle=hatch;" parent="1" vertex="1">
          <mxGeometry x="120" y="320" width="80" height="30" as="geometry" />
        </mxCell>
        <mxCell id="lC7s5BB026H5bTzBdzqU-30" value="" style="rounded=0;whiteSpace=wrap;html=1;fillColor=#000000;fillStyle=hatch;" parent="1" vertex="1">
          <mxGeometry x="360" y="40" width="40" height="30" as="geometry" />
        </mxCell>
        <mxCell id="lC7s5BB026H5bTzBdzqU-31" value="" style="rounded=0;whiteSpace=wrap;html=1;fillColor=#000000;fillStyle=hatch;" parent="1" vertex="1">
          <mxGeometry x="120" y="360" width="80" height="30" as="geometry" />
        </mxCell>
        <mxCell id="lC7s5BB026H5bTzBdzqU-32" value="" style="endArrow=classic;html=1;rounded=0;" parent="1" edge="1">
          <mxGeometry width="50" height="50" relative="1" as="geometry">
            <mxPoint x="120" y="400" as="sourcePoint" />
            <mxPoint x="400" y="400" as="targetPoint" />
          </mxGeometry>
        </mxCell>
        <mxCell id="lC7s5BB026H5bTzBdzqU-33" value="0" style="edgeLabel;html=1;align=center;verticalAlign=middle;resizable=0;points=[];" parent="lC7s5BB026H5bTzBdzqU-32" vertex="1" connectable="0">
          <mxGeometry x="-0.6881" y="-1" relative="1" as="geometry">
            <mxPoint x="-43" y="9" as="offset" />
          </mxGeometry>
        </mxCell>
        <mxCell id="lC7s5BB026H5bTzBdzqU-34" value="1" style="edgeLabel;html=1;align=center;verticalAlign=middle;resizable=0;points=[];" parent="lC7s5BB026H5bTzBdzqU-32" vertex="1" connectable="0">
          <mxGeometry x="-0.7" y="2" relative="1" as="geometry">
            <mxPoint x="-2" y="12" as="offset" />
          </mxGeometry>
        </mxCell>
        <mxCell id="lC7s5BB026H5bTzBdzqU-35" value="2" style="edgeLabel;html=1;align=center;verticalAlign=middle;resizable=0;points=[];" parent="lC7s5BB026H5bTzBdzqU-32" vertex="1" connectable="0">
          <mxGeometry x="-0.3964" y="-1" relative="1" as="geometry">
            <mxPoint x="-4" y="9" as="offset" />
          </mxGeometry>
        </mxCell>
        <mxCell id="lC7s5BB026H5bTzBdzqU-36" value="3" style="edgeLabel;html=1;align=center;verticalAlign=middle;resizable=0;points=[];" parent="lC7s5BB026H5bTzBdzqU-32" vertex="1" connectable="0">
          <mxGeometry x="-0.1821" y="1" relative="1" as="geometry">
            <mxPoint x="6" y="11" as="offset" />
          </mxGeometry>
        </mxCell>
        <mxCell id="lC7s5BB026H5bTzBdzqU-37" value="4" style="edgeLabel;html=1;align=center;verticalAlign=middle;resizable=0;points=[];" parent="lC7s5BB026H5bTzBdzqU-32" vertex="1" connectable="0">
          <mxGeometry x="0.1274" y="3" relative="1" as="geometry">
            <mxPoint x="3" y="13" as="offset" />
          </mxGeometry>
        </mxCell>
        <mxCell id="lC7s5BB026H5bTzBdzqU-38" value="5" style="edgeLabel;html=1;align=center;verticalAlign=middle;resizable=0;points=[];" parent="lC7s5BB026H5bTzBdzqU-32" vertex="1" connectable="0">
          <mxGeometry x="0.425" y="-1" relative="1" as="geometry">
            <mxPoint y="9" as="offset" />
          </mxGeometry>
        </mxCell>
        <mxCell id="lC7s5BB026H5bTzBdzqU-39" value="6" style="edgeLabel;html=1;align=center;verticalAlign=middle;resizable=0;points=[];" parent="lC7s5BB026H5bTzBdzqU-32" vertex="1" connectable="0">
          <mxGeometry x="0.7405" y="-1" relative="1" as="geometry">
            <mxPoint x="-3" y="9" as="offset" />
          </mxGeometry>
        </mxCell>
        <mxCell id="lC7s5BB026H5bTzBdzqU-40" value="7" style="edgeLabel;html=1;align=center;verticalAlign=middle;resizable=0;points=[];" parent="lC7s5BB026H5bTzBdzqU-32" vertex="1" connectable="0">
          <mxGeometry x="0.9012" y="-1" relative="1" as="geometry">
            <mxPoint x="14" y="9" as="offset" />
          </mxGeometry>
        </mxCell>
        <mxCell id="wRYoiOFOpZDVuAEd0Hsv-1" value="X" style="rounded=0;whiteSpace=wrap;html=1;" parent="1" vertex="1">
          <mxGeometry x="40" y="480" width="40" height="30" as="geometry" />
        </mxCell>
        <mxCell id="wRYoiOFOpZDVuAEd0Hsv-2" value="&lt;font style=&quot;font-size: 20px;&quot;&gt;+&lt;/font&gt;" style="rounded=0;whiteSpace=wrap;html=1;" parent="1" vertex="1">
          <mxGeometry x="40" y="520" width="40" height="30" as="geometry" />
        </mxCell>
        <mxCell id="wRYoiOFOpZDVuAEd0Hsv-3" value="m2" style="rounded=0;whiteSpace=wrap;html=1;" parent="1" vertex="1">
          <mxGeometry x="200" y="480" width="80" height="30" as="geometry" />
        </mxCell>
        <mxCell id="wRYoiOFOpZDVuAEd0Hsv-4" value="p3" style="rounded=0;whiteSpace=wrap;html=1;" parent="1" vertex="1">
          <mxGeometry x="280" y="520" width="40" height="30" as="geometry" />
        </mxCell>
        <mxCell id="wRYoiOFOpZDVuAEd0Hsv-5" value="p1" style="rounded=0;whiteSpace=wrap;html=1;" parent="1" vertex="1">
          <mxGeometry x="320" y="520" width="40" height="30" as="geometry" />
        </mxCell>
        <mxCell id="wRYoiOFOpZDVuAEd0Hsv-6" value="m1" style="rounded=0;whiteSpace=wrap;html=1;" parent="1" vertex="1">
          <mxGeometry x="440" y="480" width="80" height="30" as="geometry" />
        </mxCell>
        <mxCell id="wRYoiOFOpZDVuAEd0Hsv-7" value="p2" style="rounded=0;whiteSpace=wrap;html=1;" parent="1" vertex="1">
          <mxGeometry x="520" y="520" width="40" height="30" as="geometry" />
        </mxCell>
        <mxCell id="wRYoiOFOpZDVuAEd0Hsv-8" value="m5" style="rounded=0;whiteSpace=wrap;html=1;" parent="1" vertex="1">
          <mxGeometry x="280" y="480" width="80" height="30" as="geometry" />
        </mxCell>
        <mxCell id="wRYoiOFOpZDVuAEd0Hsv-9" value="p4" style="rounded=0;whiteSpace=wrap;html=1;" parent="1" vertex="1">
          <mxGeometry x="440" y="520" width="40" height="30" as="geometry" />
        </mxCell>
        <mxCell id="wRYoiOFOpZDVuAEd0Hsv-10" value="m4" style="rounded=0;whiteSpace=wrap;html=1;" parent="1" vertex="1">
          <mxGeometry x="120" y="480" width="80" height="30" as="geometry" />
        </mxCell>
        <mxCell id="wRYoiOFOpZDVuAEd0Hsv-11" value="m3" style="rounded=0;whiteSpace=wrap;html=1;" parent="1" vertex="1">
          <mxGeometry x="360" y="480" width="80" height="30" as="geometry" />
        </mxCell>
        <mxCell id="wRYoiOFOpZDVuAEd0Hsv-12" value="" style="rounded=0;whiteSpace=wrap;html=1;fillColor=#000000;fillStyle=hatch;" parent="1" vertex="1">
          <mxGeometry x="520" y="480" width="40" height="30" as="geometry" />
        </mxCell>
        <mxCell id="wRYoiOFOpZDVuAEd0Hsv-13" value="" style="endArrow=classic;html=1;rounded=0;" parent="1" edge="1">
          <mxGeometry width="50" height="50" relative="1" as="geometry">
            <mxPoint x="120" y="560" as="sourcePoint" />
            <mxPoint x="560" y="560" as="targetPoint" />
          </mxGeometry>
        </mxCell>
        <mxCell id="wRYoiOFOpZDVuAEd0Hsv-14" value="" style="rounded=0;whiteSpace=wrap;html=1;fillColor=#000000;fillStyle=hatch;" parent="1" vertex="1">
          <mxGeometry x="480" y="520" width="40" height="30" as="geometry" />
        </mxCell>
        <mxCell id="wRYoiOFOpZDVuAEd0Hsv-15" value="" style="rounded=0;whiteSpace=wrap;html=1;fillColor=#000000;fillStyle=hatch;" parent="1" vertex="1">
          <mxGeometry x="360" y="520" width="80" height="30" as="geometry" />
        </mxCell>
        <mxCell id="wRYoiOFOpZDVuAEd0Hsv-16" value="" style="rounded=0;whiteSpace=wrap;html=1;fillColor=#000000;fillStyle=hatch;" parent="1" vertex="1">
          <mxGeometry x="120" y="520" width="160" height="30" as="geometry" />
        </mxCell>
        <mxCell id="wRYoiOFOpZDVuAEd0Hsv-17" value="0" style="text;html=1;align=center;verticalAlign=middle;resizable=0;points=[];autosize=1;strokeColor=none;fillColor=none;" parent="1" vertex="1">
          <mxGeometry x="106" y="560" width="30" height="30" as="geometry" />
        </mxCell>
        <mxCell id="wRYoiOFOpZDVuAEd0Hsv-18" value="1" style="text;html=1;align=center;verticalAlign=middle;resizable=0;points=[];autosize=1;strokeColor=none;fillColor=none;" parent="1" vertex="1">
          <mxGeometry x="145" y="560" width="30" height="30" as="geometry" />
        </mxCell>
        <mxCell id="wRYoiOFOpZDVuAEd0Hsv-19" value="2" style="text;html=1;align=center;verticalAlign=middle;resizable=0;points=[];autosize=1;strokeColor=none;fillColor=none;" parent="1" vertex="1">
          <mxGeometry x="185" y="560" width="30" height="30" as="geometry" />
        </mxCell>
        <mxCell id="wRYoiOFOpZDVuAEd0Hsv-20" value="3" style="text;html=1;align=center;verticalAlign=middle;resizable=0;points=[];autosize=1;strokeColor=none;fillColor=none;" parent="1" vertex="1">
          <mxGeometry x="225" y="560" width="30" height="30" as="geometry" />
        </mxCell>
        <mxCell id="wRYoiOFOpZDVuAEd0Hsv-21" value="4" style="text;html=1;align=center;verticalAlign=middle;resizable=0;points=[];autosize=1;strokeColor=none;fillColor=none;" parent="1" vertex="1">
          <mxGeometry x="264" y="560" width="30" height="30" as="geometry" />
        </mxCell>
        <mxCell id="wRYoiOFOpZDVuAEd0Hsv-22" value="5" style="text;html=1;align=center;verticalAlign=middle;resizable=0;points=[];autosize=1;strokeColor=none;fillColor=none;" parent="1" vertex="1">
          <mxGeometry x="305" y="560" width="30" height="30" as="geometry" />
        </mxCell>
        <mxCell id="wRYoiOFOpZDVuAEd0Hsv-23" value="6" style="text;html=1;align=center;verticalAlign=middle;resizable=0;points=[];autosize=1;strokeColor=none;fillColor=none;" parent="1" vertex="1">
          <mxGeometry x="343" y="560" width="30" height="30" as="geometry" />
        </mxCell>
        <mxCell id="wRYoiOFOpZDVuAEd0Hsv-24" value="7" style="text;html=1;align=center;verticalAlign=middle;resizable=0;points=[];autosize=1;strokeColor=none;fillColor=none;" parent="1" vertex="1">
          <mxGeometry x="385" y="560" width="30" height="30" as="geometry" />
        </mxCell>
        <mxCell id="wRYoiOFOpZDVuAEd0Hsv-25" value="8" style="text;html=1;align=center;verticalAlign=middle;resizable=0;points=[];autosize=1;strokeColor=none;fillColor=none;" parent="1" vertex="1">
          <mxGeometry x="423" y="560" width="30" height="30" as="geometry" />
        </mxCell>
        <mxCell id="wRYoiOFOpZDVuAEd0Hsv-26" value="9" style="text;html=1;align=center;verticalAlign=middle;resizable=0;points=[];autosize=1;strokeColor=none;fillColor=none;" parent="1" vertex="1">
          <mxGeometry x="465" y="560" width="30" height="30" as="geometry" />
        </mxCell>
        <mxCell id="wRYoiOFOpZDVuAEd0Hsv-27" value="10" style="text;html=1;align=center;verticalAlign=middle;resizable=0;points=[];autosize=1;strokeColor=none;fillColor=none;" parent="1" vertex="1">
          <mxGeometry x="498" y="560" width="40" height="30" as="geometry" />
        </mxCell>
        <mxCell id="wRYoiOFOpZDVuAEd0Hsv-28" value="11" style="text;html=1;align=center;verticalAlign=middle;resizable=0;points=[];autosize=1;strokeColor=none;fillColor=none;" parent="1" vertex="1">
          <mxGeometry x="538" y="560" width="40" height="30" as="geometry" />
        </mxCell>
        <mxCell id="jWwM0zsiZPoC8DO8OSYZ-1" value="X" style="rounded=0;whiteSpace=wrap;html=1;" parent="1" vertex="1">
          <mxGeometry x="40" y="680" width="40" height="30" as="geometry" />
        </mxCell>
        <mxCell id="jWwM0zsiZPoC8DO8OSYZ-2" value="&lt;font style=&quot;font-size: 20px;&quot;&gt;+&lt;/font&gt;" style="rounded=0;whiteSpace=wrap;html=1;" parent="1" vertex="1">
          <mxGeometry x="40" y="720" width="40" height="30" as="geometry" />
        </mxCell>
        <mxCell id="jWwM0zsiZPoC8DO8OSYZ-3" value="m2" style="rounded=0;whiteSpace=wrap;html=1;" parent="1" vertex="1">
          <mxGeometry x="120" y="640" width="80" height="30" as="geometry" />
        </mxCell>
        <mxCell id="jWwM0zsiZPoC8DO8OSYZ-4" value="p3" style="rounded=0;whiteSpace=wrap;html=1;" parent="1" vertex="1">
          <mxGeometry x="200" y="720" width="40" height="30" as="geometry" />
        </mxCell>
        <mxCell id="jWwM0zsiZPoC8DO8OSYZ-5" value="p1" style="rounded=0;whiteSpace=wrap;html=1;" parent="1" vertex="1">
          <mxGeometry x="240" y="720" width="40" height="30" as="geometry" />
        </mxCell>
        <mxCell id="jWwM0zsiZPoC8DO8OSYZ-6" value="m1" style="rounded=0;whiteSpace=wrap;html=1;" parent="1" vertex="1">
          <mxGeometry x="280" y="680" width="80" height="30" as="geometry" />
        </mxCell>
        <mxCell id="jWwM0zsiZPoC8DO8OSYZ-7" value="p2" style="rounded=0;whiteSpace=wrap;html=1;" parent="1" vertex="1">
          <mxGeometry x="360" y="720" width="40" height="30" as="geometry" />
        </mxCell>
        <mxCell id="jWwM0zsiZPoC8DO8OSYZ-8" value="m5" style="rounded=0;whiteSpace=wrap;html=1;" parent="1" vertex="1">
          <mxGeometry x="200" y="680" width="80" height="30" as="geometry" />
        </mxCell>
        <mxCell id="jWwM0zsiZPoC8DO8OSYZ-9" value="p4" style="rounded=0;whiteSpace=wrap;html=1;" parent="1" vertex="1">
          <mxGeometry x="280" y="720" width="40" height="30" as="geometry" />
        </mxCell>
        <mxCell id="jWwM0zsiZPoC8DO8OSYZ-10" value="m4" style="rounded=0;whiteSpace=wrap;html=1;" parent="1" vertex="1">
          <mxGeometry x="120" y="680" width="80" height="30" as="geometry" />
        </mxCell>
        <mxCell id="jWwM0zsiZPoC8DO8OSYZ-11" value="m3" style="rounded=0;whiteSpace=wrap;html=1;" parent="1" vertex="1">
          <mxGeometry x="200" y="640" width="80" height="30" as="geometry" />
        </mxCell>
        <mxCell id="jWwM0zsiZPoC8DO8OSYZ-12" value="" style="rounded=0;whiteSpace=wrap;html=1;fillColor=#000000;fillStyle=hatch;" parent="1" vertex="1">
          <mxGeometry x="280" y="640" width="120" height="30" as="geometry" />
        </mxCell>
        <mxCell id="jWwM0zsiZPoC8DO8OSYZ-13" value="" style="endArrow=classic;html=1;rounded=0;entryX=0.622;entryY=-0.015;entryDx=0;entryDy=0;entryPerimeter=0;" parent="1" target="jWwM0zsiZPoC8DO8OSYZ-23" edge="1">
          <mxGeometry width="50" height="50" relative="1" as="geometry">
            <mxPoint x="120" y="760.45" as="sourcePoint" />
            <mxPoint x="560" y="760.45" as="targetPoint" />
          </mxGeometry>
        </mxCell>
        <mxCell id="jWwM0zsiZPoC8DO8OSYZ-14" value="" style="rounded=0;whiteSpace=wrap;html=1;fillColor=#000000;fillStyle=hatch;" parent="1" vertex="1">
          <mxGeometry x="360" y="680" width="40" height="30" as="geometry" />
        </mxCell>
        <mxCell id="jWwM0zsiZPoC8DO8OSYZ-15" value="" style="rounded=0;whiteSpace=wrap;html=1;fillColor=#000000;fillStyle=hatch;" parent="1" vertex="1">
          <mxGeometry x="320" y="720" width="40" height="30" as="geometry" />
        </mxCell>
        <mxCell id="jWwM0zsiZPoC8DO8OSYZ-16" value="0" style="text;html=1;align=center;verticalAlign=middle;resizable=0;points=[];autosize=1;strokeColor=none;fillColor=none;" parent="1" vertex="1">
          <mxGeometry x="106" y="760.45" width="30" height="30" as="geometry" />
        </mxCell>
        <mxCell id="jWwM0zsiZPoC8DO8OSYZ-17" value="1" style="text;html=1;align=center;verticalAlign=middle;resizable=0;points=[];autosize=1;strokeColor=none;fillColor=none;" parent="1" vertex="1">
          <mxGeometry x="145" y="760.45" width="30" height="30" as="geometry" />
        </mxCell>
        <mxCell id="jWwM0zsiZPoC8DO8OSYZ-18" value="2" style="text;html=1;align=center;verticalAlign=middle;resizable=0;points=[];autosize=1;strokeColor=none;fillColor=none;" parent="1" vertex="1">
          <mxGeometry x="185" y="760.45" width="30" height="30" as="geometry" />
        </mxCell>
        <mxCell id="jWwM0zsiZPoC8DO8OSYZ-19" value="3" style="text;html=1;align=center;verticalAlign=middle;resizable=0;points=[];autosize=1;strokeColor=none;fillColor=none;" parent="1" vertex="1">
          <mxGeometry x="225" y="760.45" width="30" height="30" as="geometry" />
        </mxCell>
        <mxCell id="jWwM0zsiZPoC8DO8OSYZ-20" value="4" style="text;html=1;align=center;verticalAlign=middle;resizable=0;points=[];autosize=1;strokeColor=none;fillColor=none;" parent="1" vertex="1">
          <mxGeometry x="264" y="760.45" width="30" height="30" as="geometry" />
        </mxCell>
        <mxCell id="jWwM0zsiZPoC8DO8OSYZ-21" value="5" style="text;html=1;align=center;verticalAlign=middle;resizable=0;points=[];autosize=1;strokeColor=none;fillColor=none;" parent="1" vertex="1">
          <mxGeometry x="305" y="760.45" width="30" height="30" as="geometry" />
        </mxCell>
        <mxCell id="jWwM0zsiZPoC8DO8OSYZ-22" value="6" style="text;html=1;align=center;verticalAlign=middle;resizable=0;points=[];autosize=1;strokeColor=none;fillColor=none;" parent="1" vertex="1">
          <mxGeometry x="343" y="760.45" width="30" height="30" as="geometry" />
        </mxCell>
        <mxCell id="jWwM0zsiZPoC8DO8OSYZ-23" value="7" style="text;html=1;align=center;verticalAlign=middle;resizable=0;points=[];autosize=1;strokeColor=none;fillColor=none;" parent="1" vertex="1">
          <mxGeometry x="385" y="760.45" width="30" height="30" as="geometry" />
        </mxCell>
        <mxCell id="jWwM0zsiZPoC8DO8OSYZ-24" value="X" style="rounded=0;whiteSpace=wrap;html=1;" parent="1" vertex="1">
          <mxGeometry x="40" y="640" width="40" height="30" as="geometry" />
        </mxCell>
        <mxCell id="jWwM0zsiZPoC8DO8OSYZ-25" value="" style="rounded=0;whiteSpace=wrap;html=1;fillColor=#000000;fillStyle=hatch;" parent="1" vertex="1">
          <mxGeometry x="120" y="720" width="80" height="30" as="geometry" />
        </mxCell>
        <mxCell id="MWxAOVNCKXWw3SZQLkQR-1" value="X M2" style="rounded=0;whiteSpace=wrap;html=1;" parent="1" vertex="1">
          <mxGeometry x="40" y="880" width="40" height="30" as="geometry" />
        </mxCell>
        <mxCell id="MWxAOVNCKXWw3SZQLkQR-2" value="&lt;font style=&quot;font-size: 12px;&quot;&gt;+ A1&lt;/font&gt;" style="rounded=0;whiteSpace=wrap;html=1;" parent="1" vertex="1">
          <mxGeometry x="40" y="920" width="40" height="30" as="geometry" />
        </mxCell>
        <mxCell id="MWxAOVNCKXWw3SZQLkQR-3" value="m2" style="rounded=0;whiteSpace=wrap;html=1;" parent="1" vertex="1">
          <mxGeometry x="120" y="840" width="80" height="30" as="geometry" />
        </mxCell>
        <mxCell id="MWxAOVNCKXWw3SZQLkQR-4" value="p3" style="rounded=0;whiteSpace=wrap;html=1;" parent="1" vertex="1">
          <mxGeometry x="200" y="920" width="40" height="30" as="geometry" />
        </mxCell>
        <mxCell id="MWxAOVNCKXWw3SZQLkQR-5" value="p1" style="rounded=0;whiteSpace=wrap;html=1;" parent="1" vertex="1">
          <mxGeometry x="240" y="920" width="40" height="30" as="geometry" />
        </mxCell>
        <mxCell id="MWxAOVNCKXWw3SZQLkQR-6" value="m1" style="rounded=0;whiteSpace=wrap;html=1;" parent="1" vertex="1">
          <mxGeometry x="280" y="880" width="80" height="30" as="geometry" />
        </mxCell>
        <mxCell id="MWxAOVNCKXWw3SZQLkQR-7" value="p2" style="rounded=0;whiteSpace=wrap;html=1;" parent="1" vertex="1">
          <mxGeometry x="360" y="920" width="40" height="30" as="geometry" />
        </mxCell>
        <mxCell id="MWxAOVNCKXWw3SZQLkQR-8" value="m5" style="rounded=0;whiteSpace=wrap;html=1;" parent="1" vertex="1">
          <mxGeometry x="200" y="880" width="80" height="30" as="geometry" />
        </mxCell>
        <mxCell id="MWxAOVNCKXWw3SZQLkQR-9" value="p4" style="rounded=0;whiteSpace=wrap;html=1;" parent="1" vertex="1">
          <mxGeometry x="280" y="920" width="40" height="30" as="geometry" />
        </mxCell>
        <mxCell id="MWxAOVNCKXWw3SZQLkQR-10" value="m4" style="rounded=0;whiteSpace=wrap;html=1;" parent="1" vertex="1">
          <mxGeometry x="120" y="880" width="80" height="30" as="geometry" />
        </mxCell>
        <mxCell id="MWxAOVNCKXWw3SZQLkQR-11" value="m3" style="rounded=0;whiteSpace=wrap;html=1;" parent="1" vertex="1">
          <mxGeometry x="200" y="840" width="80" height="30" as="geometry" />
        </mxCell>
        <mxCell id="MWxAOVNCKXWw3SZQLkQR-12" value="" style="rounded=0;whiteSpace=wrap;html=1;fillColor=#000000;fillStyle=hatch;" parent="1" vertex="1">
          <mxGeometry x="280" y="840" width="120" height="30" as="geometry" />
        </mxCell>
        <mxCell id="MWxAOVNCKXWw3SZQLkQR-13" value="" style="endArrow=classic;html=1;rounded=0;entryX=0.622;entryY=-0.015;entryDx=0;entryDy=0;entryPerimeter=0;" parent="1" target="MWxAOVNCKXWw3SZQLkQR-23" edge="1">
          <mxGeometry width="50" height="50" relative="1" as="geometry">
            <mxPoint x="119.5" y="1080.45" as="sourcePoint" />
            <mxPoint x="559.5" y="1080.45" as="targetPoint" />
          </mxGeometry>
        </mxCell>
        <mxCell id="MWxAOVNCKXWw3SZQLkQR-14" value="" style="rounded=0;whiteSpace=wrap;html=1;fillColor=#000000;fillStyle=hatch;" parent="1" vertex="1">
          <mxGeometry x="360" y="880" width="40" height="30" as="geometry" />
        </mxCell>
        <mxCell id="MWxAOVNCKXWw3SZQLkQR-16" value="0" style="text;html=1;align=center;verticalAlign=middle;resizable=0;points=[];autosize=1;strokeColor=none;fillColor=none;" parent="1" vertex="1">
          <mxGeometry x="105.5" y="1080.45" width="30" height="30" as="geometry" />
        </mxCell>
        <mxCell id="MWxAOVNCKXWw3SZQLkQR-17" value="1" style="text;html=1;align=center;verticalAlign=middle;resizable=0;points=[];autosize=1;strokeColor=none;fillColor=none;" parent="1" vertex="1">
          <mxGeometry x="144.5" y="1080.45" width="30" height="30" as="geometry" />
        </mxCell>
        <mxCell id="MWxAOVNCKXWw3SZQLkQR-18" value="2" style="text;html=1;align=center;verticalAlign=middle;resizable=0;points=[];autosize=1;strokeColor=none;fillColor=none;" parent="1" vertex="1">
          <mxGeometry x="184.5" y="1080.45" width="30" height="30" as="geometry" />
        </mxCell>
        <mxCell id="MWxAOVNCKXWw3SZQLkQR-19" value="3" style="text;html=1;align=center;verticalAlign=middle;resizable=0;points=[];autosize=1;strokeColor=none;fillColor=none;" parent="1" vertex="1">
          <mxGeometry x="224.5" y="1080.45" width="30" height="30" as="geometry" />
        </mxCell>
        <mxCell id="MWxAOVNCKXWw3SZQLkQR-20" value="4" style="text;html=1;align=center;verticalAlign=middle;resizable=0;points=[];autosize=1;strokeColor=none;fillColor=none;" parent="1" vertex="1">
          <mxGeometry x="263.5" y="1080.45" width="30" height="30" as="geometry" />
        </mxCell>
        <mxCell id="MWxAOVNCKXWw3SZQLkQR-21" value="5" style="text;html=1;align=center;verticalAlign=middle;resizable=0;points=[];autosize=1;strokeColor=none;fillColor=none;" parent="1" vertex="1">
          <mxGeometry x="304.5" y="1080.45" width="30" height="30" as="geometry" />
        </mxCell>
        <mxCell id="MWxAOVNCKXWw3SZQLkQR-22" value="6" style="text;html=1;align=center;verticalAlign=middle;resizable=0;points=[];autosize=1;strokeColor=none;fillColor=none;" parent="1" vertex="1">
          <mxGeometry x="342.5" y="1080.45" width="30" height="30" as="geometry" />
        </mxCell>
        <mxCell id="MWxAOVNCKXWw3SZQLkQR-23" value="7" style="text;html=1;align=center;verticalAlign=middle;resizable=0;points=[];autosize=1;strokeColor=none;fillColor=none;" parent="1" vertex="1">
          <mxGeometry x="384.5" y="1080.45" width="30" height="30" as="geometry" />
        </mxCell>
        <mxCell id="MWxAOVNCKXWw3SZQLkQR-24" value="X M1" style="rounded=0;whiteSpace=wrap;html=1;" parent="1" vertex="1">
          <mxGeometry x="40" y="840" width="40" height="30" as="geometry" />
        </mxCell>
        <mxCell id="MPO3CPVekaYRdSeFn95K-1" value="R2" style="rounded=0;whiteSpace=wrap;html=1;" vertex="1" parent="1">
          <mxGeometry x="40" y="1000" width="40" height="30" as="geometry" />
        </mxCell>
        <mxCell id="MPO3CPVekaYRdSeFn95K-6" value="p1[n]" style="rounded=0;whiteSpace=wrap;html=1;" vertex="1" parent="1">
          <mxGeometry x="280" y="960" width="200" height="30" as="geometry" />
        </mxCell>
        <mxCell id="MPO3CPVekaYRdSeFn95K-10" value="R1" style="rounded=0;whiteSpace=wrap;html=1;" vertex="1" parent="1">
          <mxGeometry x="40" y="960" width="40" height="30" as="geometry" />
        </mxCell>
        <mxCell id="b9mE7YRg9rnK1tD0XiwC-4" value="m2" style="rounded=0;whiteSpace=wrap;html=1;" vertex="1" parent="1">
          <mxGeometry x="400" y="840" width="80" height="30" as="geometry" />
        </mxCell>
        <mxCell id="b9mE7YRg9rnK1tD0XiwC-5" value="p3" style="rounded=0;whiteSpace=wrap;html=1;" vertex="1" parent="1">
          <mxGeometry x="480" y="920" width="40" height="30" as="geometry" />
        </mxCell>
        <mxCell id="b9mE7YRg9rnK1tD0XiwC-6" value="p1" style="rounded=0;whiteSpace=wrap;html=1;" vertex="1" parent="1">
          <mxGeometry x="520" y="920" width="40" height="30" as="geometry" />
        </mxCell>
        <mxCell id="b9mE7YRg9rnK1tD0XiwC-7" value="m1" style="rounded=0;whiteSpace=wrap;html=1;" vertex="1" parent="1">
          <mxGeometry x="560" y="880" width="80" height="30" as="geometry" />
        </mxCell>
        <mxCell id="b9mE7YRg9rnK1tD0XiwC-8" value="p2" style="rounded=0;whiteSpace=wrap;html=1;" vertex="1" parent="1">
          <mxGeometry x="640" y="920" width="40" height="30" as="geometry" />
        </mxCell>
        <mxCell id="b9mE7YRg9rnK1tD0XiwC-9" value="m5" style="rounded=0;whiteSpace=wrap;html=1;" vertex="1" parent="1">
          <mxGeometry x="480" y="880" width="80" height="30" as="geometry" />
        </mxCell>
        <mxCell id="b9mE7YRg9rnK1tD0XiwC-10" value="p4" style="rounded=0;whiteSpace=wrap;html=1;" vertex="1" parent="1">
          <mxGeometry x="560" y="920" width="40" height="30" as="geometry" />
        </mxCell>
        <mxCell id="b9mE7YRg9rnK1tD0XiwC-11" value="m4" style="rounded=0;whiteSpace=wrap;html=1;" vertex="1" parent="1">
          <mxGeometry x="400" y="880" width="80" height="30" as="geometry" />
        </mxCell>
        <mxCell id="b9mE7YRg9rnK1tD0XiwC-12" value="m3" style="rounded=0;whiteSpace=wrap;html=1;" vertex="1" parent="1">
          <mxGeometry x="480" y="840" width="80" height="30" as="geometry" />
        </mxCell>
        <mxCell id="b9mE7YRg9rnK1tD0XiwC-13" value="" style="rounded=0;whiteSpace=wrap;html=1;fillColor=#000000;fillStyle=hatch;" vertex="1" parent="1">
          <mxGeometry x="560" y="840" width="120" height="30" as="geometry" />
        </mxCell>
        <mxCell id="b9mE7YRg9rnK1tD0XiwC-14" value="" style="rounded=0;whiteSpace=wrap;html=1;fillColor=#000000;fillStyle=hatch;" vertex="1" parent="1">
          <mxGeometry x="640" y="880" width="40" height="30" as="geometry" />
        </mxCell>
        <mxCell id="Ba80L97BTRTSTCB7GUZR-1" value="p1[n+1]" style="rounded=0;whiteSpace=wrap;html=1;" vertex="1" parent="1">
          <mxGeometry x="560" y="960" width="120" height="30" as="geometry" />
        </mxCell>
        <mxCell id="Ba80L97BTRTSTCB7GUZR-2" value="p1[n-1]" style="rounded=0;whiteSpace=wrap;html=1;" vertex="1" parent="1">
          <mxGeometry x="120" y="960" width="80" height="30" as="geometry" />
        </mxCell>
        <mxCell id="Ba80L97BTRTSTCB7GUZR-3" value="" style="rounded=0;whiteSpace=wrap;html=1;fillColor=#000000;fillStyle=hatch;" vertex="1" parent="1">
          <mxGeometry x="320" y="920" width="40" height="30" as="geometry" />
        </mxCell>
        <mxCell id="Ba80L97BTRTSTCB7GUZR-4" value="" style="rounded=0;whiteSpace=wrap;html=1;fillColor=#000000;fillStyle=hatch;" vertex="1" parent="1">
          <mxGeometry x="400" y="920" width="80" height="30" as="geometry" />
        </mxCell>
        <mxCell id="Ba80L97BTRTSTCB7GUZR-5" value="" style="rounded=0;whiteSpace=wrap;html=1;fillColor=#000000;fillStyle=hatch;" vertex="1" parent="1">
          <mxGeometry x="120" y="920" width="80" height="30" as="geometry" />
        </mxCell>
        <mxCell id="Ba80L97BTRTSTCB7GUZR-6" value="" style="rounded=0;whiteSpace=wrap;html=1;fillColor=#000000;fillStyle=hatch;" vertex="1" parent="1">
          <mxGeometry x="600" y="920" width="40" height="30" as="geometry" />
        </mxCell>
        <mxCell id="Ba80L97BTRTSTCB7GUZR-7" value="p1[n-1]" style="rounded=0;whiteSpace=wrap;html=1;" vertex="1" parent="1">
          <mxGeometry x="280" y="1000" width="200" height="30" as="geometry" />
        </mxCell>
        <mxCell id="Ba80L97BTRTSTCB7GUZR-8" value="p1[n]" style="rounded=0;whiteSpace=wrap;html=1;" vertex="1" parent="1">
          <mxGeometry x="560" y="1000" width="120" height="30" as="geometry" />
        </mxCell>
        <mxCell id="Ba80L97BTRTSTCB7GUZR-9" value="p1[n-2]" style="rounded=0;whiteSpace=wrap;html=1;" vertex="1" parent="1">
          <mxGeometry x="120" y="1000" width="80" height="30" as="geometry" />
        </mxCell>
        <mxCell id="Ba80L97BTRTSTCB7GUZR-10" value="" style="endArrow=classic;html=1;rounded=0;entryX=0.622;entryY=-0.015;entryDx=0;entryDy=0;entryPerimeter=0;" edge="1" parent="1" target="Ba80L97BTRTSTCB7GUZR-18">
          <mxGeometry width="50" height="50" relative="1" as="geometry">
            <mxPoint x="399.5" y="1080.9" as="sourcePoint" />
            <mxPoint x="839.5" y="1080.9" as="targetPoint" />
          </mxGeometry>
        </mxCell>
        <mxCell id="Ba80L97BTRTSTCB7GUZR-11" value="0" style="text;html=1;align=center;verticalAlign=middle;resizable=0;points=[];autosize=1;strokeColor=none;fillColor=none;" vertex="1" parent="1">
          <mxGeometry x="384.5" y="1093" width="30" height="30" as="geometry" />
        </mxCell>
        <mxCell id="Ba80L97BTRTSTCB7GUZR-12" value="1" style="text;html=1;align=center;verticalAlign=middle;resizable=0;points=[];autosize=1;strokeColor=none;fillColor=none;" vertex="1" parent="1">
          <mxGeometry x="424.5" y="1080.9" width="30" height="30" as="geometry" />
        </mxCell>
        <mxCell id="Ba80L97BTRTSTCB7GUZR-13" value="2" style="text;html=1;align=center;verticalAlign=middle;resizable=0;points=[];autosize=1;strokeColor=none;fillColor=none;" vertex="1" parent="1">
          <mxGeometry x="464.5" y="1080.9" width="30" height="30" as="geometry" />
        </mxCell>
        <mxCell id="Ba80L97BTRTSTCB7GUZR-14" value="3" style="text;html=1;align=center;verticalAlign=middle;resizable=0;points=[];autosize=1;strokeColor=none;fillColor=none;" vertex="1" parent="1">
          <mxGeometry x="504.5" y="1080.9" width="30" height="30" as="geometry" />
        </mxCell>
        <mxCell id="Ba80L97BTRTSTCB7GUZR-15" value="4" style="text;html=1;align=center;verticalAlign=middle;resizable=0;points=[];autosize=1;strokeColor=none;fillColor=none;" vertex="1" parent="1">
          <mxGeometry x="543.5" y="1080.9" width="30" height="30" as="geometry" />
        </mxCell>
        <mxCell id="Ba80L97BTRTSTCB7GUZR-16" value="5" style="text;html=1;align=center;verticalAlign=middle;resizable=0;points=[];autosize=1;strokeColor=none;fillColor=none;" vertex="1" parent="1">
          <mxGeometry x="584.5" y="1080.9" width="30" height="30" as="geometry" />
        </mxCell>
        <mxCell id="Ba80L97BTRTSTCB7GUZR-17" value="6" style="text;html=1;align=center;verticalAlign=middle;resizable=0;points=[];autosize=1;strokeColor=none;fillColor=none;" vertex="1" parent="1">
          <mxGeometry x="622.5" y="1080.9" width="30" height="30" as="geometry" />
        </mxCell>
        <mxCell id="Ba80L97BTRTSTCB7GUZR-18" value="7" style="text;html=1;align=center;verticalAlign=middle;resizable=0;points=[];autosize=1;strokeColor=none;fillColor=none;" vertex="1" parent="1">
          <mxGeometry x="664.5" y="1080.9" width="30" height="30" as="geometry" />
        </mxCell>
        <mxCell id="Ba80L97BTRTSTCB7GUZR-19" value="R3" style="rounded=0;whiteSpace=wrap;html=1;" vertex="1" parent="1">
          <mxGeometry x="40" y="1040" width="40" height="30" as="geometry" />
        </mxCell>
        <mxCell id="Ba80L97BTRTSTCB7GUZR-20" value="p4[n]" style="rounded=0;whiteSpace=wrap;html=1;" vertex="1" parent="1">
          <mxGeometry x="320" y="1040" width="80" height="30" as="geometry" />
        </mxCell>
        <mxCell id="Ba80L97BTRTSTCB7GUZR-21" value="Y[n]" style="rounded=0;whiteSpace=wrap;html=1;" vertex="1" parent="1">
          <mxGeometry x="400" y="1040" width="120" height="30" as="geometry" />
        </mxCell>
        <mxCell id="Ba80L97BTRTSTCB7GUZR-22" value="Y[n-1]" style="rounded=0;whiteSpace=wrap;html=1;" vertex="1" parent="1">
          <mxGeometry x="120" y="1040" width="120" height="30" as="geometry" />
        </mxCell>
        <mxCell id="Ba80L97BTRTSTCB7GUZR-28" value="p4[n+1]" style="rounded=0;whiteSpace=wrap;html=1;" vertex="1" parent="1">
          <mxGeometry x="600" y="1040" width="80" height="30" as="geometry" />
        </mxCell>
        <mxCell id="Ba80L97BTRTSTCB7GUZR-29" value="" style="rounded=0;whiteSpace=wrap;html=1;fillColor=#000000;fillStyle=hatch;" vertex="1" parent="1">
          <mxGeometry x="240" y="1040" width="80" height="30" as="geometry" />
        </mxCell>
        <mxCell id="Ba80L97BTRTSTCB7GUZR-30" value="" style="rounded=0;whiteSpace=wrap;html=1;fillColor=#000000;fillStyle=hatch;" vertex="1" parent="1">
          <mxGeometry x="520" y="1040" width="80" height="30" as="geometry" />
        </mxCell>
        <mxCell id="z1CUhiIMSzGQVUy-Mi6E-1" value="" style="rounded=0;whiteSpace=wrap;html=1;fillColor=#000000;fillStyle=hatch;" vertex="1" parent="1">
          <mxGeometry x="480" y="960" width="80" height="30" as="geometry" />
        </mxCell>
        <mxCell id="z1CUhiIMSzGQVUy-Mi6E-2" value="" style="rounded=0;whiteSpace=wrap;html=1;fillColor=#000000;fillStyle=hatch;" vertex="1" parent="1">
          <mxGeometry x="480" y="1000" width="80" height="30" as="geometry" />
        </mxCell>
        <mxCell id="z1CUhiIMSzGQVUy-Mi6E-3" value="" style="rounded=0;whiteSpace=wrap;html=1;fillColor=#000000;fillStyle=hatch;" vertex="1" parent="1">
          <mxGeometry x="199.5" y="960" width="80" height="30" as="geometry" />
        </mxCell>
        <mxCell id="z1CUhiIMSzGQVUy-Mi6E-4" value="" style="rounded=0;whiteSpace=wrap;html=1;fillColor=#000000;fillStyle=hatch;" vertex="1" parent="1">
          <mxGeometry x="199.5" y="1000" width="80" height="30" as="geometry" />
        </mxCell>
      </root>
    </mxGraphModel>
  </diagram>
  <diagram id="9aqUuUqiMEpZ2XuFuMAX" name="Circular-arc graph">
    <mxGraphModel dx="1659" dy="925" grid="1" gridSize="10" guides="1" tooltips="1" connect="1" arrows="1" fold="1" page="1" pageScale="1" pageWidth="850" pageHeight="1100" math="0" shadow="0">
      <root>
        <mxCell id="0" />
        <mxCell id="1" parent="0" />
        <mxCell id="geGEgv-NgoZySSDORGSy-27" value="" style="ellipse;whiteSpace=wrap;html=1;fillColor=none;strokeColor=#6c8ebf;" vertex="1" parent="1">
          <mxGeometry x="1245" y="658.13" width="75" height="83.75" as="geometry" />
        </mxCell>
        <mxCell id="geGEgv-NgoZySSDORGSy-26" value="" style="ellipse;whiteSpace=wrap;html=1;fillColor=none;strokeColor=#82b366;" vertex="1" parent="1">
          <mxGeometry x="1165" y="650" width="75" height="83.75" as="geometry" />
        </mxCell>
        <mxCell id="geGEgv-NgoZySSDORGSy-25" value="" style="ellipse;whiteSpace=wrap;html=1;fillColor=none;strokeColor=#9673a6;" vertex="1" parent="1">
          <mxGeometry x="1170" y="740" width="75" height="83.75" as="geometry" />
        </mxCell>
        <mxCell id="geGEgv-NgoZySSDORGSy-24" value="" style="ellipse;whiteSpace=wrap;html=1;fillColor=none;strokeColor=#b85450;" vertex="1" parent="1">
          <mxGeometry x="1085" y="650" width="80" height="245" as="geometry" />
        </mxCell>
        <mxCell id="geGEgv-NgoZySSDORGSy-23" value="" style="ellipse;whiteSpace=wrap;html=1;fillColor=none;strokeColor=#d6b656;" vertex="1" parent="1">
          <mxGeometry x="850" y="650" width="230" height="250" as="geometry" />
        </mxCell>
        <mxCell id="gXywEkCzwHBvfjQ5SH3Z-103" value="" style="ellipse;fillColor=none;strokeColor=#444444;fontSize=12;" parent="1" vertex="1">
          <mxGeometry x="93.5" y="1140" width="410" height="410" as="geometry" />
        </mxCell>
        <mxCell id="gXywEkCzwHBvfjQ5SH3Z-107" value="p4" style="verticalLabelPosition=bottom;verticalAlign=top;html=1;shape=mxgraph.basic.arc;fillColor=#e1d5e7;strokeColor=#9673a6;startAngle=0.2927872915624157;endAngle=0.6433707235619854;strokeWidth=16;fontSize=12;" parent="1" vertex="1">
          <mxGeometry x="94.5" y="1140" width="410" height="410" as="geometry" />
        </mxCell>
        <mxCell id="gXywEkCzwHBvfjQ5SH3Z-101" value="" style="ellipse;fillColor=none;strokeColor=#444444;fontSize=12;" parent="1" vertex="1">
          <mxGeometry x="133.5" y="1180" width="330" height="330" as="geometry" />
        </mxCell>
        <mxCell id="gXywEkCzwHBvfjQ5SH3Z-102" value="" style="ellipse;fillColor=none;strokeColor=#444444;fontSize=12;" parent="1" vertex="1">
          <mxGeometry x="113.5" y="1160" width="370" height="370" as="geometry" />
        </mxCell>
        <mxCell id="gXywEkCzwHBvfjQ5SH3Z-99" value="" style="ellipse;fillColor=none;strokeColor=#444444;fontSize=12;" parent="1" vertex="1">
          <mxGeometry x="153.5" y="1200" width="290" height="290" as="geometry" />
        </mxCell>
        <mxCell id="y6u12NHucqO2ymtP79ss-1" value="X M2" style="rounded=0;whiteSpace=wrap;html=1;" parent="1" vertex="1">
          <mxGeometry x="40" y="80" width="40" height="30" as="geometry" />
        </mxCell>
        <mxCell id="y6u12NHucqO2ymtP79ss-2" value="&lt;font style=&quot;font-size: 12px;&quot;&gt;+ A1&lt;/font&gt;" style="rounded=0;whiteSpace=wrap;html=1;" parent="1" vertex="1">
          <mxGeometry x="40" y="120" width="40" height="30" as="geometry" />
        </mxCell>
        <mxCell id="y6u12NHucqO2ymtP79ss-3" value="m2" style="rounded=0;whiteSpace=wrap;html=1;" parent="1" vertex="1">
          <mxGeometry x="120" y="40" width="80" height="30" as="geometry" />
        </mxCell>
        <mxCell id="y6u12NHucqO2ymtP79ss-4" value="p3" style="rounded=0;whiteSpace=wrap;html=1;" parent="1" vertex="1">
          <mxGeometry x="200" y="120" width="40" height="30" as="geometry" />
        </mxCell>
        <mxCell id="y6u12NHucqO2ymtP79ss-5" value="p1" style="rounded=0;whiteSpace=wrap;html=1;" parent="1" vertex="1">
          <mxGeometry x="240" y="120" width="40" height="30" as="geometry" />
        </mxCell>
        <mxCell id="y6u12NHucqO2ymtP79ss-6" value="m1" style="rounded=0;whiteSpace=wrap;html=1;" parent="1" vertex="1">
          <mxGeometry x="280" y="80" width="80" height="30" as="geometry" />
        </mxCell>
        <mxCell id="y6u12NHucqO2ymtP79ss-7" value="p2" style="rounded=0;whiteSpace=wrap;html=1;" parent="1" vertex="1">
          <mxGeometry x="360" y="120" width="40" height="30" as="geometry" />
        </mxCell>
        <mxCell id="y6u12NHucqO2ymtP79ss-8" value="m5" style="rounded=0;whiteSpace=wrap;html=1;" parent="1" vertex="1">
          <mxGeometry x="200" y="80" width="80" height="30" as="geometry" />
        </mxCell>
        <mxCell id="y6u12NHucqO2ymtP79ss-9" value="p4" style="rounded=0;whiteSpace=wrap;html=1;" parent="1" vertex="1">
          <mxGeometry x="280" y="120" width="40" height="30" as="geometry" />
        </mxCell>
        <mxCell id="y6u12NHucqO2ymtP79ss-10" value="m4" style="rounded=0;whiteSpace=wrap;html=1;" parent="1" vertex="1">
          <mxGeometry x="120" y="80" width="80" height="30" as="geometry" />
        </mxCell>
        <mxCell id="y6u12NHucqO2ymtP79ss-11" value="m3" style="rounded=0;whiteSpace=wrap;html=1;" parent="1" vertex="1">
          <mxGeometry x="200" y="40" width="80" height="30" as="geometry" />
        </mxCell>
        <mxCell id="y6u12NHucqO2ymtP79ss-12" value="" style="rounded=0;whiteSpace=wrap;html=1;fillColor=#000000;fillStyle=hatch;" parent="1" vertex="1">
          <mxGeometry x="280" y="40" width="120" height="30" as="geometry" />
        </mxCell>
        <mxCell id="y6u12NHucqO2ymtP79ss-13" value="" style="endArrow=classic;html=1;rounded=0;entryX=0.622;entryY=-0.015;entryDx=0;entryDy=0;entryPerimeter=0;" parent="1" target="y6u12NHucqO2ymtP79ss-22" edge="1">
          <mxGeometry width="50" height="50" relative="1" as="geometry">
            <mxPoint x="119.5" y="280.45000000000005" as="sourcePoint" />
            <mxPoint x="559.5" y="280.45000000000005" as="targetPoint" />
          </mxGeometry>
        </mxCell>
        <mxCell id="y6u12NHucqO2ymtP79ss-14" value="" style="rounded=0;whiteSpace=wrap;html=1;fillColor=#000000;fillStyle=hatch;" parent="1" vertex="1">
          <mxGeometry x="360" y="80" width="40" height="30" as="geometry" />
        </mxCell>
        <mxCell id="y6u12NHucqO2ymtP79ss-15" value="0" style="text;html=1;align=center;verticalAlign=middle;resizable=0;points=[];autosize=1;strokeColor=none;fillColor=none;" parent="1" vertex="1">
          <mxGeometry x="105.5" y="280.45000000000005" width="30" height="30" as="geometry" />
        </mxCell>
        <mxCell id="y6u12NHucqO2ymtP79ss-16" value="1" style="text;html=1;align=center;verticalAlign=middle;resizable=0;points=[];autosize=1;strokeColor=none;fillColor=none;" parent="1" vertex="1">
          <mxGeometry x="144.5" y="280.45000000000005" width="30" height="30" as="geometry" />
        </mxCell>
        <mxCell id="y6u12NHucqO2ymtP79ss-17" value="2" style="text;html=1;align=center;verticalAlign=middle;resizable=0;points=[];autosize=1;strokeColor=none;fillColor=none;" parent="1" vertex="1">
          <mxGeometry x="184.5" y="280.45000000000005" width="30" height="30" as="geometry" />
        </mxCell>
        <mxCell id="y6u12NHucqO2ymtP79ss-18" value="3" style="text;html=1;align=center;verticalAlign=middle;resizable=0;points=[];autosize=1;strokeColor=none;fillColor=none;" parent="1" vertex="1">
          <mxGeometry x="224.5" y="280.45000000000005" width="30" height="30" as="geometry" />
        </mxCell>
        <mxCell id="y6u12NHucqO2ymtP79ss-19" value="4" style="text;html=1;align=center;verticalAlign=middle;resizable=0;points=[];autosize=1;strokeColor=none;fillColor=none;" parent="1" vertex="1">
          <mxGeometry x="263.5" y="280.45000000000005" width="30" height="30" as="geometry" />
        </mxCell>
        <mxCell id="y6u12NHucqO2ymtP79ss-20" value="5" style="text;html=1;align=center;verticalAlign=middle;resizable=0;points=[];autosize=1;strokeColor=none;fillColor=none;" parent="1" vertex="1">
          <mxGeometry x="304.5" y="280.45000000000005" width="30" height="30" as="geometry" />
        </mxCell>
        <mxCell id="y6u12NHucqO2ymtP79ss-21" value="6" style="text;html=1;align=center;verticalAlign=middle;resizable=0;points=[];autosize=1;strokeColor=none;fillColor=none;" parent="1" vertex="1">
          <mxGeometry x="342.5" y="280.45000000000005" width="30" height="30" as="geometry" />
        </mxCell>
        <mxCell id="y6u12NHucqO2ymtP79ss-22" value="7" style="text;html=1;align=center;verticalAlign=middle;resizable=0;points=[];autosize=1;strokeColor=none;fillColor=none;" parent="1" vertex="1">
          <mxGeometry x="384.5" y="280.45000000000005" width="30" height="30" as="geometry" />
        </mxCell>
        <mxCell id="y6u12NHucqO2ymtP79ss-23" value="X M1" style="rounded=0;whiteSpace=wrap;html=1;" parent="1" vertex="1">
          <mxGeometry x="40" y="40" width="40" height="30" as="geometry" />
        </mxCell>
        <mxCell id="y6u12NHucqO2ymtP79ss-24" value="R2" style="rounded=0;whiteSpace=wrap;html=1;" parent="1" vertex="1">
          <mxGeometry x="40" y="200" width="40" height="30" as="geometry" />
        </mxCell>
        <mxCell id="y6u12NHucqO2ymtP79ss-25" value="p1[n]" style="rounded=0;whiteSpace=wrap;html=1;" parent="1" vertex="1">
          <mxGeometry x="280" y="160" width="200" height="30" as="geometry" />
        </mxCell>
        <mxCell id="y6u12NHucqO2ymtP79ss-26" value="R1" style="rounded=0;whiteSpace=wrap;html=1;" parent="1" vertex="1">
          <mxGeometry x="40" y="160" width="40" height="30" as="geometry" />
        </mxCell>
        <mxCell id="y6u12NHucqO2ymtP79ss-27" value="m2" style="rounded=0;whiteSpace=wrap;html=1;" parent="1" vertex="1">
          <mxGeometry x="400" y="40" width="80" height="30" as="geometry" />
        </mxCell>
        <mxCell id="y6u12NHucqO2ymtP79ss-28" value="p3" style="rounded=0;whiteSpace=wrap;html=1;" parent="1" vertex="1">
          <mxGeometry x="480" y="120" width="40" height="30" as="geometry" />
        </mxCell>
        <mxCell id="y6u12NHucqO2ymtP79ss-29" value="p1" style="rounded=0;whiteSpace=wrap;html=1;" parent="1" vertex="1">
          <mxGeometry x="520" y="120" width="40" height="30" as="geometry" />
        </mxCell>
        <mxCell id="y6u12NHucqO2ymtP79ss-30" value="m1" style="rounded=0;whiteSpace=wrap;html=1;" parent="1" vertex="1">
          <mxGeometry x="560" y="80" width="80" height="30" as="geometry" />
        </mxCell>
        <mxCell id="y6u12NHucqO2ymtP79ss-31" value="p2" style="rounded=0;whiteSpace=wrap;html=1;" parent="1" vertex="1">
          <mxGeometry x="640" y="120" width="40" height="30" as="geometry" />
        </mxCell>
        <mxCell id="y6u12NHucqO2ymtP79ss-32" value="m5" style="rounded=0;whiteSpace=wrap;html=1;" parent="1" vertex="1">
          <mxGeometry x="480" y="80" width="80" height="30" as="geometry" />
        </mxCell>
        <mxCell id="y6u12NHucqO2ymtP79ss-33" value="p4" style="rounded=0;whiteSpace=wrap;html=1;" parent="1" vertex="1">
          <mxGeometry x="560" y="120" width="40" height="30" as="geometry" />
        </mxCell>
        <mxCell id="y6u12NHucqO2ymtP79ss-34" value="m4" style="rounded=0;whiteSpace=wrap;html=1;" parent="1" vertex="1">
          <mxGeometry x="400" y="80" width="80" height="30" as="geometry" />
        </mxCell>
        <mxCell id="y6u12NHucqO2ymtP79ss-35" value="m3" style="rounded=0;whiteSpace=wrap;html=1;" parent="1" vertex="1">
          <mxGeometry x="480" y="40" width="80" height="30" as="geometry" />
        </mxCell>
        <mxCell id="y6u12NHucqO2ymtP79ss-36" value="" style="rounded=0;whiteSpace=wrap;html=1;fillColor=#000000;fillStyle=hatch;" parent="1" vertex="1">
          <mxGeometry x="560" y="40" width="120" height="30" as="geometry" />
        </mxCell>
        <mxCell id="y6u12NHucqO2ymtP79ss-37" value="" style="rounded=0;whiteSpace=wrap;html=1;fillColor=#000000;fillStyle=hatch;" parent="1" vertex="1">
          <mxGeometry x="640" y="80" width="40" height="30" as="geometry" />
        </mxCell>
        <mxCell id="y6u12NHucqO2ymtP79ss-38" value="p1[n+1]" style="rounded=0;whiteSpace=wrap;html=1;" parent="1" vertex="1">
          <mxGeometry x="560" y="160" width="120" height="30" as="geometry" />
        </mxCell>
        <mxCell id="y6u12NHucqO2ymtP79ss-39" value="p1[n-1]" style="rounded=0;whiteSpace=wrap;html=1;" parent="1" vertex="1">
          <mxGeometry x="120" y="160" width="80" height="30" as="geometry" />
        </mxCell>
        <mxCell id="y6u12NHucqO2ymtP79ss-40" value="" style="rounded=0;whiteSpace=wrap;html=1;fillColor=#000000;fillStyle=hatch;" parent="1" vertex="1">
          <mxGeometry x="320" y="120" width="40" height="30" as="geometry" />
        </mxCell>
        <mxCell id="y6u12NHucqO2ymtP79ss-41" value="" style="rounded=0;whiteSpace=wrap;html=1;fillColor=#000000;fillStyle=hatch;" parent="1" vertex="1">
          <mxGeometry x="400" y="120" width="80" height="30" as="geometry" />
        </mxCell>
        <mxCell id="y6u12NHucqO2ymtP79ss-42" value="" style="rounded=0;whiteSpace=wrap;html=1;fillColor=#000000;fillStyle=hatch;" parent="1" vertex="1">
          <mxGeometry x="120" y="120" width="80" height="30" as="geometry" />
        </mxCell>
        <mxCell id="y6u12NHucqO2ymtP79ss-43" value="" style="rounded=0;whiteSpace=wrap;html=1;fillColor=#000000;fillStyle=hatch;" parent="1" vertex="1">
          <mxGeometry x="600" y="120" width="40" height="30" as="geometry" />
        </mxCell>
        <mxCell id="y6u12NHucqO2ymtP79ss-44" value="p1[n-1]" style="rounded=0;whiteSpace=wrap;html=1;" parent="1" vertex="1">
          <mxGeometry x="280" y="200" width="200" height="30" as="geometry" />
        </mxCell>
        <mxCell id="y6u12NHucqO2ymtP79ss-45" value="p1[n]" style="rounded=0;whiteSpace=wrap;html=1;" parent="1" vertex="1">
          <mxGeometry x="560" y="200" width="120" height="30" as="geometry" />
        </mxCell>
        <mxCell id="y6u12NHucqO2ymtP79ss-46" value="p1[n-2]" style="rounded=0;whiteSpace=wrap;html=1;" parent="1" vertex="1">
          <mxGeometry x="120" y="200" width="80" height="30" as="geometry" />
        </mxCell>
        <mxCell id="y6u12NHucqO2ymtP79ss-47" value="" style="endArrow=classic;html=1;rounded=0;entryX=0.622;entryY=-0.015;entryDx=0;entryDy=0;entryPerimeter=0;" parent="1" target="y6u12NHucqO2ymtP79ss-54" edge="1">
          <mxGeometry width="50" height="50" relative="1" as="geometry">
            <mxPoint x="399.5" y="280.9000000000001" as="sourcePoint" />
            <mxPoint x="839.5" y="280.9000000000001" as="targetPoint" />
          </mxGeometry>
        </mxCell>
        <mxCell id="y6u12NHucqO2ymtP79ss-48" value="1" style="text;html=1;align=center;verticalAlign=middle;resizable=0;points=[];autosize=1;strokeColor=none;fillColor=none;" parent="1" vertex="1">
          <mxGeometry x="424.5" y="280.9000000000001" width="30" height="30" as="geometry" />
        </mxCell>
        <mxCell id="y6u12NHucqO2ymtP79ss-49" value="2" style="text;html=1;align=center;verticalAlign=middle;resizable=0;points=[];autosize=1;strokeColor=none;fillColor=none;" parent="1" vertex="1">
          <mxGeometry x="464.5" y="280.9000000000001" width="30" height="30" as="geometry" />
        </mxCell>
        <mxCell id="y6u12NHucqO2ymtP79ss-50" value="3" style="text;html=1;align=center;verticalAlign=middle;resizable=0;points=[];autosize=1;strokeColor=none;fillColor=none;" parent="1" vertex="1">
          <mxGeometry x="504.5" y="280.9000000000001" width="30" height="30" as="geometry" />
        </mxCell>
        <mxCell id="y6u12NHucqO2ymtP79ss-51" value="4" style="text;html=1;align=center;verticalAlign=middle;resizable=0;points=[];autosize=1;strokeColor=none;fillColor=none;" parent="1" vertex="1">
          <mxGeometry x="543.5" y="280.9000000000001" width="30" height="30" as="geometry" />
        </mxCell>
        <mxCell id="y6u12NHucqO2ymtP79ss-52" value="5" style="text;html=1;align=center;verticalAlign=middle;resizable=0;points=[];autosize=1;strokeColor=none;fillColor=none;" parent="1" vertex="1">
          <mxGeometry x="584.5" y="280.9000000000001" width="30" height="30" as="geometry" />
        </mxCell>
        <mxCell id="y6u12NHucqO2ymtP79ss-53" value="6" style="text;html=1;align=center;verticalAlign=middle;resizable=0;points=[];autosize=1;strokeColor=none;fillColor=none;" parent="1" vertex="1">
          <mxGeometry x="622.5" y="280.9000000000001" width="30" height="30" as="geometry" />
        </mxCell>
        <mxCell id="y6u12NHucqO2ymtP79ss-54" value="7" style="text;html=1;align=center;verticalAlign=middle;resizable=0;points=[];autosize=1;strokeColor=none;fillColor=none;" parent="1" vertex="1">
          <mxGeometry x="664.5" y="280.9000000000001" width="30" height="30" as="geometry" />
        </mxCell>
        <mxCell id="y6u12NHucqO2ymtP79ss-55" value="R3" style="rounded=0;whiteSpace=wrap;html=1;" parent="1" vertex="1">
          <mxGeometry x="40" y="240" width="40" height="30" as="geometry" />
        </mxCell>
        <mxCell id="y6u12NHucqO2ymtP79ss-56" value="p4[n]" style="rounded=0;whiteSpace=wrap;html=1;" parent="1" vertex="1">
          <mxGeometry x="320" y="240" width="80" height="30" as="geometry" />
        </mxCell>
        <mxCell id="y6u12NHucqO2ymtP79ss-57" value="Y[n]" style="rounded=0;whiteSpace=wrap;html=1;" parent="1" vertex="1">
          <mxGeometry x="400" y="240" width="120" height="30" as="geometry" />
        </mxCell>
        <mxCell id="y6u12NHucqO2ymtP79ss-58" value="Y[n-1]" style="rounded=0;whiteSpace=wrap;html=1;" parent="1" vertex="1">
          <mxGeometry x="120" y="240" width="120" height="30" as="geometry" />
        </mxCell>
        <mxCell id="y6u12NHucqO2ymtP79ss-59" value="p4[n+1]" style="rounded=0;whiteSpace=wrap;html=1;" parent="1" vertex="1">
          <mxGeometry x="600" y="240" width="80" height="30" as="geometry" />
        </mxCell>
        <mxCell id="y6u12NHucqO2ymtP79ss-60" value="" style="rounded=0;whiteSpace=wrap;html=1;fillColor=#000000;fillStyle=hatch;" parent="1" vertex="1">
          <mxGeometry x="240" y="240" width="80" height="30" as="geometry" />
        </mxCell>
        <mxCell id="y6u12NHucqO2ymtP79ss-61" value="" style="rounded=0;whiteSpace=wrap;html=1;fillColor=#000000;fillStyle=hatch;" parent="1" vertex="1">
          <mxGeometry x="520" y="240" width="80" height="30" as="geometry" />
        </mxCell>
        <mxCell id="y6u12NHucqO2ymtP79ss-62" value="" style="rounded=0;whiteSpace=wrap;html=1;fillColor=#000000;fillStyle=hatch;" parent="1" vertex="1">
          <mxGeometry x="480" y="160" width="80" height="30" as="geometry" />
        </mxCell>
        <mxCell id="y6u12NHucqO2ymtP79ss-63" value="" style="rounded=0;whiteSpace=wrap;html=1;fillColor=#000000;fillStyle=hatch;" parent="1" vertex="1">
          <mxGeometry x="480" y="200" width="80" height="30" as="geometry" />
        </mxCell>
        <mxCell id="y6u12NHucqO2ymtP79ss-64" value="" style="rounded=0;whiteSpace=wrap;html=1;fillColor=#000000;fillStyle=hatch;" parent="1" vertex="1">
          <mxGeometry x="199.5" y="160" width="80" height="30" as="geometry" />
        </mxCell>
        <mxCell id="y6u12NHucqO2ymtP79ss-65" value="" style="rounded=0;whiteSpace=wrap;html=1;fillColor=#000000;fillStyle=hatch;" parent="1" vertex="1">
          <mxGeometry x="199.5" y="200" width="80" height="30" as="geometry" />
        </mxCell>
        <mxCell id="bG5sJtmT8PA6y9nWq9i2-12" style="edgeStyle=none;rounded=0;orthogonalLoop=1;jettySize=auto;html=1;entryX=0;entryY=0.5;entryDx=0;entryDy=0;fontSize=12;" parent="1" source="y6u12NHucqO2ymtP79ss-66" target="y6u12NHucqO2ymtP79ss-70" edge="1">
          <mxGeometry relative="1" as="geometry" />
        </mxCell>
        <mxCell id="y6u12NHucqO2ymtP79ss-66" value="p1" style="ellipse;whiteSpace=wrap;html=1;aspect=fixed;fontSize=12;" parent="1" vertex="1">
          <mxGeometry x="280" y="480" width="40" height="40" as="geometry" />
        </mxCell>
        <mxCell id="y6u12NHucqO2ymtP79ss-67" value="p2" style="ellipse;whiteSpace=wrap;html=1;aspect=fixed;fontSize=12;" parent="1" vertex="1">
          <mxGeometry x="440" y="480" width="40" height="40" as="geometry" />
        </mxCell>
        <mxCell id="bG5sJtmT8PA6y9nWq9i2-11" style="edgeStyle=none;rounded=0;orthogonalLoop=1;jettySize=auto;html=1;entryX=0;entryY=0.5;entryDx=0;entryDy=0;fontSize=12;" parent="1" source="y6u12NHucqO2ymtP79ss-68" target="y6u12NHucqO2ymtP79ss-66" edge="1">
          <mxGeometry relative="1" as="geometry" />
        </mxCell>
        <mxCell id="y6u12NHucqO2ymtP79ss-68" value="p3" style="ellipse;whiteSpace=wrap;html=1;aspect=fixed;fontSize=12;" parent="1" vertex="1">
          <mxGeometry x="200" y="440" width="40" height="40" as="geometry" />
        </mxCell>
        <mxCell id="bG5sJtmT8PA6y9nWq9i2-13" style="edgeStyle=orthogonalEdgeStyle;rounded=0;orthogonalLoop=1;jettySize=auto;html=1;entryX=0.5;entryY=1;entryDx=0;entryDy=0;fontSize=12;" parent="1" source="y6u12NHucqO2ymtP79ss-69" target="y6u12NHucqO2ymtP79ss-67" edge="1">
          <mxGeometry relative="1" as="geometry" />
        </mxCell>
        <mxCell id="y6u12NHucqO2ymtP79ss-69" value="p4" style="ellipse;whiteSpace=wrap;html=1;aspect=fixed;fontSize=12;" parent="1" vertex="1">
          <mxGeometry x="200" y="520" width="40" height="40" as="geometry" />
        </mxCell>
        <mxCell id="bG5sJtmT8PA6y9nWq9i2-14" style="edgeStyle=none;rounded=0;orthogonalLoop=1;jettySize=auto;html=1;entryX=0;entryY=0.5;entryDx=0;entryDy=0;fontSize=12;" parent="1" source="y6u12NHucqO2ymtP79ss-70" target="y6u12NHucqO2ymtP79ss-67" edge="1">
          <mxGeometry relative="1" as="geometry" />
        </mxCell>
        <mxCell id="y6u12NHucqO2ymtP79ss-70" value="m1" style="ellipse;whiteSpace=wrap;html=1;aspect=fixed;fontSize=12;" parent="1" vertex="1">
          <mxGeometry x="360" y="480" width="40" height="40" as="geometry" />
        </mxCell>
        <mxCell id="bG5sJtmT8PA6y9nWq9i2-6" style="edgeStyle=none;rounded=0;orthogonalLoop=1;jettySize=auto;html=1;exitX=1;exitY=0.5;exitDx=0;exitDy=0;entryX=0;entryY=0.5;entryDx=0;entryDy=0;fontSize=12;" parent="1" source="y6u12NHucqO2ymtP79ss-71" target="y6u12NHucqO2ymtP79ss-68" edge="1">
          <mxGeometry relative="1" as="geometry" />
        </mxCell>
        <mxCell id="y6u12NHucqO2ymtP79ss-71" value="m2" style="ellipse;whiteSpace=wrap;html=1;aspect=fixed;fontSize=12;" parent="1" vertex="1">
          <mxGeometry x="120" y="360" width="40" height="40" as="geometry" />
        </mxCell>
        <mxCell id="bG5sJtmT8PA6y9nWq9i2-8" style="edgeStyle=none;rounded=0;orthogonalLoop=1;jettySize=auto;html=1;entryX=0;entryY=0.5;entryDx=0;entryDy=0;fontSize=12;" parent="1" source="y6u12NHucqO2ymtP79ss-72" target="y6u12NHucqO2ymtP79ss-69" edge="1">
          <mxGeometry relative="1" as="geometry" />
        </mxCell>
        <mxCell id="y6u12NHucqO2ymtP79ss-72" value="m3" style="ellipse;whiteSpace=wrap;html=1;aspect=fixed;fontSize=12;" parent="1" vertex="1">
          <mxGeometry x="120" y="520" width="40" height="40" as="geometry" />
        </mxCell>
        <mxCell id="bG5sJtmT8PA6y9nWq9i2-7" style="edgeStyle=none;rounded=0;orthogonalLoop=1;jettySize=auto;html=1;entryX=0;entryY=0.5;entryDx=0;entryDy=0;fontSize=12;" parent="1" source="y6u12NHucqO2ymtP79ss-73" target="y6u12NHucqO2ymtP79ss-68" edge="1">
          <mxGeometry relative="1" as="geometry" />
        </mxCell>
        <mxCell id="y6u12NHucqO2ymtP79ss-73" value="m4" style="ellipse;whiteSpace=wrap;html=1;aspect=fixed;fontSize=12;" parent="1" vertex="1">
          <mxGeometry x="120" y="440" width="40" height="40" as="geometry" />
        </mxCell>
        <mxCell id="bG5sJtmT8PA6y9nWq9i2-9" style="edgeStyle=none;rounded=0;orthogonalLoop=1;jettySize=auto;html=1;entryX=0;entryY=0.5;entryDx=0;entryDy=0;fontSize=12;" parent="1" source="y6u12NHucqO2ymtP79ss-74" target="y6u12NHucqO2ymtP79ss-69" edge="1">
          <mxGeometry relative="1" as="geometry" />
        </mxCell>
        <mxCell id="y6u12NHucqO2ymtP79ss-74" value="m5" style="ellipse;whiteSpace=wrap;html=1;aspect=fixed;fontSize=12;" parent="1" vertex="1">
          <mxGeometry x="120" y="600" width="40" height="40" as="geometry" />
        </mxCell>
        <mxCell id="bG5sJtmT8PA6y9nWq9i2-1" style="rounded=0;orthogonalLoop=1;jettySize=auto;html=1;entryX=0;entryY=0.5;entryDx=0;entryDy=0;fontSize=12;" parent="1" source="y6u12NHucqO2ymtP79ss-76" target="y6u12NHucqO2ymtP79ss-71" edge="1">
          <mxGeometry relative="1" as="geometry" />
        </mxCell>
        <mxCell id="bG5sJtmT8PA6y9nWq9i2-2" style="edgeStyle=none;rounded=0;orthogonalLoop=1;jettySize=auto;html=1;exitX=1;exitY=0.5;exitDx=0;exitDy=0;entryX=0;entryY=0.5;entryDx=0;entryDy=0;fontSize=12;" parent="1" source="y6u12NHucqO2ymtP79ss-76" target="y6u12NHucqO2ymtP79ss-72" edge="1">
          <mxGeometry relative="1" as="geometry" />
        </mxCell>
        <mxCell id="bG5sJtmT8PA6y9nWq9i2-4" style="edgeStyle=none;rounded=0;orthogonalLoop=1;jettySize=auto;html=1;entryX=0;entryY=0.5;entryDx=0;entryDy=0;fontSize=12;" parent="1" source="y6u12NHucqO2ymtP79ss-76" target="y6u12NHucqO2ymtP79ss-74" edge="1">
          <mxGeometry relative="1" as="geometry" />
        </mxCell>
        <mxCell id="bG5sJtmT8PA6y9nWq9i2-5" style="edgeStyle=none;rounded=0;orthogonalLoop=1;jettySize=auto;html=1;exitX=1;exitY=0.5;exitDx=0;exitDy=0;entryX=0;entryY=0.5;entryDx=0;entryDy=0;fontSize=12;" parent="1" source="y6u12NHucqO2ymtP79ss-76" target="y6u12NHucqO2ymtP79ss-73" edge="1">
          <mxGeometry relative="1" as="geometry" />
        </mxCell>
        <mxCell id="y6u12NHucqO2ymtP79ss-76" value="input" style="ellipse;whiteSpace=wrap;html=1;aspect=fixed;fontSize=12;" parent="1" vertex="1">
          <mxGeometry x="40" y="480" width="40" height="40" as="geometry" />
        </mxCell>
        <mxCell id="bG5sJtmT8PA6y9nWq9i2-21" style="edgeStyle=none;rounded=0;orthogonalLoop=1;jettySize=auto;html=1;fontSize=12;endArrow=none;endFill=0;" parent="1" source="bG5sJtmT8PA6y9nWq9i2-15" target="bG5sJtmT8PA6y9nWq9i2-16" edge="1">
          <mxGeometry relative="1" as="geometry" />
        </mxCell>
        <mxCell id="bG5sJtmT8PA6y9nWq9i2-25" style="edgeStyle=none;rounded=0;orthogonalLoop=1;jettySize=auto;html=1;fontSize=12;endArrow=none;endFill=0;" parent="1" source="bG5sJtmT8PA6y9nWq9i2-15" target="bG5sJtmT8PA6y9nWq9i2-18" edge="1">
          <mxGeometry relative="1" as="geometry" />
        </mxCell>
        <mxCell id="gXywEkCzwHBvfjQ5SH3Z-9" style="rounded=0;orthogonalLoop=1;jettySize=auto;html=1;fontSize=12;endArrow=none;endFill=0;" parent="1" source="bG5sJtmT8PA6y9nWq9i2-15" target="bG5sJtmT8PA6y9nWq9i2-28" edge="1">
          <mxGeometry relative="1" as="geometry" />
        </mxCell>
        <mxCell id="gXywEkCzwHBvfjQ5SH3Z-10" style="edgeStyle=none;rounded=0;orthogonalLoop=1;jettySize=auto;html=1;fontSize=12;endArrow=none;endFill=0;" parent="1" source="bG5sJtmT8PA6y9nWq9i2-15" target="bG5sJtmT8PA6y9nWq9i2-17" edge="1">
          <mxGeometry relative="1" as="geometry" />
        </mxCell>
        <mxCell id="bG5sJtmT8PA6y9nWq9i2-15" value="m2" style="ellipse;whiteSpace=wrap;html=1;aspect=fixed;fontSize=12;" parent="1" vertex="1">
          <mxGeometry x="40" y="760" width="40" height="40" as="geometry" />
        </mxCell>
        <mxCell id="bG5sJtmT8PA6y9nWq9i2-24" style="edgeStyle=none;rounded=0;orthogonalLoop=1;jettySize=auto;html=1;fontSize=12;endArrow=none;endFill=0;" parent="1" source="bG5sJtmT8PA6y9nWq9i2-16" target="bG5sJtmT8PA6y9nWq9i2-18" edge="1">
          <mxGeometry relative="1" as="geometry" />
        </mxCell>
        <mxCell id="bG5sJtmT8PA6y9nWq9i2-26" style="edgeStyle=none;rounded=0;orthogonalLoop=1;jettySize=auto;html=1;fontSize=12;endArrow=none;endFill=0;" parent="1" source="bG5sJtmT8PA6y9nWq9i2-16" target="bG5sJtmT8PA6y9nWq9i2-17" edge="1">
          <mxGeometry relative="1" as="geometry" />
        </mxCell>
        <mxCell id="gXywEkCzwHBvfjQ5SH3Z-4" style="edgeStyle=none;rounded=0;orthogonalLoop=1;jettySize=auto;html=1;fontSize=12;endArrow=none;endFill=0;" parent="1" source="bG5sJtmT8PA6y9nWq9i2-16" target="bG5sJtmT8PA6y9nWq9i2-27" edge="1">
          <mxGeometry relative="1" as="geometry" />
        </mxCell>
        <mxCell id="bG5sJtmT8PA6y9nWq9i2-16" value="m3" style="ellipse;whiteSpace=wrap;html=1;aspect=fixed;fontSize=12;" parent="1" vertex="1">
          <mxGeometry x="199.5" y="760" width="40" height="40" as="geometry" />
        </mxCell>
        <mxCell id="bG5sJtmT8PA6y9nWq9i2-22" style="edgeStyle=none;rounded=0;orthogonalLoop=1;jettySize=auto;html=1;fontSize=12;endArrow=none;endFill=0;" parent="1" source="bG5sJtmT8PA6y9nWq9i2-17" target="bG5sJtmT8PA6y9nWq9i2-18" edge="1">
          <mxGeometry relative="1" as="geometry" />
        </mxCell>
        <mxCell id="gXywEkCzwHBvfjQ5SH3Z-7" style="edgeStyle=none;rounded=0;orthogonalLoop=1;jettySize=auto;html=1;fontSize=12;endArrow=none;endFill=0;" parent="1" source="bG5sJtmT8PA6y9nWq9i2-17" target="bG5sJtmT8PA6y9nWq9i2-28" edge="1">
          <mxGeometry relative="1" as="geometry" />
        </mxCell>
        <mxCell id="bG5sJtmT8PA6y9nWq9i2-17" value="m4" style="ellipse;whiteSpace=wrap;html=1;aspect=fixed;fontSize=12;" parent="1" vertex="1">
          <mxGeometry x="120" y="680" width="40" height="40" as="geometry" />
        </mxCell>
        <mxCell id="gXywEkCzwHBvfjQ5SH3Z-5" style="edgeStyle=none;rounded=0;orthogonalLoop=1;jettySize=auto;html=1;fontSize=12;endArrow=none;endFill=0;" parent="1" source="bG5sJtmT8PA6y9nWq9i2-18" target="bG5sJtmT8PA6y9nWq9i2-27" edge="1">
          <mxGeometry relative="1" as="geometry" />
        </mxCell>
        <mxCell id="bG5sJtmT8PA6y9nWq9i2-18" value="m5" style="ellipse;whiteSpace=wrap;html=1;aspect=fixed;fontSize=12;" parent="1" vertex="1">
          <mxGeometry x="120" y="840" width="40" height="40" as="geometry" />
        </mxCell>
        <mxCell id="bG5sJtmT8PA6y9nWq9i2-27" value="p3" style="ellipse;whiteSpace=wrap;html=1;aspect=fixed;fontSize=12;" parent="1" vertex="1">
          <mxGeometry x="280" y="840" width="40" height="40" as="geometry" />
        </mxCell>
        <mxCell id="gXywEkCzwHBvfjQ5SH3Z-6" style="edgeStyle=none;rounded=0;orthogonalLoop=1;jettySize=auto;html=1;fontSize=12;endArrow=none;endFill=0;" parent="1" source="bG5sJtmT8PA6y9nWq9i2-28" target="bG5sJtmT8PA6y9nWq9i2-27" edge="1">
          <mxGeometry relative="1" as="geometry" />
        </mxCell>
        <mxCell id="gXywEkCzwHBvfjQ5SH3Z-14" style="edgeStyle=none;rounded=0;orthogonalLoop=1;jettySize=auto;html=1;fontSize=12;endArrow=none;endFill=0;" parent="1" source="bG5sJtmT8PA6y9nWq9i2-28" target="gXywEkCzwHBvfjQ5SH3Z-11" edge="1">
          <mxGeometry relative="1" as="geometry" />
        </mxCell>
        <mxCell id="gXywEkCzwHBvfjQ5SH3Z-131" style="edgeStyle=none;rounded=0;orthogonalLoop=1;jettySize=auto;html=1;fontSize=12;endArrow=none;endFill=0;" parent="1" source="bG5sJtmT8PA6y9nWq9i2-28" target="gXywEkCzwHBvfjQ5SH3Z-12" edge="1">
          <mxGeometry relative="1" as="geometry" />
        </mxCell>
        <mxCell id="bG5sJtmT8PA6y9nWq9i2-28" value="p4" style="ellipse;whiteSpace=wrap;html=1;aspect=fixed;fontSize=12;" parent="1" vertex="1">
          <mxGeometry x="280" y="680" width="40" height="40" as="geometry" />
        </mxCell>
        <mxCell id="gXywEkCzwHBvfjQ5SH3Z-11" value="m1" style="ellipse;whiteSpace=wrap;html=1;aspect=fixed;fontSize=12;" parent="1" vertex="1">
          <mxGeometry x="360" y="760" width="40" height="40" as="geometry" />
        </mxCell>
        <mxCell id="gXywEkCzwHBvfjQ5SH3Z-12" value="p1" style="ellipse;whiteSpace=wrap;html=1;aspect=fixed;fontSize=12;" parent="1" vertex="1">
          <mxGeometry x="360" y="680" width="40" height="40" as="geometry" />
        </mxCell>
        <mxCell id="gXywEkCzwHBvfjQ5SH3Z-15" value="p2" style="ellipse;whiteSpace=wrap;html=1;aspect=fixed;fontSize=12;" parent="1" vertex="1">
          <mxGeometry x="440" y="680" width="40" height="40" as="geometry" />
        </mxCell>
        <mxCell id="gXywEkCzwHBvfjQ5SH3Z-75" value="" style="ellipse;fillColor=none;strokeColor=#444444;fontSize=12;" parent="1" vertex="1">
          <mxGeometry x="173.5" y="1220" width="250" height="250" as="geometry" />
        </mxCell>
        <mxCell id="gXywEkCzwHBvfjQ5SH3Z-76" value="" style="ellipse;fillColor=none;strokeColor=#444444;fontSize=12;" parent="1" vertex="1">
          <mxGeometry x="193.5" y="1240" width="210" height="210" as="geometry" />
        </mxCell>
        <mxCell id="gXywEkCzwHBvfjQ5SH3Z-77" value="" style="ellipse;fillColor=none;strokeColor=#444444;fontSize=12;" parent="1" vertex="1">
          <mxGeometry x="213.5" y="1260" width="170" height="170" as="geometry" />
        </mxCell>
        <mxCell id="gXywEkCzwHBvfjQ5SH3Z-78" value="" style="ellipse;fillColor=none;strokeColor=#444444;fontSize=12;" parent="1" vertex="1">
          <mxGeometry x="233.5" y="1280" width="130" height="130" as="geometry" />
        </mxCell>
        <mxCell id="gXywEkCzwHBvfjQ5SH3Z-79" value="" style="ellipse;fillColor=none;strokeColor=#444444;fontSize=12;" parent="1" vertex="1">
          <mxGeometry x="253.5" y="1300" width="90" height="90" as="geometry" />
        </mxCell>
        <mxCell id="gXywEkCzwHBvfjQ5SH3Z-80" value="m5" style="verticalLabelPosition=bottom;verticalAlign=top;html=1;shape=mxgraph.basic.arc;fillColor=#f5f5f5;strokeColor=#666666;startAngle=0.0019893331818622456;endAngle=0.5935835209054994;strokeWidth=16;fontSize=12;fontColor=#333333;" parent="1" vertex="1">
          <mxGeometry x="173.5" y="1220" width="250" height="250" as="geometry" />
        </mxCell>
        <mxCell id="gXywEkCzwHBvfjQ5SH3Z-81" value="m4" style="verticalLabelPosition=bottom;verticalAlign=top;html=1;shape=mxgraph.basic.arc;fillColor=none;strokeColor=#F2931E;startAngle=0.0015914963824541276;endAngle=0.5935835209054994;strokeWidth=16;fontSize=12;" parent="1" vertex="1">
          <mxGeometry x="193.5" y="1240" width="210" height="210" as="geometry" />
        </mxCell>
        <mxCell id="gXywEkCzwHBvfjQ5SH3Z-82" value="m3" style="verticalLabelPosition=bottom;verticalAlign=top;html=1;shape=mxgraph.basic.arc;fillColor=none;strokeColor=#AE4132;startAngle=0.0015914963824541276;endAngle=0.5912658943067584;strokeWidth=16;fontSize=12;" parent="1" vertex="1">
          <mxGeometry x="213.5" y="1260" width="170" height="170" as="geometry" />
        </mxCell>
        <mxCell id="gXywEkCzwHBvfjQ5SH3Z-83" value="m2" style="verticalLabelPosition=bottom;verticalAlign=top;html=1;shape=mxgraph.basic.arc;fillColor=none;strokeColor=#12AAB5;startAngle=0.004870569055754277;endAngle=0.5932081561696638;strokeWidth=16;fontSize=12;" parent="1" vertex="1">
          <mxGeometry x="233.5" y="1280" width="130" height="130" as="geometry" />
        </mxCell>
        <mxCell id="gXywEkCzwHBvfjQ5SH3Z-84" value="m1" style="verticalLabelPosition=bottom;verticalAlign=top;html=1;shape=mxgraph.basic.arc;fillColor=none;strokeColor=#CCCCCC;startAngle=0.3064013158610013;endAngle=0.8300299826193697;strokeWidth=16;fontSize=12;" parent="1" vertex="1">
          <mxGeometry x="253.5" y="1300" width="90" height="90" as="geometry" />
        </mxCell>
        <mxCell id="gXywEkCzwHBvfjQ5SH3Z-104" value="p1" style="verticalLabelPosition=bottom;verticalAlign=top;html=1;shape=mxgraph.basic.arc;fillColor=#dae8fc;strokeColor=#6c8ebf;startAngle=0.34284669772945503;endAngle=0.5948015196504033;strokeWidth=16;fontSize=12;" parent="1" vertex="1">
          <mxGeometry x="153.5" y="1200" width="290" height="290" as="geometry" />
        </mxCell>
        <mxCell id="gXywEkCzwHBvfjQ5SH3Z-105" value="p2" style="verticalLabelPosition=bottom;verticalAlign=top;html=1;shape=mxgraph.basic.arc;fillColor=#d5e8d4;strokeColor=#82b366;startAngle=0.8053488351616231;endAngle=0.9962993892948065;strokeWidth=16;fontSize=12;" parent="1" vertex="1">
          <mxGeometry x="133.5" y="1180" width="330" height="330" as="geometry" />
        </mxCell>
        <mxCell id="gXywEkCzwHBvfjQ5SH3Z-106" value="p3" style="verticalLabelPosition=bottom;verticalAlign=top;html=1;shape=mxgraph.basic.arc;fillColor=#fff2cc;strokeColor=#d6b656;startAngle=0.2913707582190045;endAngle=0.41144556431382573;strokeWidth=16;fontSize=12;" parent="1" vertex="1">
          <mxGeometry x="113.5" y="1160" width="370" height="370" as="geometry" />
        </mxCell>
        <mxCell id="gXywEkCzwHBvfjQ5SH3Z-183" style="edgeStyle=none;rounded=0;orthogonalLoop=1;jettySize=auto;html=1;fontSize=12;endArrow=none;endFill=0;" parent="1" source="gXywEkCzwHBvfjQ5SH3Z-159" target="gXywEkCzwHBvfjQ5SH3Z-175" edge="1">
          <mxGeometry relative="1" as="geometry" />
        </mxCell>
        <mxCell id="gXywEkCzwHBvfjQ5SH3Z-184" style="edgeStyle=none;rounded=0;orthogonalLoop=1;jettySize=auto;html=1;fontSize=12;endArrow=none;endFill=0;" parent="1" source="gXywEkCzwHBvfjQ5SH3Z-159" target="gXywEkCzwHBvfjQ5SH3Z-174" edge="1">
          <mxGeometry relative="1" as="geometry" />
        </mxCell>
        <mxCell id="gXywEkCzwHBvfjQ5SH3Z-185" style="edgeStyle=none;rounded=0;orthogonalLoop=1;jettySize=auto;html=1;fontSize=12;endArrow=none;endFill=0;" parent="1" source="gXywEkCzwHBvfjQ5SH3Z-159" target="gXywEkCzwHBvfjQ5SH3Z-169" edge="1">
          <mxGeometry relative="1" as="geometry" />
        </mxCell>
        <mxCell id="gXywEkCzwHBvfjQ5SH3Z-159" value="m2" style="ellipse;whiteSpace=wrap;html=1;aspect=fixed;fontSize=12;fillColor=#ffe6cc;strokeColor=#d79b00;" parent="1" vertex="1">
          <mxGeometry x="664.5" y="1380" width="40" height="40" as="geometry" />
        </mxCell>
        <mxCell id="gXywEkCzwHBvfjQ5SH3Z-177" style="edgeStyle=none;rounded=0;orthogonalLoop=1;jettySize=auto;html=1;fontSize=12;endArrow=none;endFill=0;" parent="1" source="gXywEkCzwHBvfjQ5SH3Z-163" target="gXywEkCzwHBvfjQ5SH3Z-173" edge="1">
          <mxGeometry relative="1" as="geometry" />
        </mxCell>
        <mxCell id="gXywEkCzwHBvfjQ5SH3Z-178" style="edgeStyle=none;rounded=0;orthogonalLoop=1;jettySize=auto;html=1;fontSize=12;endArrow=none;endFill=0;" parent="1" source="gXywEkCzwHBvfjQ5SH3Z-163" target="gXywEkCzwHBvfjQ5SH3Z-174" edge="1">
          <mxGeometry relative="1" as="geometry" />
        </mxCell>
        <mxCell id="gXywEkCzwHBvfjQ5SH3Z-179" style="edgeStyle=none;rounded=0;orthogonalLoop=1;jettySize=auto;html=1;fontSize=12;endArrow=none;endFill=0;" parent="1" source="gXywEkCzwHBvfjQ5SH3Z-163" target="gXywEkCzwHBvfjQ5SH3Z-175" edge="1">
          <mxGeometry relative="1" as="geometry" />
        </mxCell>
        <mxCell id="gXywEkCzwHBvfjQ5SH3Z-163" value="m3" style="ellipse;whiteSpace=wrap;html=1;aspect=fixed;fontSize=12;fillColor=#ffe6cc;strokeColor=#d79b00;" parent="1" vertex="1">
          <mxGeometry x="865" y="1140" width="40" height="40" as="geometry" />
        </mxCell>
        <mxCell id="gXywEkCzwHBvfjQ5SH3Z-180" style="edgeStyle=none;rounded=0;orthogonalLoop=1;jettySize=auto;html=1;fontSize=12;endArrow=none;endFill=0;" parent="1" source="gXywEkCzwHBvfjQ5SH3Z-166" target="gXywEkCzwHBvfjQ5SH3Z-175" edge="1">
          <mxGeometry relative="1" as="geometry" />
        </mxCell>
        <mxCell id="gXywEkCzwHBvfjQ5SH3Z-181" style="edgeStyle=none;rounded=0;orthogonalLoop=1;jettySize=auto;html=1;fontSize=12;endArrow=none;endFill=0;" parent="1" source="gXywEkCzwHBvfjQ5SH3Z-166" target="gXywEkCzwHBvfjQ5SH3Z-174" edge="1">
          <mxGeometry relative="1" as="geometry" />
        </mxCell>
        <mxCell id="gXywEkCzwHBvfjQ5SH3Z-182" style="edgeStyle=none;rounded=0;orthogonalLoop=1;jettySize=auto;html=1;fontSize=12;endArrow=none;endFill=0;" parent="1" source="gXywEkCzwHBvfjQ5SH3Z-166" target="gXywEkCzwHBvfjQ5SH3Z-169" edge="1">
          <mxGeometry relative="1" as="geometry" />
        </mxCell>
        <mxCell id="gXywEkCzwHBvfjQ5SH3Z-166" value="m4" style="ellipse;whiteSpace=wrap;html=1;aspect=fixed;fontSize=12;fillColor=#ffe6cc;strokeColor=#d79b00;" parent="1" vertex="1">
          <mxGeometry x="664.5" y="1180" width="40" height="40" as="geometry" />
        </mxCell>
        <mxCell id="gXywEkCzwHBvfjQ5SH3Z-168" value="m5" style="ellipse;whiteSpace=wrap;html=1;aspect=fixed;fontSize=12;fillColor=#ffe6cc;strokeColor=#d79b00;" parent="1" vertex="1">
          <mxGeometry x="745" y="1420" width="40" height="40" as="geometry" />
        </mxCell>
        <mxCell id="gXywEkCzwHBvfjQ5SH3Z-169" value="p3" style="ellipse;whiteSpace=wrap;html=1;aspect=fixed;fontSize=12;fillColor=#f8cecc;strokeColor=#b85450;" parent="1" vertex="1">
          <mxGeometry x="665" y="1260" width="40" height="40" as="geometry" />
        </mxCell>
        <mxCell id="gXywEkCzwHBvfjQ5SH3Z-189" style="edgeStyle=none;rounded=0;orthogonalLoop=1;jettySize=auto;html=1;fontSize=12;endArrow=none;endFill=0;" parent="1" source="gXywEkCzwHBvfjQ5SH3Z-173" target="gXywEkCzwHBvfjQ5SH3Z-168" edge="1">
          <mxGeometry relative="1" as="geometry" />
        </mxCell>
        <mxCell id="gXywEkCzwHBvfjQ5SH3Z-173" value="p4" style="ellipse;whiteSpace=wrap;html=1;aspect=fixed;fontSize=12;fillColor=#f8cecc;strokeColor=#b85450;" parent="1" vertex="1">
          <mxGeometry x="865" y="1420" width="40" height="40" as="geometry" />
        </mxCell>
        <mxCell id="gXywEkCzwHBvfjQ5SH3Z-186" style="edgeStyle=none;rounded=0;orthogonalLoop=1;jettySize=auto;html=1;fontSize=12;endArrow=none;endFill=0;" parent="1" source="gXywEkCzwHBvfjQ5SH3Z-174" target="gXywEkCzwHBvfjQ5SH3Z-169" edge="1">
          <mxGeometry relative="1" as="geometry" />
        </mxCell>
        <mxCell id="gXywEkCzwHBvfjQ5SH3Z-187" style="edgeStyle=none;rounded=0;orthogonalLoop=1;jettySize=auto;html=1;fontSize=12;endArrow=none;endFill=0;" parent="1" source="gXywEkCzwHBvfjQ5SH3Z-174" target="gXywEkCzwHBvfjQ5SH3Z-175" edge="1">
          <mxGeometry relative="1" as="geometry" />
        </mxCell>
        <mxCell id="gXywEkCzwHBvfjQ5SH3Z-188" style="edgeStyle=none;rounded=0;orthogonalLoop=1;jettySize=auto;html=1;fontSize=12;endArrow=none;endFill=0;" parent="1" source="gXywEkCzwHBvfjQ5SH3Z-174" target="gXywEkCzwHBvfjQ5SH3Z-168" edge="1">
          <mxGeometry relative="1" as="geometry" />
        </mxCell>
        <mxCell id="gXywEkCzwHBvfjQ5SH3Z-174" value="m1" style="ellipse;whiteSpace=wrap;html=1;aspect=fixed;fontSize=12;fillColor=#e1d5e7;strokeColor=#9673a6;" parent="1" vertex="1">
          <mxGeometry x="919.5" y="1240" width="40" height="40" as="geometry" />
        </mxCell>
        <mxCell id="gXywEkCzwHBvfjQ5SH3Z-190" style="edgeStyle=none;rounded=0;orthogonalLoop=1;jettySize=auto;html=1;fontSize=12;endArrow=none;endFill=0;" parent="1" source="gXywEkCzwHBvfjQ5SH3Z-175" target="gXywEkCzwHBvfjQ5SH3Z-168" edge="1">
          <mxGeometry relative="1" as="geometry" />
        </mxCell>
        <mxCell id="gXywEkCzwHBvfjQ5SH3Z-191" style="edgeStyle=none;rounded=0;orthogonalLoop=1;jettySize=auto;html=1;fontSize=12;endArrow=none;endFill=0;" parent="1" source="gXywEkCzwHBvfjQ5SH3Z-175" target="gXywEkCzwHBvfjQ5SH3Z-169" edge="1">
          <mxGeometry relative="1" as="geometry" />
        </mxCell>
        <mxCell id="gXywEkCzwHBvfjQ5SH3Z-175" value="p1" style="ellipse;whiteSpace=wrap;html=1;aspect=fixed;fontSize=12;fillColor=#d5e8d4;strokeColor=#82b366;" parent="1" vertex="1">
          <mxGeometry x="745" y="1140" width="40" height="40" as="geometry" />
        </mxCell>
        <mxCell id="gXywEkCzwHBvfjQ5SH3Z-194" style="edgeStyle=none;rounded=0;orthogonalLoop=1;jettySize=auto;html=1;fontSize=12;endArrow=none;endFill=0;" parent="1" source="gXywEkCzwHBvfjQ5SH3Z-176" target="gXywEkCzwHBvfjQ5SH3Z-166" edge="1">
          <mxGeometry relative="1" as="geometry" />
        </mxCell>
        <mxCell id="gXywEkCzwHBvfjQ5SH3Z-195" style="edgeStyle=none;rounded=0;orthogonalLoop=1;jettySize=auto;html=1;fontSize=12;endArrow=none;endFill=0;" parent="1" source="gXywEkCzwHBvfjQ5SH3Z-176" target="gXywEkCzwHBvfjQ5SH3Z-169" edge="1">
          <mxGeometry relative="1" as="geometry" />
        </mxCell>
        <mxCell id="gXywEkCzwHBvfjQ5SH3Z-196" style="edgeStyle=none;rounded=0;orthogonalLoop=1;jettySize=auto;html=1;fontSize=12;endArrow=none;endFill=0;" parent="1" source="gXywEkCzwHBvfjQ5SH3Z-176" target="gXywEkCzwHBvfjQ5SH3Z-159" edge="1">
          <mxGeometry relative="1" as="geometry" />
        </mxCell>
        <mxCell id="gXywEkCzwHBvfjQ5SH3Z-197" style="edgeStyle=none;rounded=0;orthogonalLoop=1;jettySize=auto;html=1;fontSize=12;endArrow=none;endFill=0;" parent="1" source="gXywEkCzwHBvfjQ5SH3Z-176" target="gXywEkCzwHBvfjQ5SH3Z-168" edge="1">
          <mxGeometry relative="1" as="geometry" />
        </mxCell>
        <mxCell id="gXywEkCzwHBvfjQ5SH3Z-198" style="edgeStyle=none;rounded=0;orthogonalLoop=1;jettySize=auto;html=1;fontSize=12;endArrow=none;endFill=0;" parent="1" source="gXywEkCzwHBvfjQ5SH3Z-176" target="gXywEkCzwHBvfjQ5SH3Z-173" edge="1">
          <mxGeometry relative="1" as="geometry" />
        </mxCell>
        <mxCell id="gXywEkCzwHBvfjQ5SH3Z-199" style="edgeStyle=none;rounded=0;orthogonalLoop=1;jettySize=auto;html=1;fontSize=12;endArrow=none;endFill=0;" parent="1" source="gXywEkCzwHBvfjQ5SH3Z-176" target="gXywEkCzwHBvfjQ5SH3Z-174" edge="1">
          <mxGeometry relative="1" as="geometry" />
        </mxCell>
        <mxCell id="gXywEkCzwHBvfjQ5SH3Z-200" style="edgeStyle=none;rounded=0;orthogonalLoop=1;jettySize=auto;html=1;fontSize=12;endArrow=none;endFill=0;" parent="1" source="gXywEkCzwHBvfjQ5SH3Z-176" target="gXywEkCzwHBvfjQ5SH3Z-163" edge="1">
          <mxGeometry relative="1" as="geometry" />
        </mxCell>
        <mxCell id="gXywEkCzwHBvfjQ5SH3Z-201" style="edgeStyle=none;rounded=0;orthogonalLoop=1;jettySize=auto;html=1;fontSize=12;endArrow=none;endFill=0;" parent="1" source="gXywEkCzwHBvfjQ5SH3Z-176" target="gXywEkCzwHBvfjQ5SH3Z-175" edge="1">
          <mxGeometry relative="1" as="geometry" />
        </mxCell>
        <mxCell id="gXywEkCzwHBvfjQ5SH3Z-176" value="p2" style="ellipse;whiteSpace=wrap;html=1;aspect=fixed;fontSize=12;fillColor=#dae8fc;strokeColor=#6c8ebf;" parent="1" vertex="1">
          <mxGeometry x="770" y="1280" width="40" height="40" as="geometry" />
        </mxCell>
        <mxCell id="geGEgv-NgoZySSDORGSy-1" style="edgeStyle=none;rounded=0;orthogonalLoop=1;jettySize=auto;html=1;fontSize=12;endArrow=none;endFill=0;" edge="1" parent="1" source="geGEgv-NgoZySSDORGSy-5" target="geGEgv-NgoZySSDORGSy-9">
          <mxGeometry relative="1" as="geometry" />
        </mxCell>
        <mxCell id="geGEgv-NgoZySSDORGSy-2" style="edgeStyle=none;rounded=0;orthogonalLoop=1;jettySize=auto;html=1;fontSize=12;endArrow=none;endFill=0;" edge="1" parent="1" source="geGEgv-NgoZySSDORGSy-5" target="geGEgv-NgoZySSDORGSy-14">
          <mxGeometry relative="1" as="geometry" />
        </mxCell>
        <mxCell id="geGEgv-NgoZySSDORGSy-3" style="rounded=0;orthogonalLoop=1;jettySize=auto;html=1;fontSize=12;endArrow=none;endFill=0;" edge="1" parent="1" source="geGEgv-NgoZySSDORGSy-5" target="geGEgv-NgoZySSDORGSy-19">
          <mxGeometry relative="1" as="geometry" />
        </mxCell>
        <mxCell id="geGEgv-NgoZySSDORGSy-4" style="edgeStyle=none;rounded=0;orthogonalLoop=1;jettySize=auto;html=1;fontSize=12;endArrow=none;endFill=0;" edge="1" parent="1" source="geGEgv-NgoZySSDORGSy-5" target="geGEgv-NgoZySSDORGSy-12">
          <mxGeometry relative="1" as="geometry" />
        </mxCell>
        <mxCell id="geGEgv-NgoZySSDORGSy-5" value="m2" style="ellipse;whiteSpace=wrap;html=1;aspect=fixed;fontSize=12;" vertex="1" parent="1">
          <mxGeometry x="865" y="760" width="40" height="40" as="geometry" />
        </mxCell>
        <mxCell id="geGEgv-NgoZySSDORGSy-6" style="edgeStyle=none;rounded=0;orthogonalLoop=1;jettySize=auto;html=1;fontSize=12;endArrow=none;endFill=0;" edge="1" parent="1" source="geGEgv-NgoZySSDORGSy-9" target="geGEgv-NgoZySSDORGSy-14">
          <mxGeometry relative="1" as="geometry" />
        </mxCell>
        <mxCell id="geGEgv-NgoZySSDORGSy-7" style="edgeStyle=none;rounded=0;orthogonalLoop=1;jettySize=auto;html=1;fontSize=12;endArrow=none;endFill=0;" edge="1" parent="1" source="geGEgv-NgoZySSDORGSy-9" target="geGEgv-NgoZySSDORGSy-12">
          <mxGeometry relative="1" as="geometry" />
        </mxCell>
        <mxCell id="geGEgv-NgoZySSDORGSy-8" style="edgeStyle=none;rounded=0;orthogonalLoop=1;jettySize=auto;html=1;fontSize=12;endArrow=none;endFill=0;" edge="1" parent="1" source="geGEgv-NgoZySSDORGSy-9" target="geGEgv-NgoZySSDORGSy-15">
          <mxGeometry relative="1" as="geometry" />
        </mxCell>
        <mxCell id="geGEgv-NgoZySSDORGSy-9" value="m3" style="ellipse;whiteSpace=wrap;html=1;aspect=fixed;fontSize=12;" vertex="1" parent="1">
          <mxGeometry x="1024.5" y="760" width="40" height="40" as="geometry" />
        </mxCell>
        <mxCell id="geGEgv-NgoZySSDORGSy-10" style="edgeStyle=none;rounded=0;orthogonalLoop=1;jettySize=auto;html=1;fontSize=12;endArrow=none;endFill=0;" edge="1" parent="1" source="geGEgv-NgoZySSDORGSy-12" target="geGEgv-NgoZySSDORGSy-14">
          <mxGeometry relative="1" as="geometry" />
        </mxCell>
        <mxCell id="geGEgv-NgoZySSDORGSy-11" style="edgeStyle=none;rounded=0;orthogonalLoop=1;jettySize=auto;html=1;fontSize=12;endArrow=none;endFill=0;" edge="1" parent="1" source="geGEgv-NgoZySSDORGSy-12" target="geGEgv-NgoZySSDORGSy-19">
          <mxGeometry relative="1" as="geometry" />
        </mxCell>
        <mxCell id="geGEgv-NgoZySSDORGSy-12" value="m4" style="ellipse;whiteSpace=wrap;html=1;aspect=fixed;fontSize=12;" vertex="1" parent="1">
          <mxGeometry x="945" y="680" width="40" height="40" as="geometry" />
        </mxCell>
        <mxCell id="geGEgv-NgoZySSDORGSy-13" style="edgeStyle=none;rounded=0;orthogonalLoop=1;jettySize=auto;html=1;fontSize=12;endArrow=none;endFill=0;" edge="1" parent="1" source="geGEgv-NgoZySSDORGSy-14" target="geGEgv-NgoZySSDORGSy-15">
          <mxGeometry relative="1" as="geometry" />
        </mxCell>
        <mxCell id="geGEgv-NgoZySSDORGSy-14" value="m5" style="ellipse;whiteSpace=wrap;html=1;aspect=fixed;fontSize=12;" vertex="1" parent="1">
          <mxGeometry x="945" y="840" width="40" height="40" as="geometry" />
        </mxCell>
        <mxCell id="geGEgv-NgoZySSDORGSy-15" value="p3" style="ellipse;whiteSpace=wrap;html=1;aspect=fixed;fontSize=12;" vertex="1" parent="1">
          <mxGeometry x="1105" y="840" width="40" height="40" as="geometry" />
        </mxCell>
        <mxCell id="geGEgv-NgoZySSDORGSy-16" style="edgeStyle=none;rounded=0;orthogonalLoop=1;jettySize=auto;html=1;fontSize=12;endArrow=none;endFill=0;" edge="1" parent="1" source="geGEgv-NgoZySSDORGSy-19" target="geGEgv-NgoZySSDORGSy-15">
          <mxGeometry relative="1" as="geometry" />
        </mxCell>
        <mxCell id="geGEgv-NgoZySSDORGSy-17" style="edgeStyle=none;rounded=0;orthogonalLoop=1;jettySize=auto;html=1;fontSize=12;endArrow=none;endFill=0;" edge="1" parent="1" source="geGEgv-NgoZySSDORGSy-19" target="geGEgv-NgoZySSDORGSy-20">
          <mxGeometry relative="1" as="geometry" />
        </mxCell>
        <mxCell id="geGEgv-NgoZySSDORGSy-18" style="edgeStyle=none;rounded=0;orthogonalLoop=1;jettySize=auto;html=1;fontSize=12;endArrow=none;endFill=0;" edge="1" parent="1" source="geGEgv-NgoZySSDORGSy-19" target="geGEgv-NgoZySSDORGSy-21">
          <mxGeometry relative="1" as="geometry" />
        </mxCell>
        <mxCell id="geGEgv-NgoZySSDORGSy-19" value="p4" style="ellipse;whiteSpace=wrap;html=1;aspect=fixed;fontSize=12;" vertex="1" parent="1">
          <mxGeometry x="1105" y="680" width="40" height="40" as="geometry" />
        </mxCell>
        <mxCell id="geGEgv-NgoZySSDORGSy-20" value="m1" style="ellipse;whiteSpace=wrap;html=1;aspect=fixed;fontSize=12;" vertex="1" parent="1">
          <mxGeometry x="1185" y="760" width="40" height="40" as="geometry" />
        </mxCell>
        <mxCell id="geGEgv-NgoZySSDORGSy-21" value="p1" style="ellipse;whiteSpace=wrap;html=1;aspect=fixed;fontSize=12;" vertex="1" parent="1">
          <mxGeometry x="1185" y="680" width="40" height="40" as="geometry" />
        </mxCell>
        <mxCell id="geGEgv-NgoZySSDORGSy-22" value="p2" style="ellipse;whiteSpace=wrap;html=1;aspect=fixed;fontSize=12;" vertex="1" parent="1">
          <mxGeometry x="1265" y="680" width="40" height="40" as="geometry" />
        </mxCell>
      </root>
    </mxGraphModel>
  </diagram>
  <diagram name="Synthesis" id="KzzbEoHLRvUxdtb_cWMe">
    <mxGraphModel dx="2074" dy="-13" grid="1" gridSize="10" guides="1" tooltips="1" connect="1" arrows="1" fold="1" page="1" pageScale="1" pageWidth="827" pageHeight="1169" math="0" shadow="0">
      <root>
        <mxCell id="0" />
        <mxCell id="1" parent="0" />
        <mxCell id="rp3IQ6fHCBkWrm4gDAKN-271" style="edgeStyle=orthogonalEdgeStyle;rounded=0;orthogonalLoop=1;jettySize=auto;html=1;exitX=0.5;exitY=1;exitDx=0;exitDy=0;entryX=0.5;entryY=0;entryDx=0;entryDy=0;" parent="1" source="rp3IQ6fHCBkWrm4gDAKN-212" target="rp3IQ6fHCBkWrm4gDAKN-269" edge="1">
          <mxGeometry relative="1" as="geometry" />
        </mxCell>
        <mxCell id="rp3IQ6fHCBkWrm4gDAKN-212" value="" style="shape=image;verticalLabelPosition=bottom;labelBackgroundColor=default;verticalAlign=top;aspect=fixed;imageAspect=0;image=data:image/png,iVBORw0KGgoAAAANSUhEUgAAAS4AAACZCAMAAACmJicIAAAAAXNSR0IArs4c6QAAAARnQU1BAACxjwv8YQUAAABjUExURQAAAAAAAAAAAAAAAAAAAAAAAAAAAAAAAAAAAAAAAAAAAAAAAAAAAAAAAAAAAAAAAAAAAAAAAAAAAAAAAAAAAAAAAAAAAAAAAAAAAAAAAAAAAAAAAAAAAAAAAAAAAAAAAAAAAGZodN4AAAAgdFJOUwAIEBggKDA4QEhQWGBocHiAh4+Xn6evt7/Hz9ff5+/3v+H4wgAAAAlwSFlzAAAXEQAAFxEByibzPwAABq5JREFUeF7dne1W2zAMhlNaPrYx6MbHYBSW+7/K6U0Eo2ubOLb0xsrzy9k5I7XsR01sJW2ud60/vy8bZza/9FSe7G6bF2368nau3XLijNONtnnQhjMvZ9oxHx71NM48N+u3tr3Tk3qxkXM8atuFrXTlStte3Lbtn4umuSac6ouc41bbDnyVP3+jbS/O/7TtFg1JkrtV909+yNC0X7Rtzrn35AXP8oXVRYmhI5LL20bbxqwkzb8QxhsqAoaOjn1yHIkPPlQEDB3djHH1/J0PFQFFR6d87Pwt0vNJRcDQ0efb3v0aBeypCBg6eiSZLiX6XgELeyoCio64U9k/bTFyT+J9f3WgIqDoiEl9r20TbuRTf9W2GwcqAoqOxun+Sv7cQUfMOVARUHRsfsi8NpvElDR/TEVA0RGT+NUo3a9k2Hfuaf6oioCi49mubZ9tznIvw+6e5o+rCDg6mqV7Spo/pSLg6PhNzvJd2wVcSdh/aNuPkyoCio7NTxmw4rX7zWvbPmnbkZMqAo6OzZOk+7W2M+Gk+SEVAUdHg3R/N9wPIwZVBBwdL+VjFM3i7zKs37TtyKCKgKQjZvG1tjNAuH9q25ERFQFHx7J0v+ak+VEVAUfHlaT7XWa679J84VdFCvIRx9dPSDquJd0/5Q2LyYXIOMiPCd8mJB2z809h3ktlI58v6TKYo2M3ehndJqV5qJi2c0XSMe/aqUDiSWAwE40n6ZhzZY6viNI7ghSSVQQkHTMuCEhpPl1FwNJxch4yWs0YZYKKADoyBhFrVhNuZi4kvIxhnKQiEB3dqzTApBVRw5XYYSapCCbHN5NJ6Z6U5qeqCDL+SxZY5vul7RFMd5EGyJoqkydkJsmLyIwSwY6snrN0TN2iMNsSGSPTK5aOaXUOtDSfPU1YOq5+y4nG0r18VVtt5w6T3Wuajgmb94xK8I4Cp2g6jpaG0NJ80RRh6YhV8aF0j7rWB237UtRjmo7DhYUOZXQnKPSJpuNgHTmjEryjeHrQdBxI90jz7pXgHcW95el4suCbUgneYeASTcdTk4hTIghMpgZNx+MpivLAT49JT3k6Hv0CpKV5qyVRno5HLq9GLsgMwYK7yYYcT8eDi3dOJXiH2XYOT8f/bw15ad5ys5CnI8b4X6pKWqqwwXTvi6fj3rIW5YGfHtOdVaKOnxZNOZXgHcb79kQdP9I9pxK8w3wbmqfj+4bPhC2iYkxVBEQdMTSva1IleIdDCQ1Rxy7dS5onPPDT4VIRQtQRpRACKc3bqwiYOqLQhlIiCBxUBEQdUcZFqATvcCvOIuq4utmS0ryPioCpIw0nFQF09H9uiYqbikB05Gxg0XBTESQ9JRMJRxVBwjNYkXBVEYw+4RcKVxXBonR0VhEsSEd3FcFydHRXESxGR4KKYCE64oEkdxXBMnR8aNtXSi8WoSPWiDhVUEvQESpSqvRBfB2hImuJKL6ORBVBcB2pKoLYOlJVBKF1JKsIAutIVxHE1ZGuIgir4wwqgqA6zqIiiKnjLCqCkDrOpCIIqONsKoJ4Os6mIgin44wqgmA6zqoiiKXjrCqCUDrOrCKw13H7jh6bMbuKwFxHmQI9emzG7CoCcx01WObhqkBFYK1jHytBj42oQkUgOj5r0wINlnW47mtQEaAM3vBRfA2WcbjwvgBWof4IW9HR7gmLPlaCHptwJipyXgszDh7TtNNRg2UbLqjIeG1hEqY6arBMwwUVCb+ekIqljn2sBD02oCYVgaWOGizLcFWlIjDUUYNlGK7KVAR2OvaxEvS4mNpUBHY6arDswlWdisBMRw2WWbgqVBHk64h3k4ySextfo4ogX0fXcFWpIsjW0TNclaoIcnV0DFetKoJcHR3DVa2KIFNHv3BVrCLI09EtXDWrCPJ0dAtX1SqCLB29wlW5iiBPx8/00RH0OJvaVQTl944arPJwVa8iKL531GAVhyuAiqBUxz5Wgh5nEkFFUKqjBqs0XCFUBIU6arAKw4UX1AZQEZTp2MdK0OMsVjvaC2qLKdNRg1UWrru2fQuhIijSUYNVFC6oSPi5XitKdOxjJehxBlCR9RJRC0p01GCVhCuUiqBARw1WQbiCqQjydexjJejxZKKpCKBj3ssptZA3v5Q3nIrgQuYH40eGDwioIsCrrjk/KrJHRBUBfrKG9a7YT4RUEVzOoWNQFcEMOkZVEcygY1gVAV3HwCoCso6RVQRkHUOrCKg6BlcREHWMriIg6hheRUDTcQEqApKOS1ARkHRchIoAOlJYgIpAdGSwBBXB6lE75MqTv4pN8xdmXntD6ROg2AAAAABJRU5ErkJggg==;" parent="1" vertex="1">
          <mxGeometry x="1148.77" y="1858" width="80" height="40.53" as="geometry" />
        </mxCell>
        <mxCell id="rp3IQ6fHCBkWrm4gDAKN-229" style="edgeStyle=orthogonalEdgeStyle;rounded=0;orthogonalLoop=1;jettySize=auto;html=1;exitX=0.5;exitY=1;exitDx=0;exitDy=0;entryX=0.25;entryY=0;entryDx=0;entryDy=0;" parent="1" source="rp3IQ6fHCBkWrm4gDAKN-213" target="rp3IQ6fHCBkWrm4gDAKN-226" edge="1">
          <mxGeometry relative="1" as="geometry">
            <Array as="points">
              <mxPoint x="1059.83" y="1724" />
              <mxPoint x="1233.83" y="1724" />
            </Array>
          </mxGeometry>
        </mxCell>
        <mxCell id="rp3IQ6fHCBkWrm4gDAKN-213" value="" style="shape=image;verticalLabelPosition=bottom;labelBackgroundColor=default;verticalAlign=top;aspect=fixed;imageAspect=0;image=data:image/png,iVBORw0KGgoAAAANSUhEUgAAAS4AAACYCAMAAABtevStAAAAAXNSR0IArs4c6QAAAARnQU1BAACxjwv8YQUAAABvUExURQAAAAAAAAAAAAAAAAAAAAAAAAAAAAAAAAAAAAAAAAAAAAAAAAAAAAAAAAAAAAAAAAAAAAAAAAAAAAAAAAAAAAAAAAAAAAAAAAAAAAAAAAAAAAAAAAAAAAAAAAAAAAAAAAAAAAAAAAAAAAAAAAAAAG3qvUYAAAAkdFJOUwAIEBggKDA4QEhQWGBocHJ4gIePl5+nr7e8v8fP19rf5+/3+FIp+ZIAAAAJcEhZcwAAFxEAABcRAcom8z8AAAcVSURBVHhe3Z3ZdtpKEEUlwAOOnTgeIMF2GC7//423j2iwxCh1VR26tJ/aLC+DpN5Hoody8Thf2/N5XxhzO4tvZcn8ufiKTVtWt/GwjBgyLnqgeI0NY+aDeGAmlIy+FZgVg8V6/R7f1YrREu9kCK65te9PwZGbohiHtxrHl6zAe7zGtgGP4c//jG0rRqv1+hmN9/V6YapK4Dkc0I/YVucuHMkkts0Iun9UDYaOxdQu7hHzn2X8wYqoImDoWIY7sE3cI+aXo/iDFTdbFQFDR7O4Z8R88bFVEVB0NIp7RswjercqgnuCjjZxT4n5horgjaCjRdxTYr6pIijD25rrqB/3lJjfVxFQdFSPe0rMH6gIKDoqxz0l5g9VBBQddeOeEvPHVATQ0ex7yg7FuOfE/FEVAXQcxrYZenHPiXmoeDxuoaN931aLe0rMVyqeuCYcHZXinhPzUPEptg+g6KgT95yYL0+qCDg6asQ9J+aL36dVBBwd5XFPivnbcyoCjo7iuOfEfPl56WOSdBTGPSfmL6kI7ig6yuKeE/OXVQQvFB0lcU+K+csqAuQw4dKlxz0p5tuoCEg6Jsc9J+bbqQhIOibGPSnm26kI4Mk0ti1JintSzLdVEUDHx9i2JCHuSTHfXkUQdFwSdOwe96yYh4p/YvsyOI72v51O57gnxXzX/sLSsWPck2K+++GTdOwW96yY7y4XS8cucc+K+ZS+wtKxfdyzYj7t0Fk6to57VsyniUXTsWXcs2I+tZ/gSY2hY7u4Z8V8egqF7wEUHdvEPS3m06Xq9mgr4HLc02JeEtk0HS/GPSvmZQ8ENB0vxD0t5mX3t/aDPlLOxj0t5qVPT53GMUSciXtazFfTrKL06TBKJuN03PNiHrOGsnFRno4n454W8xpz0jwdT8Q9LeZ1VjzQdDwe97yY15nA5+l4LO55Ma+1PISn42Hc82Jeb/ERT8eDuOfFvN5amvNL6FTZi3tezGuu1Dq7QFOXRtzzYl53HWA4CJKO9bgnxrzysjaejt9xT4x57UWTRB13cc+Lef0luUQdY9wTYx6bhZUzkqfjJu6JMV9tRVdUEZzcSWQA4p4X81V3VlURQMcj+9QsQNzzYt5o337Q8XAXpA2Ie1bMW1WFYOo4XrFuxJWKJruqiToWQ5KJliU0iDrSMCzQwtSRhJmKgKkjBeNqNuFrXK90NK6VtCuR1g9MVQS1ql/+IRSW6pOOE1sVQY90/GGtIuiNjkN7FQF0JI0VmEJQEUDH37HtGIqKADq23DmQL1DxLbaNCTqyhu7MCCrOScfQAx2hImtAzb+ORBWBdx2JKgLnOlJVBK51JKsIPOtIVhEMl251xPw4VUUQ3tSnjrjQZBXBH6c6hs/NVhE41fEqKgKXOl5JRRC69Zc3Ha+kIsCVeoltJ1xNRYA3v4ttF1z5AnvT8cqf15mOV7fBlY4ZXFxPOmbwWR3pmIUJph9irLiGEGN0GVzYqV0XHy3bVMdpySyP2MBgm8ZVK9/317YPsAJ6pjR1+pTLTQlDuQofZLpe7H0DDdEc+FJZYpCJimCi0c1fwplZNXYDYFMQWGp8a8lERaChI7pooDYiBHsi8r1B2agI5DpiC1DFdNsFdq8E2lXbO0NGKgLpZMEo9M/I52ZFfe0VhVG1jFQEwqkoFF/YsUA/bbwi3t+Eab5sVASyic6HzWmJrB6rh7kdYosynESW6XgfvkrVeMVtcou8uHmGc6JCHW+qPXnHkB9oljPuwnUHg9AFjrEQ76XKdD2H9O64fSptoJDQH3nOh4oXajzVnrS2yCtFYh9TltN7Qh0PAj8gH4/ALrlMJ4/fpXN4o/rTVuBvfF1ApioC7LGRzRAP6s9b6/U/8WBEtioC7OCSDR/c/Lc5UZGlcOV7xioCqY6DeTxPO2SDERmrCIQ6okrQPm+Cw81aRSDT8eij10fy6E3mKgLJdt3agGCdeWoHyVxFINiBen/kMbVi+RB/oxvZqwiS9zdXlVwiy1/NU5ey4dRJGYdEHatZsi3j4rZ5j5x0l8pJkZBEHesPqHh6GIbD/ab77RblS13s6k3SsT4guClzVk7ij4FZ586F4rhO9own6BjnzSp2W5d/xhcSZoIw1u+lIkGCjrszE87N99z/wyb9E6RyoyJI0HE3eNO4928Cv/tzhCMVAeqQdhRoFO+MzXODMenux+1JRYAqt13vjpvBm/1zU74l1Ld0pSJA4daUu6PKvwB2piJI0DHcH1XqeXhTEaToqIQ7FUGSjho4VBEoV+lui0cVgXIN+La4VBGolzVvA/4FHqtCrTJX0BHlolmVz7W5go7h0Y1VV18fuo6OVQRkHT2rCMg6ulYRUHV0riIIF5ylo3cVAY6BpKN7FQEMoejYAxUBScc+qAhIOvZCRQBLKPRARRAuPIM+qAjK5opTI2b2KhbF/widqCUVw+WYAAAAAElFTkSuQmCC;" parent="1" vertex="1">
          <mxGeometry x="1020.0000000000001" y="1663.21" width="80" height="40.26" as="geometry" />
        </mxCell>
        <mxCell id="rp3IQ6fHCBkWrm4gDAKN-228" style="edgeStyle=orthogonalEdgeStyle;rounded=0;orthogonalLoop=1;jettySize=auto;html=1;exitX=0.5;exitY=1;exitDx=0;exitDy=0;" parent="1" source="rp3IQ6fHCBkWrm4gDAKN-214" edge="1">
          <mxGeometry relative="1" as="geometry">
            <mxPoint x="1101.83" y="1787" as="targetPoint" />
            <Array as="points">
              <mxPoint x="974.83" y="1745" />
              <mxPoint x="1101.83" y="1745" />
              <mxPoint x="1101.83" y="1787" />
            </Array>
          </mxGeometry>
        </mxCell>
        <mxCell id="rp3IQ6fHCBkWrm4gDAKN-214" value="" style="shape=image;verticalLabelPosition=bottom;labelBackgroundColor=default;verticalAlign=top;aspect=fixed;imageAspect=0;image=data:image/png,iVBORw0KGgoAAAANSUhEUgAAAS4AAACYCAMAAABtevStAAAAAXNSR0IArs4c6QAAAARnQU1BAACxjwv8YQUAAABvUExURQAAAAAAAAAAAAAAAAAAAAAAAAAAAAAAAAAAAAAAAAAAAAAAAAAAAAAAAAAAAAAAAAAAAAAAAAAAAAAAAAAAAAAAAAAAAAAAAAAAAAAAAAAAAAAAAAAAAAAAAAAAAAAAAAAAAAAAAAAAAAAAAAAAAG3qvUYAAAAkdFJOUwAIEBggKDA4QEhQWGBocHJ4gIePl5+nr7e8v8fP19rf5+/3+FIp+ZIAAAAJcEhZcwAAFxEAABcRAcom8z8AAAcVSURBVHhe3Z3ZdtpKEEUlwAOOnTgeIMF2GC7//423j2iwxCh1VR26tJ/aLC+DpN5Hoody8Thf2/N5XxhzO4tvZcn8ufiKTVtWt/GwjBgyLnqgeI0NY+aDeGAmlIy+FZgVg8V6/R7f1YrREu9kCK65te9PwZGbohiHtxrHl6zAe7zGtgGP4c//jG0rRqv1+hmN9/V6YapK4Dkc0I/YVucuHMkkts0Iun9UDYaOxdQu7hHzn2X8wYqoImDoWIY7sE3cI+aXo/iDFTdbFQFDR7O4Z8R88bFVEVB0NIp7RswjercqgnuCjjZxT4n5horgjaCjRdxTYr6pIijD25rrqB/3lJjfVxFQdFSPe0rMH6gIKDoqxz0l5g9VBBQddeOeEvPHVATQ0ex7yg7FuOfE/FEVAXQcxrYZenHPiXmoeDxuoaN931aLe0rMVyqeuCYcHZXinhPzUPEptg+g6KgT95yYL0+qCDg6asQ9J+aL36dVBBwd5XFPivnbcyoCjo7iuOfEfPl56WOSdBTGPSfmL6kI7ig6yuKeE/OXVQQvFB0lcU+K+csqAuQw4dKlxz0p5tuoCEg6Jsc9J+bbqQhIOibGPSnm26kI4Mk0ti1JintSzLdVEUDHx9i2JCHuSTHfXkUQdFwSdOwe96yYh4p/YvsyOI72v51O57gnxXzX/sLSsWPck2K+++GTdOwW96yY7y4XS8cucc+K+ZS+wtKxfdyzYj7t0Fk6to57VsyniUXTsWXcs2I+tZ/gSY2hY7u4Z8V8egqF7wEUHdvEPS3m06Xq9mgr4HLc02JeEtk0HS/GPSvmZQ8ENB0vxD0t5mX3t/aDPlLOxj0t5qVPT53GMUSciXtazFfTrKL06TBKJuN03PNiHrOGsnFRno4n454W8xpz0jwdT8Q9LeZ1VjzQdDwe97yY15nA5+l4LO55Ma+1PISn42Hc82Jeb/ERT8eDuOfFvN5amvNL6FTZi3tezGuu1Dq7QFOXRtzzYl53HWA4CJKO9bgnxrzysjaejt9xT4x57UWTRB13cc+Lef0luUQdY9wTYx6bhZUzkqfjJu6JMV9tRVdUEZzcSWQA4p4X81V3VlURQMcj+9QsQNzzYt5o337Q8XAXpA2Ie1bMW1WFYOo4XrFuxJWKJruqiToWQ5KJliU0iDrSMCzQwtSRhJmKgKkjBeNqNuFrXK90NK6VtCuR1g9MVQS1ql/+IRSW6pOOE1sVQY90/GGtIuiNjkN7FQF0JI0VmEJQEUDH37HtGIqKADq23DmQL1DxLbaNCTqyhu7MCCrOScfQAx2hImtAzb+ORBWBdx2JKgLnOlJVBK51JKsIPOtIVhEMl251xPw4VUUQ3tSnjrjQZBXBH6c6hs/NVhE41fEqKgKXOl5JRRC69Zc3Ha+kIsCVeoltJ1xNRYA3v4ttF1z5AnvT8cqf15mOV7fBlY4ZXFxPOmbwWR3pmIUJph9irLiGEGN0GVzYqV0XHy3bVMdpySyP2MBgm8ZVK9/317YPsAJ6pjR1+pTLTQlDuQofZLpe7H0DDdEc+FJZYpCJimCi0c1fwplZNXYDYFMQWGp8a8lERaChI7pooDYiBHsi8r1B2agI5DpiC1DFdNsFdq8E2lXbO0NGKgLpZMEo9M/I52ZFfe0VhVG1jFQEwqkoFF/YsUA/bbwi3t+Eab5sVASyic6HzWmJrB6rh7kdYosynESW6XgfvkrVeMVtcou8uHmGc6JCHW+qPXnHkB9oljPuwnUHg9AFjrEQ76XKdD2H9O64fSptoJDQH3nOh4oXajzVnrS2yCtFYh9TltN7Qh0PAj8gH4/ALrlMJ4/fpXN4o/rTVuBvfF1ApioC7LGRzRAP6s9b6/U/8WBEtioC7OCSDR/c/Lc5UZGlcOV7xioCqY6DeTxPO2SDERmrCIQ6okrQPm+Cw81aRSDT8eij10fy6E3mKgLJdt3agGCdeWoHyVxFINiBen/kMbVi+RB/oxvZqwiS9zdXlVwiy1/NU5ey4dRJGYdEHatZsi3j4rZ5j5x0l8pJkZBEHesPqHh6GIbD/ab77RblS13s6k3SsT4guClzVk7ij4FZ586F4rhO9own6BjnzSp2W5d/xhcSZoIw1u+lIkGCjrszE87N99z/wyb9E6RyoyJI0HE3eNO4928Cv/tzhCMVAeqQdhRoFO+MzXODMenux+1JRYAqt13vjpvBm/1zU74l1Ld0pSJA4daUu6PKvwB2piJI0DHcH1XqeXhTEaToqIQ7FUGSjho4VBEoV+lui0cVgXIN+La4VBGolzVvA/4FHqtCrTJX0BHlolmVz7W5go7h0Y1VV18fuo6OVQRkHT2rCMg6ulYRUHV0riIIF5ylo3cVAY6BpKN7FQEMoejYAxUBScc+qAhIOvZCRQBLKPRARRAuPIM+qAjK5opTI2b2KhbF/widqCUVw+WYAAAAAElFTkSuQmCC;" parent="1" vertex="1">
          <mxGeometry x="935" y="1663.21" width="80" height="40.26" as="geometry" />
        </mxCell>
        <mxCell id="rp3IQ6fHCBkWrm4gDAKN-225" style="edgeStyle=orthogonalEdgeStyle;rounded=0;orthogonalLoop=1;jettySize=auto;html=1;entryX=0.175;entryY=0.013;entryDx=0;entryDy=0;entryPerimeter=0;exitX=0.5;exitY=1;exitDx=0;exitDy=0;" parent="1" source="rp3IQ6fHCBkWrm4gDAKN-215" target="rp3IQ6fHCBkWrm4gDAKN-212" edge="1">
          <mxGeometry relative="1" as="geometry">
            <mxPoint x="1135.0048275862068" y="1818.27" as="sourcePoint" />
          </mxGeometry>
        </mxCell>
        <mxCell id="rp3IQ6fHCBkWrm4gDAKN-215" value="" style="shape=image;verticalLabelPosition=bottom;labelBackgroundColor=default;verticalAlign=top;aspect=fixed;imageAspect=0;image=data:image/png,iVBORw0KGgoAAAANSUhEUgAAAS0AAABNCAMAAADEvsIyAAAAAXNSR0IArs4c6QAAAARnQU1BAACxjwv8YQUAAABgUExURQAAAAAAAAAAAAAAAAAAAAAAAAAAAAAAAAAAAAAAAAAAAAAAAAAAAAAAAAAAAAAAAAAAAAAAAAAAAAAAAAAAAAAAAAAAAAAAAAAAAAAAAAAAAAAAAAAAAAAAAAAAAAAAAPpP6I0AAAAfdFJOUwAIEBggKDA4QEhQWGhweICHj5efp6+3v8fP19/n7/dK1oigAAAACXBIWXMAABcRAAAXEQHKJvM/AAACiElEQVR4Xu2a15KDMAxFTXpvm974/79ciSi7CQFihIGxrPMSweTJg3VdjplcYsWOy8KcqFQsMBsqlO8cTXSM41vfKMV0oGFde8Z04ffSoZdKNtEhju9DrAb3OD5EyUslB+xX00c5gfLnUSqZzGGEllSbBTwsqFY+GcP4bKkGtvA4oVpJ079BHL60KgzG+4AelHcwDi9dekhIgvHtjUIkcZj6ktJfm/Iks0ulOplC5CQgpqQGYxpcXWV+RC8rMIXIX7n/r+4VomhX+Nw5KkTxiQMG40mD8Q+MwzHVGYxhmu6oVpYwWHOqM5nBH1ZUh84UxmJDdQ5rDUZiaHOQtddgTOhdbQ5JO2fIAQ3G6GQ3DD0IxnPwJ887mGIjqgsZwYTdUx0qK2jfM6q/gMG4pjpMMA6tR6DEyIqk5OyynrUiKdu5bRNBJOVXBbjaCDUYccVZcmJZrWRFwtrNWOySRMLcKWMwFu7ARYJxyDqFgWAsOt0RCcYh74QvQFepyulxcK5StZuJ0FylirdeYblKb94Rh5BcJQe39eG4Si5MkGBcpU/viEMgrlKWd8QhDFfJWccJwVVymGbyXaVc74iDdFfJ7SpcuKvkeocn2lVyf3og2VX64h1xkOsqffWOOEh1lWo6UZfpKtV2WyPRVbLzjjgIdJXqvGWW5yrVajBIc5VqtmNkuUqlvCMOklylBmaKHFepiS4sxlVqJuGluEoM74iDDFepsZ2JBFepwV2v/64S2zvi4LurxPeOOHjuKjV9Euy1q9T8LYPPrlILN1j+ukqVvSMOvrpKLd28++kqtWV1eOkqufGOOHjoKrnyjjj45yq12j2wY/pGi8mEaewXrYpouMH2iW2VxmHML2sc8VCQZo1LAAAAAElFTkSuQmCC;strokeWidth=0;perimeterSpacing=0;" parent="1" vertex="1">
          <mxGeometry x="1080" y="1787.1999999999998" width="81.34" height="20.8" as="geometry" />
        </mxCell>
        <mxCell id="rp3IQ6fHCBkWrm4gDAKN-218" style="edgeStyle=orthogonalEdgeStyle;rounded=0;orthogonalLoop=1;jettySize=auto;html=1;exitX=0.5;exitY=1;exitDx=0;exitDy=0;entryX=0.177;entryY=0.019;entryDx=0;entryDy=0;entryPerimeter=0;" parent="1" source="rp3IQ6fHCBkWrm4gDAKN-217" target="rp3IQ6fHCBkWrm4gDAKN-214" edge="1">
          <mxGeometry relative="1" as="geometry" />
        </mxCell>
        <mxCell id="rp3IQ6fHCBkWrm4gDAKN-219" style="edgeStyle=orthogonalEdgeStyle;rounded=0;orthogonalLoop=1;jettySize=auto;html=1;exitX=0.5;exitY=1;exitDx=0;exitDy=0;entryX=0.177;entryY=0.019;entryDx=0;entryDy=0;entryPerimeter=0;" parent="1" source="rp3IQ6fHCBkWrm4gDAKN-217" target="rp3IQ6fHCBkWrm4gDAKN-213" edge="1">
          <mxGeometry relative="1" as="geometry" />
        </mxCell>
        <mxCell id="rp3IQ6fHCBkWrm4gDAKN-217" value="&lt;font style=&quot;font-size: 20px;&quot;&gt;ROM&lt;/font&gt;" style="rounded=0;whiteSpace=wrap;html=1;" parent="1" vertex="1">
          <mxGeometry x="920" y="1524" width="57" height="80" as="geometry" />
        </mxCell>
        <mxCell id="rp3IQ6fHCBkWrm4gDAKN-227" style="edgeStyle=orthogonalEdgeStyle;rounded=0;orthogonalLoop=1;jettySize=auto;html=1;exitX=0.5;exitY=1;exitDx=0;exitDy=0;entryX=0.828;entryY=0.001;entryDx=0;entryDy=0;entryPerimeter=0;" parent="1" source="rp3IQ6fHCBkWrm4gDAKN-226" target="rp3IQ6fHCBkWrm4gDAKN-212" edge="1">
          <mxGeometry relative="1" as="geometry" />
        </mxCell>
        <mxCell id="rp3IQ6fHCBkWrm4gDAKN-226" value="" style="shape=image;verticalLabelPosition=bottom;labelBackgroundColor=default;verticalAlign=top;aspect=fixed;imageAspect=0;image=data:image/png,iVBORw0KGgoAAAANSUhEUgAAAS0AAABNCAMAAADEvsIyAAAAAXNSR0IArs4c6QAAAARnQU1BAACxjwv8YQUAAABgUExURQAAAAAAAAAAAAAAAAAAAAAAAAAAAAAAAAAAAAAAAAAAAAAAAAAAAAAAAAAAAAAAAAAAAAAAAAAAAAAAAAAAAAAAAAAAAAAAAAAAAAAAAAAAAAAAAAAAAAAAAAAAAAAAAPpP6I0AAAAfdFJOUwAIEBggKDA4QEhQWGhweICHj5efp6+3v8fP19/n7/dK1oigAAAACXBIWXMAABcRAAAXEQHKJvM/AAACiElEQVR4Xu2a15KDMAxFTXpvm974/79ciSi7CQFihIGxrPMSweTJg3VdjplcYsWOy8KcqFQsMBsqlO8cTXSM41vfKMV0oGFde8Z04ffSoZdKNtEhju9DrAb3OD5EyUslB+xX00c5gfLnUSqZzGGEllSbBTwsqFY+GcP4bKkGtvA4oVpJ079BHL60KgzG+4AelHcwDi9dekhIgvHtjUIkcZj6ktJfm/Iks0ulOplC5CQgpqQGYxpcXWV+RC8rMIXIX7n/r+4VomhX+Nw5KkTxiQMG40mD8Q+MwzHVGYxhmu6oVpYwWHOqM5nBH1ZUh84UxmJDdQ5rDUZiaHOQtddgTOhdbQ5JO2fIAQ3G6GQ3DD0IxnPwJ887mGIjqgsZwYTdUx0qK2jfM6q/gMG4pjpMMA6tR6DEyIqk5OyynrUiKdu5bRNBJOVXBbjaCDUYccVZcmJZrWRFwtrNWOySRMLcKWMwFu7ARYJxyDqFgWAsOt0RCcYh74QvQFepyulxcK5StZuJ0FylirdeYblKb94Rh5BcJQe39eG4Si5MkGBcpU/viEMgrlKWd8QhDFfJWccJwVVymGbyXaVc74iDdFfJ7SpcuKvkeocn2lVyf3og2VX64h1xkOsqffWOOEh1lWo6UZfpKtV2WyPRVbLzjjgIdJXqvGWW5yrVajBIc5VqtmNkuUqlvCMOklylBmaKHFepiS4sxlVqJuGluEoM74iDDFepsZ2JBFepwV2v/64S2zvi4LurxPeOOHjuKjV9Euy1q9T8LYPPrlILN1j+ukqVvSMOvrpKLd28++kqtWV1eOkqufGOOHjoKrnyjjj45yq12j2wY/pGi8mEaewXrYpouMH2iW2VxmHML2sc8VCQZo1LAAAAAElFTkSuQmCC;strokeWidth=0;perimeterSpacing=0;" parent="1" vertex="1">
          <mxGeometry x="1213.66" y="1787.1999999999998" width="81.34" height="20.8" as="geometry" />
        </mxCell>
        <mxCell id="rp3IQ6fHCBkWrm4gDAKN-245" style="edgeStyle=orthogonalEdgeStyle;rounded=0;orthogonalLoop=1;jettySize=auto;html=1;exitX=0.5;exitY=1;exitDx=0;exitDy=0;entryX=0.5;entryY=0;entryDx=0;entryDy=0;" parent="1" source="rp3IQ6fHCBkWrm4gDAKN-260" target="rp3IQ6fHCBkWrm4gDAKN-244" edge="1">
          <mxGeometry relative="1" as="geometry">
            <mxPoint x="987.3200000000003" y="1311.2000000000003" as="sourcePoint" />
            <mxPoint x="1142.83" y="1430" as="targetPoint" />
          </mxGeometry>
        </mxCell>
        <mxCell id="rp3IQ6fHCBkWrm4gDAKN-249" style="edgeStyle=orthogonalEdgeStyle;rounded=0;orthogonalLoop=1;jettySize=auto;html=1;exitX=0.5;exitY=1;exitDx=0;exitDy=0;entryX=0.828;entryY=0.008;entryDx=0;entryDy=0;entryPerimeter=0;" parent="1" source="rp3IQ6fHCBkWrm4gDAKN-240" target="rp3IQ6fHCBkWrm4gDAKN-214" edge="1">
          <mxGeometry relative="1" as="geometry" />
        </mxCell>
        <mxCell id="rp3IQ6fHCBkWrm4gDAKN-240" value="" style="shape=image;verticalLabelPosition=bottom;labelBackgroundColor=default;verticalAlign=top;aspect=fixed;imageAspect=0;image=data:image/png,iVBORw0KGgoAAAANSUhEUgAAAS0AAABNCAMAAADEvsIyAAAAAXNSR0IArs4c6QAAAARnQU1BAACxjwv8YQUAAABgUExURQAAAAAAAAAAAAAAAAAAAAAAAAAAAAAAAAAAAAAAAAAAAAAAAAAAAAAAAAAAAAAAAAAAAAAAAAAAAAAAAAAAAAAAAAAAAAAAAAAAAAAAAAAAAAAAAAAAAAAAAAAAAAAAAPpP6I0AAAAfdFJOUwAIEBggKDA4QEhQWGhweICHj5efp6+3v8fP19/n7/dK1oigAAAACXBIWXMAABcRAAAXEQHKJvM/AAACiElEQVR4Xu2a15KDMAxFTXpvm974/79ciSi7CQFihIGxrPMSweTJg3VdjplcYsWOy8KcqFQsMBsqlO8cTXSM41vfKMV0oGFde8Z04ffSoZdKNtEhju9DrAb3OD5EyUslB+xX00c5gfLnUSqZzGGEllSbBTwsqFY+GcP4bKkGtvA4oVpJ079BHL60KgzG+4AelHcwDi9dekhIgvHtjUIkcZj6ktJfm/Iks0ulOplC5CQgpqQGYxpcXWV+RC8rMIXIX7n/r+4VomhX+Nw5KkTxiQMG40mD8Q+MwzHVGYxhmu6oVpYwWHOqM5nBH1ZUh84UxmJDdQ5rDUZiaHOQtddgTOhdbQ5JO2fIAQ3G6GQ3DD0IxnPwJ887mGIjqgsZwYTdUx0qK2jfM6q/gMG4pjpMMA6tR6DEyIqk5OyynrUiKdu5bRNBJOVXBbjaCDUYccVZcmJZrWRFwtrNWOySRMLcKWMwFu7ARYJxyDqFgWAsOt0RCcYh74QvQFepyulxcK5StZuJ0FylirdeYblKb94Rh5BcJQe39eG4Si5MkGBcpU/viEMgrlKWd8QhDFfJWccJwVVymGbyXaVc74iDdFfJ7SpcuKvkeocn2lVyf3og2VX64h1xkOsqffWOOEh1lWo6UZfpKtV2WyPRVbLzjjgIdJXqvGWW5yrVajBIc5VqtmNkuUqlvCMOklylBmaKHFepiS4sxlVqJuGluEoM74iDDFepsZ2JBFepwV2v/64S2zvi4LurxPeOOHjuKjV9Euy1q9T8LYPPrlILN1j+ukqVvSMOvrpKLd28++kqtWV1eOkqufGOOHjoKrnyjjj45yq12j2wY/pGi8mEaewXrYpouMH2iW2VxmHML2sc8VCQZo1LAAAAAElFTkSuQmCC;strokeWidth=0;perimeterSpacing=0;" parent="1" vertex="1">
          <mxGeometry x="1006.8300000000003" y="1520" width="81.34" height="20.8" as="geometry" />
        </mxCell>
        <mxCell id="rp3IQ6fHCBkWrm4gDAKN-250" style="edgeStyle=orthogonalEdgeStyle;rounded=0;orthogonalLoop=1;jettySize=auto;html=1;exitX=0.5;exitY=1;exitDx=0;exitDy=0;entryX=0.809;entryY=0.029;entryDx=0;entryDy=0;entryPerimeter=0;" parent="1" source="rp3IQ6fHCBkWrm4gDAKN-244" target="rp3IQ6fHCBkWrm4gDAKN-213" edge="1">
          <mxGeometry relative="1" as="geometry">
            <mxPoint x="1131.83" y="1640" as="targetPoint" />
          </mxGeometry>
        </mxCell>
        <mxCell id="rp3IQ6fHCBkWrm4gDAKN-244" value="" style="shape=image;verticalLabelPosition=bottom;labelBackgroundColor=default;verticalAlign=top;aspect=fixed;imageAspect=0;image=data:image/png,iVBORw0KGgoAAAANSUhEUgAAAS0AAABNCAMAAADEvsIyAAAAAXNSR0IArs4c6QAAAARnQU1BAACxjwv8YQUAAABgUExURQAAAAAAAAAAAAAAAAAAAAAAAAAAAAAAAAAAAAAAAAAAAAAAAAAAAAAAAAAAAAAAAAAAAAAAAAAAAAAAAAAAAAAAAAAAAAAAAAAAAAAAAAAAAAAAAAAAAAAAAAAAAAAAAPpP6I0AAAAfdFJOUwAIEBggKDA4QEhQWGhweICHj5efp6+3v8fP19/n7/dK1oigAAAACXBIWXMAABcRAAAXEQHKJvM/AAACiElEQVR4Xu2a15KDMAxFTXpvm974/79ciSi7CQFihIGxrPMSweTJg3VdjplcYsWOy8KcqFQsMBsqlO8cTXSM41vfKMV0oGFde8Z04ffSoZdKNtEhju9DrAb3OD5EyUslB+xX00c5gfLnUSqZzGGEllSbBTwsqFY+GcP4bKkGtvA4oVpJ079BHL60KgzG+4AelHcwDi9dekhIgvHtjUIkcZj6ktJfm/Iks0ulOplC5CQgpqQGYxpcXWV+RC8rMIXIX7n/r+4VomhX+Nw5KkTxiQMG40mD8Q+MwzHVGYxhmu6oVpYwWHOqM5nBH1ZUh84UxmJDdQ5rDUZiaHOQtddgTOhdbQ5JO2fIAQ3G6GQ3DD0IxnPwJ887mGIjqgsZwYTdUx0qK2jfM6q/gMG4pjpMMA6tR6DEyIqk5OyynrUiKdu5bRNBJOVXBbjaCDUYccVZcmJZrWRFwtrNWOySRMLcKWMwFu7ARYJxyDqFgWAsOt0RCcYh74QvQFepyulxcK5StZuJ0FylirdeYblKb94Rh5BcJQe39eG4Si5MkGBcpU/viEMgrlKWd8QhDFfJWccJwVVymGbyXaVc74iDdFfJ7SpcuKvkeocn2lVyf3og2VX64h1xkOsqffWOOEh1lWo6UZfpKtV2WyPRVbLzjjgIdJXqvGWW5yrVajBIc5VqtmNkuUqlvCMOklylBmaKHFepiS4sxlVqJuGluEoM74iDDFepsZ2JBFepwV2v/64S2zvi4LurxPeOOHjuKjV9Euy1q9T8LYPPrlILN1j+ukqVvSMOvrpKLd28++kqtWV1eOkqufGOOHjoKrnyjjj45yq12j2wY/pGi8mEaewXrYpouMH2iW2VxmHML2sc8VCQZo1LAAAAAElFTkSuQmCC;strokeWidth=0;perimeterSpacing=0;" parent="1" vertex="1">
          <mxGeometry x="1104.1700000000003" y="1520" width="81.34" height="20.8" as="geometry" />
        </mxCell>
        <mxCell id="rp3IQ6fHCBkWrm4gDAKN-274" style="edgeStyle=orthogonalEdgeStyle;rounded=0;orthogonalLoop=1;jettySize=auto;html=1;exitX=0.5;exitY=1;exitDx=0;exitDy=0;entryX=0.75;entryY=0;entryDx=0;entryDy=0;" parent="1" source="rp3IQ6fHCBkWrm4gDAKN-253" target="rp3IQ6fHCBkWrm4gDAKN-215" edge="1">
          <mxGeometry relative="1" as="geometry" />
        </mxCell>
        <mxCell id="rp3IQ6fHCBkWrm4gDAKN-276" style="edgeStyle=orthogonalEdgeStyle;rounded=0;orthogonalLoop=1;jettySize=auto;html=1;exitX=0.5;exitY=0;exitDx=0;exitDy=0;entryX=0.5;entryY=1;entryDx=0;entryDy=0;" parent="1" source="rp3IQ6fHCBkWrm4gDAKN-253" target="rp3IQ6fHCBkWrm4gDAKN-275" edge="1">
          <mxGeometry relative="1" as="geometry" />
        </mxCell>
        <mxCell id="rp3IQ6fHCBkWrm4gDAKN-253" value="p3" style="shape=image;verticalLabelPosition=bottom;labelBackgroundColor=default;verticalAlign=top;imageAspect=0;image=data:image/png,iVBORw0KGgoAAAANSUhEUgAAAG0AAABBCAMAAADsSNopAAAAAXNSR0IArs4c6QAAAARnQU1BAACxjwv8YQUAAAAGUExURQAAAAAAAKVnuc8AAAABdFJOUwBA5thmAAAACXBIWXMAABcRAAAXEQHKJvM/AAAAUklEQVRYR+3Q0QkAMAjEUN1/6f50hPQEmyzwINXJtmuVSY1KjUqNSo1KjUqNSo1KjUqNSo1KjUqNSo1KjUqNakTLtV27X1+nRqVG9YGWa6/WfQAckQUmpjRBdgAAAABJRU5ErkJggg==;spacingLeft=70;spacingBottom=0;spacingRight=0;spacingTop=-26;" parent="1" vertex="1">
          <mxGeometry x="1161.34" y="1610" width="46.18" height="20" as="geometry" />
        </mxCell>
        <mxCell id="rp3IQ6fHCBkWrm4gDAKN-258" style="edgeStyle=orthogonalEdgeStyle;rounded=0;orthogonalLoop=1;jettySize=auto;html=1;exitX=0.5;exitY=1;exitDx=0;exitDy=0;entryX=0.864;entryY=0.008;entryDx=0;entryDy=0;entryPerimeter=0;" parent="1" source="rp3IQ6fHCBkWrm4gDAKN-255" target="rp3IQ6fHCBkWrm4gDAKN-226" edge="1">
          <mxGeometry relative="1" as="geometry">
            <Array as="points">
              <mxPoint x="1317.83" y="1745" />
              <mxPoint x="1283.83" y="1745" />
            </Array>
          </mxGeometry>
        </mxCell>
        <mxCell id="rp3IQ6fHCBkWrm4gDAKN-255" value="Xn" style="shape=image;verticalLabelPosition=bottom;labelBackgroundColor=default;verticalAlign=top;imageAspect=0;image=data:image/png,iVBORw0KGgoAAAANSUhEUgAAAG0AAABBCAMAAADsSNopAAAAAXNSR0IArs4c6QAAAARnQU1BAACxjwv8YQUAAAAGUExURQAAAAAAAKVnuc8AAAABdFJOUwBA5thmAAAACXBIWXMAABcRAAAXEQHKJvM/AAAAUklEQVRYR+3Q0QkAMAjEUN1/6f50hPQEmyzwINXJtmuVSY1KjUqNSo1KjUqNSo1KjUqNSo1KjUqNSo1KjUqNakTLtV27X1+nRqVG9YGWa6/WfQAckQUmpjRBdgAAAABJRU5ErkJggg==;spacingLeft=70;spacingBottom=0;spacingRight=0;spacingTop=-26;" parent="1" vertex="1">
          <mxGeometry x="1295.0000000000002" y="1673.34" width="46.18" height="20" as="geometry" />
        </mxCell>
        <mxCell id="rp3IQ6fHCBkWrm4gDAKN-267" style="edgeStyle=orthogonalEdgeStyle;rounded=0;orthogonalLoop=1;jettySize=auto;html=1;exitX=0.5;exitY=1;exitDx=0;exitDy=0;entryX=0.25;entryY=0;entryDx=0;entryDy=0;" parent="1" source="rp3IQ6fHCBkWrm4gDAKN-259" target="rp3IQ6fHCBkWrm4gDAKN-244" edge="1">
          <mxGeometry relative="1" as="geometry" />
        </mxCell>
        <mxCell id="rp3IQ6fHCBkWrm4gDAKN-268" style="edgeStyle=orthogonalEdgeStyle;rounded=0;orthogonalLoop=1;jettySize=auto;html=1;entryX=0.316;entryY=0.062;entryDx=0;entryDy=0;entryPerimeter=0;" parent="1" source="rp3IQ6fHCBkWrm4gDAKN-259" target="rp3IQ6fHCBkWrm4gDAKN-240" edge="1">
          <mxGeometry relative="1" as="geometry" />
        </mxCell>
        <mxCell id="rp3IQ6fHCBkWrm4gDAKN-259" value="d2" style="shape=image;verticalLabelPosition=bottom;labelBackgroundColor=default;verticalAlign=top;imageAspect=0;image=data:image/png,iVBORw0KGgoAAAANSUhEUgAAAG0AAABBCAMAAADsSNopAAAAAXNSR0IArs4c6QAAAARnQU1BAACxjwv8YQUAAAAGUExURQAAAAAAAKVnuc8AAAABdFJOUwBA5thmAAAACXBIWXMAABcRAAAXEQHKJvM/AAAAUklEQVRYR+3Q0QkAMAjEUN1/6f50hPQEmyzwINXJtmuVSY1KjUqNSo1KjUqNSo1KjUqNSo1KjUqNSo1KjUqNakTLtV27X1+nRqVG9YGWa6/WfQAckQUmpjRBdgAAAABJRU5ErkJggg==;spacingLeft=70;spacingBottom=0;spacingRight=0;spacingTop=-26;" parent="1" vertex="1">
          <mxGeometry x="993.4699999999999" y="1410" width="46.18" height="20" as="geometry" />
        </mxCell>
        <mxCell id="rp3IQ6fHCBkWrm4gDAKN-264" style="edgeStyle=orthogonalEdgeStyle;rounded=0;orthogonalLoop=1;jettySize=auto;html=1;exitX=0.5;exitY=1;exitDx=0;exitDy=0;entryX=0.691;entryY=0.018;entryDx=0;entryDy=0;entryPerimeter=0;" parent="1" source="rp3IQ6fHCBkWrm4gDAKN-260" target="rp3IQ6fHCBkWrm4gDAKN-240" edge="1">
          <mxGeometry relative="1" as="geometry" />
        </mxCell>
        <mxCell id="rp3IQ6fHCBkWrm4gDAKN-266" style="edgeStyle=orthogonalEdgeStyle;rounded=0;orthogonalLoop=1;jettySize=auto;html=1;exitX=0.5;exitY=1;exitDx=0;exitDy=0;entryX=0.5;entryY=0;entryDx=0;entryDy=0;" parent="1" source="rp3IQ6fHCBkWrm4gDAKN-260" target="rp3IQ6fHCBkWrm4gDAKN-259" edge="1">
          <mxGeometry relative="1" as="geometry" />
        </mxCell>
        <mxCell id="rp3IQ6fHCBkWrm4gDAKN-260" value="d1" style="shape=image;verticalLabelPosition=bottom;labelBackgroundColor=default;verticalAlign=top;imageAspect=0;image=data:image/png,iVBORw0KGgoAAAANSUhEUgAAAG0AAABBCAMAAADsSNopAAAAAXNSR0IArs4c6QAAAARnQU1BAACxjwv8YQUAAAAGUExURQAAAAAAAKVnuc8AAAABdFJOUwBA5thmAAAACXBIWXMAABcRAAAXEQHKJvM/AAAAUklEQVRYR+3Q0QkAMAjEUN1/6f50hPQEmyzwINXJtmuVSY1KjUqNSo1KjUqNSo1KjUqNSo1KjUqNSo1KjUqNakTLtV27X1+nRqVG9YGWa6/WfQAckQUmpjRBdgAAAABJRU5ErkJggg==;spacingLeft=70;spacingBottom=0;spacingRight=0;spacingTop=-26;" parent="1" vertex="1">
          <mxGeometry x="1039.6499999999999" y="1340" width="46.18" height="20" as="geometry" />
        </mxCell>
        <mxCell id="rp3IQ6fHCBkWrm4gDAKN-265" style="edgeStyle=orthogonalEdgeStyle;rounded=0;orthogonalLoop=1;jettySize=auto;html=1;exitX=0.5;exitY=1;exitDx=0;exitDy=0;entryX=0.5;entryY=0;entryDx=0;entryDy=0;" parent="1" source="rp3IQ6fHCBkWrm4gDAKN-261" target="rp3IQ6fHCBkWrm4gDAKN-260" edge="1">
          <mxGeometry relative="1" as="geometry" />
        </mxCell>
        <mxCell id="rp3IQ6fHCBkWrm4gDAKN-285" style="edgeStyle=orthogonalEdgeStyle;rounded=0;orthogonalLoop=1;jettySize=auto;html=1;entryX=0.5;entryY=0;entryDx=0;entryDy=0;" parent="1" target="rp3IQ6fHCBkWrm4gDAKN-261" edge="1">
          <mxGeometry relative="1" as="geometry">
            <mxPoint x="1231.83" y="1250" as="targetPoint" />
            <mxPoint x="1381.83" y="1590" as="sourcePoint" />
            <Array as="points">
              <mxPoint x="1381.83" y="1280" />
              <mxPoint x="1062.83" y="1280" />
            </Array>
          </mxGeometry>
        </mxCell>
        <mxCell id="rp3IQ6fHCBkWrm4gDAKN-261" value="d0" style="shape=image;verticalLabelPosition=bottom;labelBackgroundColor=default;verticalAlign=top;imageAspect=0;image=data:image/png,iVBORw0KGgoAAAANSUhEUgAAAG0AAABBCAMAAADsSNopAAAAAXNSR0IArs4c6QAAAARnQU1BAACxjwv8YQUAAAAGUExURQAAAAAAAKVnuc8AAAABdFJOUwBA5thmAAAACXBIWXMAABcRAAAXEQHKJvM/AAAAUklEQVRYR+3Q0QkAMAjEUN1/6f50hPQEmyzwINXJtmuVSY1KjUqNSo1KjUqNSo1KjUqNSo1KjUqNSo1KjUqNakTLtV27X1+nRqVG9YGWa6/WfQAckQUmpjRBdgAAAABJRU5ErkJggg==;spacingLeft=70;spacingBottom=0;spacingRight=0;spacingTop=-26;fontStyle=0" parent="1" vertex="1">
          <mxGeometry x="1039.65" y="1300" width="46.18" height="20" as="geometry" />
        </mxCell>
        <mxCell id="rp3IQ6fHCBkWrm4gDAKN-273" style="edgeStyle=orthogonalEdgeStyle;rounded=0;orthogonalLoop=1;jettySize=auto;html=1;exitX=0.5;exitY=0;exitDx=0;exitDy=0;entryX=0.5;entryY=0;entryDx=0;entryDy=0;" parent="1" source="rp3IQ6fHCBkWrm4gDAKN-269" target="rp3IQ6fHCBkWrm4gDAKN-253" edge="1">
          <mxGeometry relative="1" as="geometry">
            <mxPoint x="1371.8300000000002" y="1880" as="targetPoint" />
            <Array as="points">
              <mxPoint x="1188.83" y="1920" />
              <mxPoint x="1381.83" y="1920" />
              <mxPoint x="1381.83" y="1590" />
              <mxPoint x="1184.83" y="1590" />
            </Array>
          </mxGeometry>
        </mxCell>
        <mxCell id="rp3IQ6fHCBkWrm4gDAKN-269" value="Yn" style="shape=image;verticalLabelPosition=bottom;labelBackgroundColor=default;verticalAlign=top;imageAspect=0;image=data:image/png,iVBORw0KGgoAAAANSUhEUgAAAG0AAABBCAMAAADsSNopAAAAAXNSR0IArs4c6QAAAARnQU1BAACxjwv8YQUAAAAGUExURQAAAAAAAKVnuc8AAAABdFJOUwBA5thmAAAACXBIWXMAABcRAAAXEQHKJvM/AAAAUklEQVRYR+3Q0QkAMAjEUN1/6f50hPQEmyzwINXJtmuVSY1KjUqNSo1KjUqNSo1KjUqNSo1KjUqNSo1KjUqNakTLtV27X1+nRqVG9YGWa6/WfQAckQUmpjRBdgAAAABJRU5ErkJggg==;spacingLeft=70;spacingBottom=0;spacingRight=0;spacingTop=-26;" parent="1" vertex="1">
          <mxGeometry x="1165.83" y="1950" width="46.18" height="20" as="geometry" />
        </mxCell>
        <mxCell id="rp3IQ6fHCBkWrm4gDAKN-279" style="edgeStyle=orthogonalEdgeStyle;rounded=0;orthogonalLoop=1;jettySize=auto;html=1;exitX=0.5;exitY=0;exitDx=0;exitDy=0;entryX=0.75;entryY=0;entryDx=0;entryDy=0;" parent="1" source="rp3IQ6fHCBkWrm4gDAKN-275" target="rp3IQ6fHCBkWrm4gDAKN-244" edge="1">
          <mxGeometry relative="1" as="geometry">
            <Array as="points">
              <mxPoint x="1246.83" y="1440" />
              <mxPoint x="1164.83" y="1440" />
            </Array>
          </mxGeometry>
        </mxCell>
        <mxCell id="rp3IQ6fHCBkWrm4gDAKN-275" value="p1" style="shape=image;verticalLabelPosition=bottom;labelBackgroundColor=default;verticalAlign=top;imageAspect=0;image=data:image/png,iVBORw0KGgoAAAANSUhEUgAAAG0AAABBCAMAAADsSNopAAAAAXNSR0IArs4c6QAAAARnQU1BAACxjwv8YQUAAAAGUExURQAAAAAAAKVnuc8AAAABdFJOUwBA5thmAAAACXBIWXMAABcRAAAXEQHKJvM/AAAAUklEQVRYR+3Q0QkAMAjEUN1/6f50hPQEmyzwINXJtmuVSY1KjUqNSo1KjUqNSo1KjUqNSo1KjUqNSo1KjUqNakTLtV27X1+nRqVG9YGWa6/WfQAckQUmpjRBdgAAAABJRU5ErkJggg==;spacingLeft=70;spacingBottom=0;spacingRight=0;spacingTop=-26;" parent="1" vertex="1">
          <mxGeometry x="1224.1699999999998" y="1520.8" width="46.18" height="20" as="geometry" />
        </mxCell>
        <mxCell id="rp3IQ6fHCBkWrm4gDAKN-282" style="edgeStyle=orthogonalEdgeStyle;rounded=0;orthogonalLoop=1;jettySize=auto;html=1;entryX=0.551;entryY=0.039;entryDx=0;entryDy=0;entryPerimeter=0;" parent="1" target="rp3IQ6fHCBkWrm4gDAKN-280" edge="1">
          <mxGeometry relative="1" as="geometry">
            <mxPoint x="1259.9966666666667" y="1590" as="targetPoint" />
            <mxPoint x="1259.83" y="1590" as="sourcePoint" />
            <Array as="points">
              <mxPoint x="1261.83" y="1590" />
              <mxPoint x="1261.83" y="1611" />
            </Array>
          </mxGeometry>
        </mxCell>
        <mxCell id="rp3IQ6fHCBkWrm4gDAKN-284" style="edgeStyle=orthogonalEdgeStyle;rounded=0;orthogonalLoop=1;jettySize=auto;html=1;exitX=0.5;exitY=1;exitDx=0;exitDy=0;entryX=0.5;entryY=0;entryDx=0;entryDy=0;labelBorderColor=none;shadow=0;" parent="1" source="rp3IQ6fHCBkWrm4gDAKN-280" target="rp3IQ6fHCBkWrm4gDAKN-215" edge="1">
          <mxGeometry relative="1" as="geometry">
            <Array as="points">
              <mxPoint x="1259.83" y="1670" />
              <mxPoint x="1120.83" y="1670" />
            </Array>
          </mxGeometry>
        </mxCell>
        <mxCell id="rp3IQ6fHCBkWrm4gDAKN-280" value="p4" style="shape=image;verticalLabelPosition=bottom;labelBackgroundColor=default;verticalAlign=top;imageAspect=0;image=data:image/png,iVBORw0KGgoAAAANSUhEUgAAAG0AAABBCAMAAADsSNopAAAAAXNSR0IArs4c6QAAAARnQU1BAACxjwv8YQUAAAAGUExURQAAAAAAAKVnuc8AAAABdFJOUwBA5thmAAAACXBIWXMAABcRAAAXEQHKJvM/AAAAUklEQVRYR+3Q0QkAMAjEUN1/6f50hPQEmyzwINXJtmuVSY1KjUqNSo1KjUqNSo1KjUqNSo1KjUqNSo1KjUqNakTLtV27X1+nRqVG9YGWa6/WfQAckQUmpjRBdgAAAABJRU5ErkJggg==;spacingLeft=70;spacingBottom=0;spacingRight=0;spacingTop=-26;" parent="1" vertex="1">
          <mxGeometry x="1236.74" y="1610" width="46.18" height="20" as="geometry" />
        </mxCell>
        <mxCell id="rp3IQ6fHCBkWrm4gDAKN-286" style="edgeStyle=orthogonalEdgeStyle;rounded=0;orthogonalLoop=1;jettySize=auto;html=1;exitX=0.5;exitY=1;exitDx=0;exitDy=0;entryX=0.5;entryY=0;entryDx=0;entryDy=0;" parent="1" source="rp3IQ6fHCBkWrm4gDAKN-287" target="rp3IQ6fHCBkWrm4gDAKN-319" edge="1">
          <mxGeometry relative="1" as="geometry" />
        </mxCell>
        <mxCell id="rp3IQ6fHCBkWrm4gDAKN-287" value="" style="shape=image;verticalLabelPosition=bottom;labelBackgroundColor=default;verticalAlign=top;aspect=fixed;imageAspect=0;image=data:image/png,iVBORw0KGgoAAAANSUhEUgAAAS4AAACZCAMAAACmJicIAAAAAXNSR0IArs4c6QAAAARnQU1BAACxjwv8YQUAAABjUExURQAAAAAAAAAAAAAAAAAAAAAAAAAAAAAAAAAAAAAAAAAAAAAAAAAAAAAAAAAAAAAAAAAAAAAAAAAAAAAAAAAAAAAAAAAAAAAAAAAAAAAAAAAAAAAAAAAAAAAAAAAAAAAAAAAAAGZodN4AAAAgdFJOUwAIEBggKDA4QEhQWGBocHiAh4+Xn6evt7/Hz9ff5+/3v+H4wgAAAAlwSFlzAAAXEQAAFxEByibzPwAABq5JREFUeF7dne1W2zAMhlNaPrYx6MbHYBSW+7/K6U0Eo2ubOLb0xsrzy9k5I7XsR01sJW2ud60/vy8bZza/9FSe7G6bF2368nau3XLijNONtnnQhjMvZ9oxHx71NM48N+u3tr3Tk3qxkXM8atuFrXTlStte3Lbtn4umuSac6ouc41bbDnyVP3+jbS/O/7TtFg1JkrtV909+yNC0X7Rtzrn35AXP8oXVRYmhI5LL20bbxqwkzb8QxhsqAoaOjn1yHIkPPlQEDB3djHH1/J0PFQFFR6d87Pwt0vNJRcDQ0efb3v0aBeypCBg6eiSZLiX6XgELeyoCio64U9k/bTFyT+J9f3WgIqDoiEl9r20TbuRTf9W2GwcqAoqOxun+Sv7cQUfMOVARUHRsfsi8NpvElDR/TEVA0RGT+NUo3a9k2Hfuaf6oioCi49mubZ9tznIvw+6e5o+rCDg6mqV7Spo/pSLg6PhNzvJd2wVcSdh/aNuPkyoCio7NTxmw4rX7zWvbPmnbkZMqAo6OzZOk+7W2M+Gk+SEVAUdHg3R/N9wPIwZVBBwdL+VjFM3i7zKs37TtyKCKgKQjZvG1tjNAuH9q25ERFQFHx7J0v+ak+VEVAUfHlaT7XWa679J84VdFCvIRx9dPSDquJd0/5Q2LyYXIOMiPCd8mJB2z809h3ktlI58v6TKYo2M3ehndJqV5qJi2c0XSMe/aqUDiSWAwE40n6ZhzZY6viNI7ghSSVQQkHTMuCEhpPl1FwNJxch4yWs0YZYKKADoyBhFrVhNuZi4kvIxhnKQiEB3dqzTApBVRw5XYYSapCCbHN5NJ6Z6U5qeqCDL+SxZY5vul7RFMd5EGyJoqkydkJsmLyIwSwY6snrN0TN2iMNsSGSPTK5aOaXUOtDSfPU1YOq5+y4nG0r18VVtt5w6T3Wuajgmb94xK8I4Cp2g6jpaG0NJ80RRh6YhV8aF0j7rWB237UtRjmo7DhYUOZXQnKPSJpuNgHTmjEryjeHrQdBxI90jz7pXgHcW95el4suCbUgneYeASTcdTk4hTIghMpgZNx+MpivLAT49JT3k6Hv0CpKV5qyVRno5HLq9GLsgMwYK7yYYcT8eDi3dOJXiH2XYOT8f/bw15ad5ys5CnI8b4X6pKWqqwwXTvi6fj3rIW5YGfHtOdVaKOnxZNOZXgHcb79kQdP9I9pxK8w3wbmqfj+4bPhC2iYkxVBEQdMTSva1IleIdDCQ1Rxy7dS5onPPDT4VIRQtQRpRACKc3bqwiYOqLQhlIiCBxUBEQdUcZFqATvcCvOIuq4utmS0ryPioCpIw0nFQF09H9uiYqbikB05Gxg0XBTESQ9JRMJRxVBwjNYkXBVEYw+4RcKVxXBonR0VhEsSEd3FcFydHRXESxGR4KKYCE64oEkdxXBMnR8aNtXSi8WoSPWiDhVUEvQESpSqvRBfB2hImuJKL6ORBVBcB2pKoLYOlJVBKF1JKsIAutIVxHE1ZGuIgir4wwqgqA6zqIiiKnjLCqCkDrOpCIIqONsKoJ4Os6mIgin44wqgmA6zqoiiKXjrCqCUDrOrCKw13H7jh6bMbuKwFxHmQI9emzG7CoCcx01WObhqkBFYK1jHytBj42oQkUgOj5r0wINlnW47mtQEaAM3vBRfA2WcbjwvgBWof4IW9HR7gmLPlaCHptwJipyXgszDh7TtNNRg2UbLqjIeG1hEqY6arBMwwUVCb+ekIqljn2sBD02oCYVgaWOGizLcFWlIjDUUYNlGK7KVAR2OvaxEvS4mNpUBHY6arDswlWdisBMRw2WWbgqVBHk64h3k4ySextfo4ogX0fXcFWpIsjW0TNclaoIcnV0DFetKoJcHR3DVa2KIFNHv3BVrCLI09EtXDWrCPJ0dAtX1SqCLB29wlW5iiBPx8/00RH0OJvaVQTl944arPJwVa8iKL531GAVhyuAiqBUxz5Wgh5nEkFFUKqjBqs0XCFUBIU6arAKw4UX1AZQEZTp2MdK0OMsVjvaC2qLKdNRg1UWrru2fQuhIijSUYNVFC6oSPi5XitKdOxjJehxBlCR9RJRC0p01GCVhCuUiqBARw1WQbiCqQjydexjJejxZKKpCKBj3ssptZA3v5Q3nIrgQuYH40eGDwioIsCrrjk/KrJHRBUBfrKG9a7YT4RUEVzOoWNQFcEMOkZVEcygY1gVAV3HwCoCso6RVQRkHUOrCKg6BlcREHWMriIg6hheRUDTcQEqApKOS1ARkHRchIoAOlJYgIpAdGSwBBXB6lE75MqTv4pN8xdmXntD6ROg2AAAAABJRU5ErkJggg==;" parent="1" vertex="1">
          <mxGeometry x="348.7700000000001" y="2058" width="80" height="40.53" as="geometry" />
        </mxCell>
        <mxCell id="rp3IQ6fHCBkWrm4gDAKN-288" style="edgeStyle=orthogonalEdgeStyle;rounded=0;orthogonalLoop=1;jettySize=auto;html=1;exitX=0.5;exitY=1;exitDx=0;exitDy=0;entryX=0.25;entryY=0;entryDx=0;entryDy=0;" parent="1" source="rp3IQ6fHCBkWrm4gDAKN-289" target="rp3IQ6fHCBkWrm4gDAKN-298" edge="1">
          <mxGeometry relative="1" as="geometry">
            <Array as="points">
              <mxPoint x="259.83000000000004" y="1924" />
              <mxPoint x="433.83000000000004" y="1924" />
            </Array>
          </mxGeometry>
        </mxCell>
        <mxCell id="rp3IQ6fHCBkWrm4gDAKN-289" value="" style="shape=image;verticalLabelPosition=bottom;labelBackgroundColor=default;verticalAlign=top;aspect=fixed;imageAspect=0;image=data:image/png,iVBORw0KGgoAAAANSUhEUgAAAS4AAACYCAMAAABtevStAAAAAXNSR0IArs4c6QAAAARnQU1BAACxjwv8YQUAAABvUExURQAAAAAAAAAAAAAAAAAAAAAAAAAAAAAAAAAAAAAAAAAAAAAAAAAAAAAAAAAAAAAAAAAAAAAAAAAAAAAAAAAAAAAAAAAAAAAAAAAAAAAAAAAAAAAAAAAAAAAAAAAAAAAAAAAAAAAAAAAAAAAAAAAAAG3qvUYAAAAkdFJOUwAIEBggKDA4QEhQWGBocHJ4gIePl5+nr7e8v8fP19rf5+/3+FIp+ZIAAAAJcEhZcwAAFxEAABcRAcom8z8AAAcVSURBVHhe3Z3ZdtpKEEUlwAOOnTgeIMF2GC7//423j2iwxCh1VR26tJ/aLC+DpN5Hoody8Thf2/N5XxhzO4tvZcn8ufiKTVtWt/GwjBgyLnqgeI0NY+aDeGAmlIy+FZgVg8V6/R7f1YrREu9kCK65te9PwZGbohiHtxrHl6zAe7zGtgGP4c//jG0rRqv1+hmN9/V6YapK4Dkc0I/YVucuHMkkts0Iun9UDYaOxdQu7hHzn2X8wYqoImDoWIY7sE3cI+aXo/iDFTdbFQFDR7O4Z8R88bFVEVB0NIp7RswjercqgnuCjjZxT4n5horgjaCjRdxTYr6pIijD25rrqB/3lJjfVxFQdFSPe0rMH6gIKDoqxz0l5g9VBBQddeOeEvPHVATQ0ex7yg7FuOfE/FEVAXQcxrYZenHPiXmoeDxuoaN931aLe0rMVyqeuCYcHZXinhPzUPEptg+g6KgT95yYL0+qCDg6asQ9J+aL36dVBBwd5XFPivnbcyoCjo7iuOfEfPl56WOSdBTGPSfmL6kI7ig6yuKeE/OXVQQvFB0lcU+K+csqAuQw4dKlxz0p5tuoCEg6Jsc9J+bbqQhIOibGPSnm26kI4Mk0ti1JintSzLdVEUDHx9i2JCHuSTHfXkUQdFwSdOwe96yYh4p/YvsyOI72v51O57gnxXzX/sLSsWPck2K+++GTdOwW96yY7y4XS8cucc+K+ZS+wtKxfdyzYj7t0Fk6to57VsyniUXTsWXcs2I+tZ/gSY2hY7u4Z8V8egqF7wEUHdvEPS3m06Xq9mgr4HLc02JeEtk0HS/GPSvmZQ8ENB0vxD0t5mX3t/aDPlLOxj0t5qVPT53GMUSciXtazFfTrKL06TBKJuN03PNiHrOGsnFRno4n454W8xpz0jwdT8Q9LeZ1VjzQdDwe97yY15nA5+l4LO55Ma+1PISn42Hc82Jeb/ERT8eDuOfFvN5amvNL6FTZi3tezGuu1Dq7QFOXRtzzYl53HWA4CJKO9bgnxrzysjaejt9xT4x57UWTRB13cc+Lef0luUQdY9wTYx6bhZUzkqfjJu6JMV9tRVdUEZzcSWQA4p4X81V3VlURQMcj+9QsQNzzYt5o337Q8XAXpA2Ie1bMW1WFYOo4XrFuxJWKJruqiToWQ5KJliU0iDrSMCzQwtSRhJmKgKkjBeNqNuFrXK90NK6VtCuR1g9MVQS1ql/+IRSW6pOOE1sVQY90/GGtIuiNjkN7FQF0JI0VmEJQEUDH37HtGIqKADq23DmQL1DxLbaNCTqyhu7MCCrOScfQAx2hImtAzb+ORBWBdx2JKgLnOlJVBK51JKsIPOtIVhEMl251xPw4VUUQ3tSnjrjQZBXBH6c6hs/NVhE41fEqKgKXOl5JRRC69Zc3Ha+kIsCVeoltJ1xNRYA3v4ttF1z5AnvT8cqf15mOV7fBlY4ZXFxPOmbwWR3pmIUJph9irLiGEGN0GVzYqV0XHy3bVMdpySyP2MBgm8ZVK9/317YPsAJ6pjR1+pTLTQlDuQofZLpe7H0DDdEc+FJZYpCJimCi0c1fwplZNXYDYFMQWGp8a8lERaChI7pooDYiBHsi8r1B2agI5DpiC1DFdNsFdq8E2lXbO0NGKgLpZMEo9M/I52ZFfe0VhVG1jFQEwqkoFF/YsUA/bbwi3t+Eab5sVASyic6HzWmJrB6rh7kdYosynESW6XgfvkrVeMVtcou8uHmGc6JCHW+qPXnHkB9oljPuwnUHg9AFjrEQ76XKdD2H9O64fSptoJDQH3nOh4oXajzVnrS2yCtFYh9TltN7Qh0PAj8gH4/ALrlMJ4/fpXN4o/rTVuBvfF1ApioC7LGRzRAP6s9b6/U/8WBEtioC7OCSDR/c/Lc5UZGlcOV7xioCqY6DeTxPO2SDERmrCIQ6okrQPm+Cw81aRSDT8eij10fy6E3mKgLJdt3agGCdeWoHyVxFINiBen/kMbVi+RB/oxvZqwiS9zdXlVwiy1/NU5ey4dRJGYdEHatZsi3j4rZ5j5x0l8pJkZBEHesPqHh6GIbD/ab77RblS13s6k3SsT4guClzVk7ij4FZ586F4rhO9own6BjnzSp2W5d/xhcSZoIw1u+lIkGCjrszE87N99z/wyb9E6RyoyJI0HE3eNO4928Cv/tzhCMVAeqQdhRoFO+MzXODMenux+1JRYAqt13vjpvBm/1zU74l1Ld0pSJA4daUu6PKvwB2piJI0DHcH1XqeXhTEaToqIQ7FUGSjho4VBEoV+lui0cVgXIN+La4VBGolzVvA/4FHqtCrTJX0BHlolmVz7W5go7h0Y1VV18fuo6OVQRkHT2rCMg6ulYRUHV0riIIF5ylo3cVAY6BpKN7FQEMoejYAxUBScc+qAhIOvZCRQBLKPRARRAuPIM+qAjK5opTI2b2KhbF/widqCUVw+WYAAAAAElFTkSuQmCC;" parent="1" vertex="1">
          <mxGeometry x="220.0000000000001" y="1863.21" width="80" height="40.26" as="geometry" />
        </mxCell>
        <mxCell id="rp3IQ6fHCBkWrm4gDAKN-290" style="edgeStyle=orthogonalEdgeStyle;rounded=0;orthogonalLoop=1;jettySize=auto;html=1;exitX=0.5;exitY=1;exitDx=0;exitDy=0;" parent="1" source="rp3IQ6fHCBkWrm4gDAKN-291" edge="1">
          <mxGeometry relative="1" as="geometry">
            <mxPoint x="301.83000000000004" y="1987" as="targetPoint" />
            <Array as="points">
              <mxPoint x="174.83000000000004" y="1945" />
              <mxPoint x="301.83000000000004" y="1945" />
              <mxPoint x="301.83000000000004" y="1987" />
            </Array>
          </mxGeometry>
        </mxCell>
        <mxCell id="rp3IQ6fHCBkWrm4gDAKN-291" value="" style="shape=image;verticalLabelPosition=bottom;labelBackgroundColor=default;verticalAlign=top;aspect=fixed;imageAspect=0;image=data:image/png,iVBORw0KGgoAAAANSUhEUgAAAS4AAACYCAMAAABtevStAAAAAXNSR0IArs4c6QAAAARnQU1BAACxjwv8YQUAAABvUExURQAAAAAAAAAAAAAAAAAAAAAAAAAAAAAAAAAAAAAAAAAAAAAAAAAAAAAAAAAAAAAAAAAAAAAAAAAAAAAAAAAAAAAAAAAAAAAAAAAAAAAAAAAAAAAAAAAAAAAAAAAAAAAAAAAAAAAAAAAAAAAAAAAAAG3qvUYAAAAkdFJOUwAIEBggKDA4QEhQWGBocHJ4gIePl5+nr7e8v8fP19rf5+/3+FIp+ZIAAAAJcEhZcwAAFxEAABcRAcom8z8AAAcVSURBVHhe3Z3ZdtpKEEUlwAOOnTgeIMF2GC7//423j2iwxCh1VR26tJ/aLC+DpN5Hoody8Thf2/N5XxhzO4tvZcn8ufiKTVtWt/GwjBgyLnqgeI0NY+aDeGAmlIy+FZgVg8V6/R7f1YrREu9kCK65te9PwZGbohiHtxrHl6zAe7zGtgGP4c//jG0rRqv1+hmN9/V6YapK4Dkc0I/YVucuHMkkts0Iun9UDYaOxdQu7hHzn2X8wYqoImDoWIY7sE3cI+aXo/iDFTdbFQFDR7O4Z8R88bFVEVB0NIp7RswjercqgnuCjjZxT4n5horgjaCjRdxTYr6pIijD25rrqB/3lJjfVxFQdFSPe0rMH6gIKDoqxz0l5g9VBBQddeOeEvPHVATQ0ex7yg7FuOfE/FEVAXQcxrYZenHPiXmoeDxuoaN931aLe0rMVyqeuCYcHZXinhPzUPEptg+g6KgT95yYL0+qCDg6asQ9J+aL36dVBBwd5XFPivnbcyoCjo7iuOfEfPl56WOSdBTGPSfmL6kI7ig6yuKeE/OXVQQvFB0lcU+K+csqAuQw4dKlxz0p5tuoCEg6Jsc9J+bbqQhIOibGPSnm26kI4Mk0ti1JintSzLdVEUDHx9i2JCHuSTHfXkUQdFwSdOwe96yYh4p/YvsyOI72v51O57gnxXzX/sLSsWPck2K+++GTdOwW96yY7y4XS8cucc+K+ZS+wtKxfdyzYj7t0Fk6to57VsyniUXTsWXcs2I+tZ/gSY2hY7u4Z8V8egqF7wEUHdvEPS3m06Xq9mgr4HLc02JeEtk0HS/GPSvmZQ8ENB0vxD0t5mX3t/aDPlLOxj0t5qVPT53GMUSciXtazFfTrKL06TBKJuN03PNiHrOGsnFRno4n454W8xpz0jwdT8Q9LeZ1VjzQdDwe97yY15nA5+l4LO55Ma+1PISn42Hc82Jeb/ERT8eDuOfFvN5amvNL6FTZi3tezGuu1Dq7QFOXRtzzYl53HWA4CJKO9bgnxrzysjaejt9xT4x57UWTRB13cc+Lef0luUQdY9wTYx6bhZUzkqfjJu6JMV9tRVdUEZzcSWQA4p4X81V3VlURQMcj+9QsQNzzYt5o337Q8XAXpA2Ie1bMW1WFYOo4XrFuxJWKJruqiToWQ5KJliU0iDrSMCzQwtSRhJmKgKkjBeNqNuFrXK90NK6VtCuR1g9MVQS1ql/+IRSW6pOOE1sVQY90/GGtIuiNjkN7FQF0JI0VmEJQEUDH37HtGIqKADq23DmQL1DxLbaNCTqyhu7MCCrOScfQAx2hImtAzb+ORBWBdx2JKgLnOlJVBK51JKsIPOtIVhEMl251xPw4VUUQ3tSnjrjQZBXBH6c6hs/NVhE41fEqKgKXOl5JRRC69Zc3Ha+kIsCVeoltJ1xNRYA3v4ttF1z5AnvT8cqf15mOV7fBlY4ZXFxPOmbwWR3pmIUJph9irLiGEGN0GVzYqV0XHy3bVMdpySyP2MBgm8ZVK9/317YPsAJ6pjR1+pTLTQlDuQofZLpe7H0DDdEc+FJZYpCJimCi0c1fwplZNXYDYFMQWGp8a8lERaChI7pooDYiBHsi8r1B2agI5DpiC1DFdNsFdq8E2lXbO0NGKgLpZMEo9M/I52ZFfe0VhVG1jFQEwqkoFF/YsUA/bbwi3t+Eab5sVASyic6HzWmJrB6rh7kdYosynESW6XgfvkrVeMVtcou8uHmGc6JCHW+qPXnHkB9oljPuwnUHg9AFjrEQ76XKdD2H9O64fSptoJDQH3nOh4oXajzVnrS2yCtFYh9TltN7Qh0PAj8gH4/ALrlMJ4/fpXN4o/rTVuBvfF1ApioC7LGRzRAP6s9b6/U/8WBEtioC7OCSDR/c/Lc5UZGlcOV7xioCqY6DeTxPO2SDERmrCIQ6okrQPm+Cw81aRSDT8eij10fy6E3mKgLJdt3agGCdeWoHyVxFINiBen/kMbVi+RB/oxvZqwiS9zdXlVwiy1/NU5ey4dRJGYdEHatZsi3j4rZ5j5x0l8pJkZBEHesPqHh6GIbD/ab77RblS13s6k3SsT4guClzVk7ij4FZ586F4rhO9own6BjnzSp2W5d/xhcSZoIw1u+lIkGCjrszE87N99z/wyb9E6RyoyJI0HE3eNO4928Cv/tzhCMVAeqQdhRoFO+MzXODMenux+1JRYAqt13vjpvBm/1zU74l1Ld0pSJA4daUu6PKvwB2piJI0DHcH1XqeXhTEaToqIQ7FUGSjho4VBEoV+lui0cVgXIN+La4VBGolzVvA/4FHqtCrTJX0BHlolmVz7W5go7h0Y1VV18fuo6OVQRkHT2rCMg6ulYRUHV0riIIF5ylo3cVAY6BpKN7FQEMoejYAxUBScc+qAhIOvZCRQBLKPRARRAuPIM+qAjK5opTI2b2KhbF/widqCUVw+WYAAAAAElFTkSuQmCC;" parent="1" vertex="1">
          <mxGeometry x="135" y="1863.21" width="80" height="40.26" as="geometry" />
        </mxCell>
        <mxCell id="rp3IQ6fHCBkWrm4gDAKN-292" style="edgeStyle=orthogonalEdgeStyle;rounded=0;orthogonalLoop=1;jettySize=auto;html=1;entryX=0.175;entryY=0.013;entryDx=0;entryDy=0;entryPerimeter=0;exitX=0.5;exitY=1;exitDx=0;exitDy=0;" parent="1" source="rp3IQ6fHCBkWrm4gDAKN-293" target="rp3IQ6fHCBkWrm4gDAKN-287" edge="1">
          <mxGeometry relative="1" as="geometry">
            <mxPoint x="335.00482758620694" y="2018.27" as="sourcePoint" />
          </mxGeometry>
        </mxCell>
        <mxCell id="rp3IQ6fHCBkWrm4gDAKN-293" value="" style="shape=image;verticalLabelPosition=bottom;labelBackgroundColor=default;verticalAlign=top;aspect=fixed;imageAspect=0;image=data:image/png,iVBORw0KGgoAAAANSUhEUgAAAS0AAABNCAMAAADEvsIyAAAAAXNSR0IArs4c6QAAAARnQU1BAACxjwv8YQUAAABgUExURQAAAAAAAAAAAAAAAAAAAAAAAAAAAAAAAAAAAAAAAAAAAAAAAAAAAAAAAAAAAAAAAAAAAAAAAAAAAAAAAAAAAAAAAAAAAAAAAAAAAAAAAAAAAAAAAAAAAAAAAAAAAAAAAPpP6I0AAAAfdFJOUwAIEBggKDA4QEhQWGhweICHj5efp6+3v8fP19/n7/dK1oigAAAACXBIWXMAABcRAAAXEQHKJvM/AAACiElEQVR4Xu2a15KDMAxFTXpvm974/79ciSi7CQFihIGxrPMSweTJg3VdjplcYsWOy8KcqFQsMBsqlO8cTXSM41vfKMV0oGFde8Z04ffSoZdKNtEhju9DrAb3OD5EyUslB+xX00c5gfLnUSqZzGGEllSbBTwsqFY+GcP4bKkGtvA4oVpJ079BHL60KgzG+4AelHcwDi9dekhIgvHtjUIkcZj6ktJfm/Iks0ulOplC5CQgpqQGYxpcXWV+RC8rMIXIX7n/r+4VomhX+Nw5KkTxiQMG40mD8Q+MwzHVGYxhmu6oVpYwWHOqM5nBH1ZUh84UxmJDdQ5rDUZiaHOQtddgTOhdbQ5JO2fIAQ3G6GQ3DD0IxnPwJ887mGIjqgsZwYTdUx0qK2jfM6q/gMG4pjpMMA6tR6DEyIqk5OyynrUiKdu5bRNBJOVXBbjaCDUYccVZcmJZrWRFwtrNWOySRMLcKWMwFu7ARYJxyDqFgWAsOt0RCcYh74QvQFepyulxcK5StZuJ0FylirdeYblKb94Rh5BcJQe39eG4Si5MkGBcpU/viEMgrlKWd8QhDFfJWccJwVVymGbyXaVc74iDdFfJ7SpcuKvkeocn2lVyf3og2VX64h1xkOsqffWOOEh1lWo6UZfpKtV2WyPRVbLzjjgIdJXqvGWW5yrVajBIc5VqtmNkuUqlvCMOklylBmaKHFepiS4sxlVqJuGluEoM74iDDFepsZ2JBFepwV2v/64S2zvi4LurxPeOOHjuKjV9Euy1q9T8LYPPrlILN1j+ukqVvSMOvrpKLd28++kqtWV1eOkqufGOOHjoKrnyjjj45yq12j2wY/pGi8mEaewXrYpouMH2iW2VxmHML2sc8VCQZo1LAAAAAElFTkSuQmCC;strokeWidth=0;perimeterSpacing=0;" parent="1" vertex="1">
          <mxGeometry x="280.0000000000001" y="1987.1999999999998" width="81.34" height="20.8" as="geometry" />
        </mxCell>
        <mxCell id="rp3IQ6fHCBkWrm4gDAKN-294" style="edgeStyle=orthogonalEdgeStyle;rounded=0;orthogonalLoop=1;jettySize=auto;html=1;exitX=0.5;exitY=1;exitDx=0;exitDy=0;entryX=0.177;entryY=0.019;entryDx=0;entryDy=0;entryPerimeter=0;" parent="1" source="rp3IQ6fHCBkWrm4gDAKN-296" target="rp3IQ6fHCBkWrm4gDAKN-291" edge="1">
          <mxGeometry relative="1" as="geometry" />
        </mxCell>
        <mxCell id="rp3IQ6fHCBkWrm4gDAKN-295" style="edgeStyle=orthogonalEdgeStyle;rounded=0;orthogonalLoop=1;jettySize=auto;html=1;exitX=0.5;exitY=1;exitDx=0;exitDy=0;entryX=0.177;entryY=0.019;entryDx=0;entryDy=0;entryPerimeter=0;" parent="1" source="rp3IQ6fHCBkWrm4gDAKN-296" target="rp3IQ6fHCBkWrm4gDAKN-289" edge="1">
          <mxGeometry relative="1" as="geometry" />
        </mxCell>
        <mxCell id="rp3IQ6fHCBkWrm4gDAKN-296" value="&lt;font style=&quot;font-size: 20px;&quot;&gt;ROM&lt;/font&gt;" style="rounded=0;whiteSpace=wrap;html=1;" parent="1" vertex="1">
          <mxGeometry x="120" y="1724" width="57" height="80" as="geometry" />
        </mxCell>
        <mxCell id="rp3IQ6fHCBkWrm4gDAKN-297" style="edgeStyle=orthogonalEdgeStyle;rounded=0;orthogonalLoop=1;jettySize=auto;html=1;exitX=0.5;exitY=1;exitDx=0;exitDy=0;entryX=0.828;entryY=0.001;entryDx=0;entryDy=0;entryPerimeter=0;" parent="1" source="rp3IQ6fHCBkWrm4gDAKN-298" target="rp3IQ6fHCBkWrm4gDAKN-287" edge="1">
          <mxGeometry relative="1" as="geometry" />
        </mxCell>
        <mxCell id="rp3IQ6fHCBkWrm4gDAKN-298" value="" style="shape=image;verticalLabelPosition=bottom;labelBackgroundColor=default;verticalAlign=top;aspect=fixed;imageAspect=0;image=data:image/png,iVBORw0KGgoAAAANSUhEUgAAAS0AAABNCAMAAADEvsIyAAAAAXNSR0IArs4c6QAAAARnQU1BAACxjwv8YQUAAABgUExURQAAAAAAAAAAAAAAAAAAAAAAAAAAAAAAAAAAAAAAAAAAAAAAAAAAAAAAAAAAAAAAAAAAAAAAAAAAAAAAAAAAAAAAAAAAAAAAAAAAAAAAAAAAAAAAAAAAAAAAAAAAAAAAAPpP6I0AAAAfdFJOUwAIEBggKDA4QEhQWGhweICHj5efp6+3v8fP19/n7/dK1oigAAAACXBIWXMAABcRAAAXEQHKJvM/AAACiElEQVR4Xu2a15KDMAxFTXpvm974/79ciSi7CQFihIGxrPMSweTJg3VdjplcYsWOy8KcqFQsMBsqlO8cTXSM41vfKMV0oGFde8Z04ffSoZdKNtEhju9DrAb3OD5EyUslB+xX00c5gfLnUSqZzGGEllSbBTwsqFY+GcP4bKkGtvA4oVpJ079BHL60KgzG+4AelHcwDi9dekhIgvHtjUIkcZj6ktJfm/Iks0ulOplC5CQgpqQGYxpcXWV+RC8rMIXIX7n/r+4VomhX+Nw5KkTxiQMG40mD8Q+MwzHVGYxhmu6oVpYwWHOqM5nBH1ZUh84UxmJDdQ5rDUZiaHOQtddgTOhdbQ5JO2fIAQ3G6GQ3DD0IxnPwJ887mGIjqgsZwYTdUx0qK2jfM6q/gMG4pjpMMA6tR6DEyIqk5OyynrUiKdu5bRNBJOVXBbjaCDUYccVZcmJZrWRFwtrNWOySRMLcKWMwFu7ARYJxyDqFgWAsOt0RCcYh74QvQFepyulxcK5StZuJ0FylirdeYblKb94Rh5BcJQe39eG4Si5MkGBcpU/viEMgrlKWd8QhDFfJWccJwVVymGbyXaVc74iDdFfJ7SpcuKvkeocn2lVyf3og2VX64h1xkOsqffWOOEh1lWo6UZfpKtV2WyPRVbLzjjgIdJXqvGWW5yrVajBIc5VqtmNkuUqlvCMOklylBmaKHFepiS4sxlVqJuGluEoM74iDDFepsZ2JBFepwV2v/64S2zvi4LurxPeOOHjuKjV9Euy1q9T8LYPPrlILN1j+ukqVvSMOvrpKLd28++kqtWV1eOkqufGOOHjoKrnyjjj45yq12j2wY/pGi8mEaewXrYpouMH2iW2VxmHML2sc8VCQZo1LAAAAAElFTkSuQmCC;strokeWidth=0;perimeterSpacing=0;" parent="1" vertex="1">
          <mxGeometry x="413.6600000000002" y="1987.1999999999998" width="81.34" height="20.8" as="geometry" />
        </mxCell>
        <mxCell id="rp3IQ6fHCBkWrm4gDAKN-299" style="edgeStyle=orthogonalEdgeStyle;rounded=0;orthogonalLoop=1;jettySize=auto;html=1;exitX=0.5;exitY=1;exitDx=0;exitDy=0;entryX=0.5;entryY=0;entryDx=0;entryDy=0;" parent="1" source="rp3IQ6fHCBkWrm4gDAKN-314" target="rp3IQ6fHCBkWrm4gDAKN-303" edge="1">
          <mxGeometry relative="1" as="geometry">
            <mxPoint x="187.32000000000028" y="1511.2000000000003" as="sourcePoint" />
            <mxPoint x="342.83000000000004" y="1630" as="targetPoint" />
          </mxGeometry>
        </mxCell>
        <mxCell id="rp3IQ6fHCBkWrm4gDAKN-300" style="edgeStyle=orthogonalEdgeStyle;rounded=0;orthogonalLoop=1;jettySize=auto;html=1;exitX=0.5;exitY=1;exitDx=0;exitDy=0;entryX=0.828;entryY=0.008;entryDx=0;entryDy=0;entryPerimeter=0;" parent="1" source="rp3IQ6fHCBkWrm4gDAKN-301" target="rp3IQ6fHCBkWrm4gDAKN-291" edge="1">
          <mxGeometry relative="1" as="geometry" />
        </mxCell>
        <mxCell id="rp3IQ6fHCBkWrm4gDAKN-301" value="" style="shape=image;verticalLabelPosition=bottom;labelBackgroundColor=default;verticalAlign=top;aspect=fixed;imageAspect=0;image=data:image/png,iVBORw0KGgoAAAANSUhEUgAAAS0AAABNCAMAAADEvsIyAAAAAXNSR0IArs4c6QAAAARnQU1BAACxjwv8YQUAAABgUExURQAAAAAAAAAAAAAAAAAAAAAAAAAAAAAAAAAAAAAAAAAAAAAAAAAAAAAAAAAAAAAAAAAAAAAAAAAAAAAAAAAAAAAAAAAAAAAAAAAAAAAAAAAAAAAAAAAAAAAAAAAAAAAAAPpP6I0AAAAfdFJOUwAIEBggKDA4QEhQWGhweICHj5efp6+3v8fP19/n7/dK1oigAAAACXBIWXMAABcRAAAXEQHKJvM/AAACiElEQVR4Xu2a15KDMAxFTXpvm974/79ciSi7CQFihIGxrPMSweTJg3VdjplcYsWOy8KcqFQsMBsqlO8cTXSM41vfKMV0oGFde8Z04ffSoZdKNtEhju9DrAb3OD5EyUslB+xX00c5gfLnUSqZzGGEllSbBTwsqFY+GcP4bKkGtvA4oVpJ079BHL60KgzG+4AelHcwDi9dekhIgvHtjUIkcZj6ktJfm/Iks0ulOplC5CQgpqQGYxpcXWV+RC8rMIXIX7n/r+4VomhX+Nw5KkTxiQMG40mD8Q+MwzHVGYxhmu6oVpYwWHOqM5nBH1ZUh84UxmJDdQ5rDUZiaHOQtddgTOhdbQ5JO2fIAQ3G6GQ3DD0IxnPwJ887mGIjqgsZwYTdUx0qK2jfM6q/gMG4pjpMMA6tR6DEyIqk5OyynrUiKdu5bRNBJOVXBbjaCDUYccVZcmJZrWRFwtrNWOySRMLcKWMwFu7ARYJxyDqFgWAsOt0RCcYh74QvQFepyulxcK5StZuJ0FylirdeYblKb94Rh5BcJQe39eG4Si5MkGBcpU/viEMgrlKWd8QhDFfJWccJwVVymGbyXaVc74iDdFfJ7SpcuKvkeocn2lVyf3og2VX64h1xkOsqffWOOEh1lWo6UZfpKtV2WyPRVbLzjjgIdJXqvGWW5yrVajBIc5VqtmNkuUqlvCMOklylBmaKHFepiS4sxlVqJuGluEoM74iDDFepsZ2JBFepwV2v/64S2zvi4LurxPeOOHjuKjV9Euy1q9T8LYPPrlILN1j+ukqVvSMOvrpKLd28++kqtWV1eOkqufGOOHjoKrnyjjj45yq12j2wY/pGi8mEaewXrYpouMH2iW2VxmHML2sc8VCQZo1LAAAAAElFTkSuQmCC;strokeWidth=0;perimeterSpacing=0;" parent="1" vertex="1">
          <mxGeometry x="206.83000000000027" y="1720" width="81.34" height="20.8" as="geometry" />
        </mxCell>
        <mxCell id="rp3IQ6fHCBkWrm4gDAKN-302" style="edgeStyle=orthogonalEdgeStyle;rounded=0;orthogonalLoop=1;jettySize=auto;html=1;exitX=0.5;exitY=1;exitDx=0;exitDy=0;entryX=0.809;entryY=0.029;entryDx=0;entryDy=0;entryPerimeter=0;" parent="1" source="rp3IQ6fHCBkWrm4gDAKN-303" target="rp3IQ6fHCBkWrm4gDAKN-289" edge="1">
          <mxGeometry relative="1" as="geometry">
            <mxPoint x="331.83000000000004" y="1840" as="targetPoint" />
          </mxGeometry>
        </mxCell>
        <mxCell id="rp3IQ6fHCBkWrm4gDAKN-303" value="" style="shape=image;verticalLabelPosition=bottom;labelBackgroundColor=default;verticalAlign=top;aspect=fixed;imageAspect=0;image=data:image/png,iVBORw0KGgoAAAANSUhEUgAAAS0AAABNCAMAAADEvsIyAAAAAXNSR0IArs4c6QAAAARnQU1BAACxjwv8YQUAAABgUExURQAAAAAAAAAAAAAAAAAAAAAAAAAAAAAAAAAAAAAAAAAAAAAAAAAAAAAAAAAAAAAAAAAAAAAAAAAAAAAAAAAAAAAAAAAAAAAAAAAAAAAAAAAAAAAAAAAAAAAAAAAAAAAAAPpP6I0AAAAfdFJOUwAIEBggKDA4QEhQWGhweICHj5efp6+3v8fP19/n7/dK1oigAAAACXBIWXMAABcRAAAXEQHKJvM/AAACiElEQVR4Xu2a15KDMAxFTXpvm974/79ciSi7CQFihIGxrPMSweTJg3VdjplcYsWOy8KcqFQsMBsqlO8cTXSM41vfKMV0oGFde8Z04ffSoZdKNtEhju9DrAb3OD5EyUslB+xX00c5gfLnUSqZzGGEllSbBTwsqFY+GcP4bKkGtvA4oVpJ079BHL60KgzG+4AelHcwDi9dekhIgvHtjUIkcZj6ktJfm/Iks0ulOplC5CQgpqQGYxpcXWV+RC8rMIXIX7n/r+4VomhX+Nw5KkTxiQMG40mD8Q+MwzHVGYxhmu6oVpYwWHOqM5nBH1ZUh84UxmJDdQ5rDUZiaHOQtddgTOhdbQ5JO2fIAQ3G6GQ3DD0IxnPwJ887mGIjqgsZwYTdUx0qK2jfM6q/gMG4pjpMMA6tR6DEyIqk5OyynrUiKdu5bRNBJOVXBbjaCDUYccVZcmJZrWRFwtrNWOySRMLcKWMwFu7ARYJxyDqFgWAsOt0RCcYh74QvQFepyulxcK5StZuJ0FylirdeYblKb94Rh5BcJQe39eG4Si5MkGBcpU/viEMgrlKWd8QhDFfJWccJwVVymGbyXaVc74iDdFfJ7SpcuKvkeocn2lVyf3og2VX64h1xkOsqffWOOEh1lWo6UZfpKtV2WyPRVbLzjjgIdJXqvGWW5yrVajBIc5VqtmNkuUqlvCMOklylBmaKHFepiS4sxlVqJuGluEoM74iDDFepsZ2JBFepwV2v/64S2zvi4LurxPeOOHjuKjV9Euy1q9T8LYPPrlILN1j+ukqVvSMOvrpKLd28++kqtWV1eOkqufGOOHjoKrnyjjj45yq12j2wY/pGi8mEaewXrYpouMH2iW2VxmHML2sc8VCQZo1LAAAAAElFTkSuQmCC;strokeWidth=0;perimeterSpacing=0;" parent="1" vertex="1">
          <mxGeometry x="304.1700000000004" y="1720" width="81.34" height="20.8" as="geometry" />
        </mxCell>
        <mxCell id="rp3IQ6fHCBkWrm4gDAKN-304" style="edgeStyle=orthogonalEdgeStyle;rounded=0;orthogonalLoop=1;jettySize=auto;html=1;exitX=0.5;exitY=1;exitDx=0;exitDy=0;entryX=0.75;entryY=0;entryDx=0;entryDy=0;" parent="1" source="rp3IQ6fHCBkWrm4gDAKN-306" target="rp3IQ6fHCBkWrm4gDAKN-293" edge="1">
          <mxGeometry relative="1" as="geometry" />
        </mxCell>
        <mxCell id="rp3IQ6fHCBkWrm4gDAKN-305" style="edgeStyle=orthogonalEdgeStyle;rounded=0;orthogonalLoop=1;jettySize=auto;html=1;exitX=0.5;exitY=0;exitDx=0;exitDy=0;entryX=0.5;entryY=1;entryDx=0;entryDy=0;" parent="1" source="rp3IQ6fHCBkWrm4gDAKN-306" target="rp3IQ6fHCBkWrm4gDAKN-321" edge="1">
          <mxGeometry relative="1" as="geometry" />
        </mxCell>
        <mxCell id="rp3IQ6fHCBkWrm4gDAKN-306" value="p3" style="shape=image;verticalLabelPosition=bottom;labelBackgroundColor=default;verticalAlign=top;imageAspect=0;image=data:image/png,iVBORw0KGgoAAAANSUhEUgAAAG0AAABBCAMAAADsSNopAAAAAXNSR0IArs4c6QAAAARnQU1BAACxjwv8YQUAAAAGUExURQAAAAAAAKVnuc8AAAABdFJOUwBA5thmAAAACXBIWXMAABcRAAAXEQHKJvM/AAAAUklEQVRYR+3Q0QkAMAjEUN1/6f50hPQEmyzwINXJtmuVSY1KjUqNSo1KjUqNSo1KjUqNSo1KjUqNSo1KjUqNakTLtV27X1+nRqVG9YGWa6/WfQAckQUmpjRBdgAAAABJRU5ErkJggg==;spacingLeft=70;spacingBottom=0;spacingRight=0;spacingTop=-26;" parent="1" vertex="1">
          <mxGeometry x="361.34000000000003" y="1810" width="46.18" height="20" as="geometry" />
        </mxCell>
        <mxCell id="rp3IQ6fHCBkWrm4gDAKN-307" style="edgeStyle=orthogonalEdgeStyle;rounded=0;orthogonalLoop=1;jettySize=auto;html=1;exitX=0.5;exitY=1;exitDx=0;exitDy=0;entryX=0.864;entryY=0.008;entryDx=0;entryDy=0;entryPerimeter=0;" parent="1" source="rp3IQ6fHCBkWrm4gDAKN-308" target="rp3IQ6fHCBkWrm4gDAKN-298" edge="1">
          <mxGeometry relative="1" as="geometry">
            <Array as="points">
              <mxPoint x="517.83" y="1945" />
              <mxPoint x="483.83000000000004" y="1945" />
            </Array>
          </mxGeometry>
        </mxCell>
        <mxCell id="rp3IQ6fHCBkWrm4gDAKN-308" value="Xn" style="shape=image;verticalLabelPosition=bottom;labelBackgroundColor=default;verticalAlign=top;imageAspect=0;image=data:image/png,iVBORw0KGgoAAAANSUhEUgAAAG0AAABBCAMAAADsSNopAAAAAXNSR0IArs4c6QAAAARnQU1BAACxjwv8YQUAAAAGUExURQAAAAAAAKVnuc8AAAABdFJOUwBA5thmAAAACXBIWXMAABcRAAAXEQHKJvM/AAAAUklEQVRYR+3Q0QkAMAjEUN1/6f50hPQEmyzwINXJtmuVSY1KjUqNSo1KjUqNSo1KjUqNSo1KjUqNSo1KjUqNakTLtV27X1+nRqVG9YGWa6/WfQAckQUmpjRBdgAAAABJRU5ErkJggg==;spacingLeft=70;spacingBottom=0;spacingRight=0;spacingTop=-26;" parent="1" vertex="1">
          <mxGeometry x="495.00000000000034" y="1873.34" width="46.18" height="20" as="geometry" />
        </mxCell>
        <mxCell id="rp3IQ6fHCBkWrm4gDAKN-309" style="edgeStyle=orthogonalEdgeStyle;rounded=0;orthogonalLoop=1;jettySize=auto;html=1;exitX=0.5;exitY=1;exitDx=0;exitDy=0;entryX=0.25;entryY=0;entryDx=0;entryDy=0;" parent="1" source="rp3IQ6fHCBkWrm4gDAKN-311" target="rp3IQ6fHCBkWrm4gDAKN-303" edge="1">
          <mxGeometry relative="1" as="geometry" />
        </mxCell>
        <mxCell id="rp3IQ6fHCBkWrm4gDAKN-310" style="edgeStyle=orthogonalEdgeStyle;rounded=0;orthogonalLoop=1;jettySize=auto;html=1;entryX=0.316;entryY=0.062;entryDx=0;entryDy=0;entryPerimeter=0;" parent="1" source="rp3IQ6fHCBkWrm4gDAKN-311" target="rp3IQ6fHCBkWrm4gDAKN-301" edge="1">
          <mxGeometry relative="1" as="geometry" />
        </mxCell>
        <mxCell id="rp3IQ6fHCBkWrm4gDAKN-311" value="d2" style="shape=image;verticalLabelPosition=bottom;labelBackgroundColor=default;verticalAlign=top;imageAspect=0;image=data:image/png,iVBORw0KGgoAAAANSUhEUgAAAG0AAABBCAMAAADsSNopAAAAAXNSR0IArs4c6QAAAARnQU1BAACxjwv8YQUAAAAGUExURQAAAAAAAKVnuc8AAAABdFJOUwBA5thmAAAACXBIWXMAABcRAAAXEQHKJvM/AAAAUklEQVRYR+3Q0QkAMAjEUN1/6f50hPQEmyzwINXJtmuVSY1KjUqNSo1KjUqNSo1KjUqNSo1KjUqNSo1KjUqNakTLtV27X1+nRqVG9YGWa6/WfQAckQUmpjRBdgAAAABJRU5ErkJggg==;spacingLeft=70;spacingBottom=0;spacingRight=0;spacingTop=-26;" parent="1" vertex="1">
          <mxGeometry x="193.4699999999999" y="1610" width="46.18" height="20" as="geometry" />
        </mxCell>
        <mxCell id="rp3IQ6fHCBkWrm4gDAKN-312" style="edgeStyle=orthogonalEdgeStyle;rounded=0;orthogonalLoop=1;jettySize=auto;html=1;exitX=0.5;exitY=1;exitDx=0;exitDy=0;entryX=0.691;entryY=0.018;entryDx=0;entryDy=0;entryPerimeter=0;" parent="1" source="rp3IQ6fHCBkWrm4gDAKN-314" target="rp3IQ6fHCBkWrm4gDAKN-301" edge="1">
          <mxGeometry relative="1" as="geometry" />
        </mxCell>
        <mxCell id="rp3IQ6fHCBkWrm4gDAKN-313" style="edgeStyle=orthogonalEdgeStyle;rounded=0;orthogonalLoop=1;jettySize=auto;html=1;exitX=0.5;exitY=1;exitDx=0;exitDy=0;entryX=0.5;entryY=0;entryDx=0;entryDy=0;" parent="1" source="rp3IQ6fHCBkWrm4gDAKN-314" target="rp3IQ6fHCBkWrm4gDAKN-311" edge="1">
          <mxGeometry relative="1" as="geometry" />
        </mxCell>
        <mxCell id="rp3IQ6fHCBkWrm4gDAKN-314" value="d1" style="shape=image;verticalLabelPosition=bottom;labelBackgroundColor=default;verticalAlign=top;imageAspect=0;image=data:image/png,iVBORw0KGgoAAAANSUhEUgAAAG0AAABBCAMAAADsSNopAAAAAXNSR0IArs4c6QAAAARnQU1BAACxjwv8YQUAAAAGUExURQAAAAAAAKVnuc8AAAABdFJOUwBA5thmAAAACXBIWXMAABcRAAAXEQHKJvM/AAAAUklEQVRYR+3Q0QkAMAjEUN1/6f50hPQEmyzwINXJtmuVSY1KjUqNSo1KjUqNSo1KjUqNSo1KjUqNSo1KjUqNakTLtV27X1+nRqVG9YGWa6/WfQAckQUmpjRBdgAAAABJRU5ErkJggg==;spacingLeft=70;spacingBottom=0;spacingRight=0;spacingTop=-26;" parent="1" vertex="1">
          <mxGeometry x="239.64999999999998" y="1540" width="46.18" height="20" as="geometry" />
        </mxCell>
        <mxCell id="rp3IQ6fHCBkWrm4gDAKN-315" style="edgeStyle=orthogonalEdgeStyle;rounded=0;orthogonalLoop=1;jettySize=auto;html=1;exitX=0.5;exitY=1;exitDx=0;exitDy=0;entryX=0.5;entryY=0;entryDx=0;entryDy=0;" parent="1" source="rp3IQ6fHCBkWrm4gDAKN-317" target="rp3IQ6fHCBkWrm4gDAKN-314" edge="1">
          <mxGeometry relative="1" as="geometry" />
        </mxCell>
        <mxCell id="rp3IQ6fHCBkWrm4gDAKN-316" style="edgeStyle=orthogonalEdgeStyle;rounded=0;orthogonalLoop=1;jettySize=auto;html=1;entryX=0.5;entryY=0;entryDx=0;entryDy=0;" parent="1" target="rp3IQ6fHCBkWrm4gDAKN-317" edge="1">
          <mxGeometry relative="1" as="geometry">
            <mxPoint x="431.83000000000004" y="1450" as="targetPoint" />
            <mxPoint x="581.83" y="1790" as="sourcePoint" />
            <Array as="points">
              <mxPoint x="581.83" y="1480" />
              <mxPoint x="262.83000000000004" y="1480" />
            </Array>
          </mxGeometry>
        </mxCell>
        <mxCell id="rp3IQ6fHCBkWrm4gDAKN-317" value="d0" style="shape=image;verticalLabelPosition=bottom;labelBackgroundColor=default;verticalAlign=top;imageAspect=0;image=data:image/png,iVBORw0KGgoAAAANSUhEUgAAAG0AAABBCAMAAADsSNopAAAAAXNSR0IArs4c6QAAAARnQU1BAACxjwv8YQUAAAAGUExURQAAAAAAAKVnuc8AAAABdFJOUwBA5thmAAAACXBIWXMAABcRAAAXEQHKJvM/AAAAUklEQVRYR+3Q0QkAMAjEUN1/6f50hPQEmyzwINXJtmuVSY1KjUqNSo1KjUqNSo1KjUqNSo1KjUqNSo1KjUqNakTLtV27X1+nRqVG9YGWa6/WfQAckQUmpjRBdgAAAABJRU5ErkJggg==;spacingLeft=70;spacingBottom=0;spacingRight=0;spacingTop=-26;fontStyle=0" parent="1" vertex="1">
          <mxGeometry x="239.6500000000002" y="1500" width="46.18" height="20" as="geometry" />
        </mxCell>
        <mxCell id="rp3IQ6fHCBkWrm4gDAKN-318" style="edgeStyle=orthogonalEdgeStyle;rounded=0;orthogonalLoop=1;jettySize=auto;html=1;exitX=0.5;exitY=0;exitDx=0;exitDy=0;entryX=0.5;entryY=0;entryDx=0;entryDy=0;" parent="1" source="rp3IQ6fHCBkWrm4gDAKN-319" target="rp3IQ6fHCBkWrm4gDAKN-306" edge="1">
          <mxGeometry relative="1" as="geometry">
            <mxPoint x="571.8300000000003" y="2080" as="targetPoint" />
            <Array as="points">
              <mxPoint x="388.83000000000004" y="2120" />
              <mxPoint x="581.83" y="2120" />
              <mxPoint x="581.83" y="1790" />
              <mxPoint x="384.83000000000004" y="1790" />
            </Array>
          </mxGeometry>
        </mxCell>
        <mxCell id="rp3IQ6fHCBkWrm4gDAKN-319" value="Yn" style="shape=image;verticalLabelPosition=bottom;labelBackgroundColor=default;verticalAlign=top;imageAspect=0;image=data:image/png,iVBORw0KGgoAAAANSUhEUgAAAG0AAABBCAMAAADsSNopAAAAAXNSR0IArs4c6QAAAARnQU1BAACxjwv8YQUAAAAGUExURQAAAAAAAKVnuc8AAAABdFJOUwBA5thmAAAACXBIWXMAABcRAAAXEQHKJvM/AAAAUklEQVRYR+3Q0QkAMAjEUN1/6f50hPQEmyzwINXJtmuVSY1KjUqNSo1KjUqNSo1KjUqNSo1KjUqNSo1KjUqNakTLtV27X1+nRqVG9YGWa6/WfQAckQUmpjRBdgAAAABJRU5ErkJggg==;spacingLeft=70;spacingBottom=0;spacingRight=0;spacingTop=-26;" parent="1" vertex="1">
          <mxGeometry x="365.83000000000004" y="2150" width="46.18" height="20" as="geometry" />
        </mxCell>
        <mxCell id="rp3IQ6fHCBkWrm4gDAKN-320" style="edgeStyle=orthogonalEdgeStyle;rounded=0;orthogonalLoop=1;jettySize=auto;html=1;exitX=0.5;exitY=0;exitDx=0;exitDy=0;entryX=0.75;entryY=0;entryDx=0;entryDy=0;" parent="1" source="rp3IQ6fHCBkWrm4gDAKN-321" target="rp3IQ6fHCBkWrm4gDAKN-303" edge="1">
          <mxGeometry relative="1" as="geometry">
            <Array as="points">
              <mxPoint x="446.83000000000004" y="1640" />
              <mxPoint x="364.83000000000004" y="1640" />
            </Array>
          </mxGeometry>
        </mxCell>
        <mxCell id="rp3IQ6fHCBkWrm4gDAKN-321" value="p1" style="shape=image;verticalLabelPosition=bottom;labelBackgroundColor=default;verticalAlign=top;imageAspect=0;image=data:image/png,iVBORw0KGgoAAAANSUhEUgAAAG0AAABBCAMAAADsSNopAAAAAXNSR0IArs4c6QAAAARnQU1BAACxjwv8YQUAAAAGUExURQAAAAAAAKVnuc8AAAABdFJOUwBA5thmAAAACXBIWXMAABcRAAAXEQHKJvM/AAAAUklEQVRYR+3Q0QkAMAjEUN1/6f50hPQEmyzwINXJtmuVSY1KjUqNSo1KjUqNSo1KjUqNSo1KjUqNSo1KjUqNakTLtV27X1+nRqVG9YGWa6/WfQAckQUmpjRBdgAAAABJRU5ErkJggg==;spacingLeft=70;spacingBottom=0;spacingRight=0;spacingTop=-26;" parent="1" vertex="1">
          <mxGeometry x="424.16999999999996" y="1720.8" width="46.18" height="20" as="geometry" />
        </mxCell>
        <mxCell id="rp3IQ6fHCBkWrm4gDAKN-322" style="edgeStyle=orthogonalEdgeStyle;rounded=0;orthogonalLoop=1;jettySize=auto;html=1;entryX=0.551;entryY=0.039;entryDx=0;entryDy=0;entryPerimeter=0;" parent="1" target="rp3IQ6fHCBkWrm4gDAKN-324" edge="1">
          <mxGeometry relative="1" as="geometry">
            <mxPoint x="459.9966666666668" y="1790" as="targetPoint" />
            <mxPoint x="459.83000000000004" y="1790" as="sourcePoint" />
            <Array as="points">
              <mxPoint x="461.83000000000004" y="1790" />
              <mxPoint x="461.83000000000004" y="1811" />
            </Array>
          </mxGeometry>
        </mxCell>
        <mxCell id="rp3IQ6fHCBkWrm4gDAKN-323" style="edgeStyle=orthogonalEdgeStyle;rounded=0;orthogonalLoop=1;jettySize=auto;html=1;exitX=0.5;exitY=1;exitDx=0;exitDy=0;entryX=0.5;entryY=0;entryDx=0;entryDy=0;labelBorderColor=none;shadow=0;" parent="1" source="rp3IQ6fHCBkWrm4gDAKN-324" target="rp3IQ6fHCBkWrm4gDAKN-293" edge="1">
          <mxGeometry relative="1" as="geometry">
            <Array as="points">
              <mxPoint x="459.83000000000004" y="1870" />
              <mxPoint x="320.83000000000004" y="1870" />
            </Array>
          </mxGeometry>
        </mxCell>
        <mxCell id="rp3IQ6fHCBkWrm4gDAKN-324" value="p4" style="shape=image;verticalLabelPosition=bottom;labelBackgroundColor=default;verticalAlign=top;imageAspect=0;image=data:image/png,iVBORw0KGgoAAAANSUhEUgAAAG0AAABBCAMAAADsSNopAAAAAXNSR0IArs4c6QAAAARnQU1BAACxjwv8YQUAAAAGUExURQAAAAAAAKVnuc8AAAABdFJOUwBA5thmAAAACXBIWXMAABcRAAAXEQHKJvM/AAAAUklEQVRYR+3Q0QkAMAjEUN1/6f50hPQEmyzwINXJtmuVSY1KjUqNSo1KjUqNSo1KjUqNSo1KjUqNSo1KjUqNakTLtV27X1+nRqVG9YGWa6/WfQAckQUmpjRBdgAAAABJRU5ErkJggg==;spacingLeft=70;spacingBottom=0;spacingRight=0;spacingTop=-26;" parent="1" vertex="1">
          <mxGeometry x="436.7400000000001" y="1810" width="46.18" height="20" as="geometry" />
        </mxCell>
        <mxCell id="FqY0RiTJkdxc6DmevvFK-1" value="aa" style="shape=image;verticalLabelPosition=bottom;labelBackgroundColor=default;verticalAlign=top;imageAspect=0;image=data:image/png,iVBORw0KGgoAAAANSUhEUgAAAG0AAABBCAMAAADsSNopAAAAAXNSR0IArs4c6QAAAARnQU1BAACxjwv8YQUAAAAGUExURQAAAAAAAKVnuc8AAAABdFJOUwBA5thmAAAACXBIWXMAABcRAAAXEQHKJvM/AAAAUklEQVRYR+3Q0QkAMAjEUN1/6f50hPQEmyzwINXJtmuVSY1KjUqNSo1KjUqNSo1KjUqNSo1KjUqNSo1KjUqNakTLtV27X1+nRqVG9YGWa6/WfQAckQUmpjRBdgAAAABJRU5ErkJggg==;spacingLeft=70;spacingBottom=0;spacingRight=0;spacingTop=-26;fontStyle=0" parent="1" vertex="1">
          <mxGeometry x="40.0000000000002" y="1200" width="46.18" height="20" as="geometry" />
        </mxCell>
        <mxCell id="FqY0RiTJkdxc6DmevvFK-2" value="" style="shape=image;verticalLabelPosition=bottom;labelBackgroundColor=default;verticalAlign=top;aspect=fixed;imageAspect=0;image=data:image/png,iVBORw0KGgoAAAANSUhEUgAAAS0AAABNCAMAAADEvsIyAAAAAXNSR0IArs4c6QAAAARnQU1BAACxjwv8YQUAAABgUExURQAAAAAAAAAAAAAAAAAAAAAAAAAAAAAAAAAAAAAAAAAAAAAAAAAAAAAAAAAAAAAAAAAAAAAAAAAAAAAAAAAAAAAAAAAAAAAAAAAAAAAAAAAAAAAAAAAAAAAAAAAAAAAAAPpP6I0AAAAfdFJOUwAIEBggKDA4QEhQWGhweICHj5efp6+3v8fP19/n7/dK1oigAAAACXBIWXMAABcRAAAXEQHKJvM/AAACiElEQVR4Xu2a15KDMAxFTXpvm974/79ciSi7CQFihIGxrPMSweTJg3VdjplcYsWOy8KcqFQsMBsqlO8cTXSM41vfKMV0oGFde8Z04ffSoZdKNtEhju9DrAb3OD5EyUslB+xX00c5gfLnUSqZzGGEllSbBTwsqFY+GcP4bKkGtvA4oVpJ079BHL60KgzG+4AelHcwDi9dekhIgvHtjUIkcZj6ktJfm/Iks0ulOplC5CQgpqQGYxpcXWV+RC8rMIXIX7n/r+4VomhX+Nw5KkTxiQMG40mD8Q+MwzHVGYxhmu6oVpYwWHOqM5nBH1ZUh84UxmJDdQ5rDUZiaHOQtddgTOhdbQ5JO2fIAQ3G6GQ3DD0IxnPwJ887mGIjqgsZwYTdUx0qK2jfM6q/gMG4pjpMMA6tR6DEyIqk5OyynrUiKdu5bRNBJOVXBbjaCDUYccVZcmJZrWRFwtrNWOySRMLcKWMwFu7ARYJxyDqFgWAsOt0RCcYh74QvQFepyulxcK5StZuJ0FylirdeYblKb94Rh5BcJQe39eG4Si5MkGBcpU/viEMgrlKWd8QhDFfJWccJwVVymGbyXaVc74iDdFfJ7SpcuKvkeocn2lVyf3og2VX64h1xkOsqffWOOEh1lWo6UZfpKtV2WyPRVbLzjjgIdJXqvGWW5yrVajBIc5VqtmNkuUqlvCMOklylBmaKHFepiS4sxlVqJuGluEoM74iDDFepsZ2JBFepwV2v/64S2zvi4LurxPeOOHjuKjV9Euy1q9T8LYPPrlILN1j+ukqVvSMOvrpKLd28++kqtWV1eOkqufGOOHjoKrnyjjj45yq12j2wY/pGi8mEaewXrYpouMH2iW2VxmHML2sc8VCQZo1LAAAAAElFTkSuQmCC;strokeWidth=0;perimeterSpacing=0;" parent="1" vertex="1">
          <mxGeometry x="157.6400000000003" y="1210" width="81.34" height="20.8" as="geometry" />
        </mxCell>
        <mxCell id="FqY0RiTJkdxc6DmevvFK-3" value="&lt;font style=&quot;font-size: 20px;&quot;&gt;ROM&lt;/font&gt;" style="rounded=0;whiteSpace=wrap;html=1;" parent="1" vertex="1">
          <mxGeometry x="40" y="1240" width="57" height="80" as="geometry" />
        </mxCell>
        <mxCell id="FqY0RiTJkdxc6DmevvFK-4" value="" style="shape=image;verticalLabelPosition=bottom;labelBackgroundColor=default;verticalAlign=top;aspect=fixed;imageAspect=0;image=data:image/png,iVBORw0KGgoAAAANSUhEUgAAAS4AAACYCAMAAABtevStAAAAAXNSR0IArs4c6QAAAARnQU1BAACxjwv8YQUAAABvUExURQAAAAAAAAAAAAAAAAAAAAAAAAAAAAAAAAAAAAAAAAAAAAAAAAAAAAAAAAAAAAAAAAAAAAAAAAAAAAAAAAAAAAAAAAAAAAAAAAAAAAAAAAAAAAAAAAAAAAAAAAAAAAAAAAAAAAAAAAAAAAAAAAAAAG3qvUYAAAAkdFJOUwAIEBggKDA4QEhQWGBocHJ4gIePl5+nr7e8v8fP19rf5+/3+FIp+ZIAAAAJcEhZcwAAFxEAABcRAcom8z8AAAcVSURBVHhe3Z3ZdtpKEEUlwAOOnTgeIMF2GC7//423j2iwxCh1VR26tJ/aLC+DpN5Hoody8Thf2/N5XxhzO4tvZcn8ufiKTVtWt/GwjBgyLnqgeI0NY+aDeGAmlIy+FZgVg8V6/R7f1YrREu9kCK65te9PwZGbohiHtxrHl6zAe7zGtgGP4c//jG0rRqv1+hmN9/V6YapK4Dkc0I/YVucuHMkkts0Iun9UDYaOxdQu7hHzn2X8wYqoImDoWIY7sE3cI+aXo/iDFTdbFQFDR7O4Z8R88bFVEVB0NIp7RswjercqgnuCjjZxT4n5horgjaCjRdxTYr6pIijD25rrqB/3lJjfVxFQdFSPe0rMH6gIKDoqxz0l5g9VBBQddeOeEvPHVATQ0ex7yg7FuOfE/FEVAXQcxrYZenHPiXmoeDxuoaN931aLe0rMVyqeuCYcHZXinhPzUPEptg+g6KgT95yYL0+qCDg6asQ9J+aL36dVBBwd5XFPivnbcyoCjo7iuOfEfPl56WOSdBTGPSfmL6kI7ig6yuKeE/OXVQQvFB0lcU+K+csqAuQw4dKlxz0p5tuoCEg6Jsc9J+bbqQhIOibGPSnm26kI4Mk0ti1JintSzLdVEUDHx9i2JCHuSTHfXkUQdFwSdOwe96yYh4p/YvsyOI72v51O57gnxXzX/sLSsWPck2K+++GTdOwW96yY7y4XS8cucc+K+ZS+wtKxfdyzYj7t0Fk6to57VsyniUXTsWXcs2I+tZ/gSY2hY7u4Z8V8egqF7wEUHdvEPS3m06Xq9mgr4HLc02JeEtk0HS/GPSvmZQ8ENB0vxD0t5mX3t/aDPlLOxj0t5qVPT53GMUSciXtazFfTrKL06TBKJuN03PNiHrOGsnFRno4n454W8xpz0jwdT8Q9LeZ1VjzQdDwe97yY15nA5+l4LO55Ma+1PISn42Hc82Jeb/ERT8eDuOfFvN5amvNL6FTZi3tezGuu1Dq7QFOXRtzzYl53HWA4CJKO9bgnxrzysjaejt9xT4x57UWTRB13cc+Lef0luUQdY9wTYx6bhZUzkqfjJu6JMV9tRVdUEZzcSWQA4p4X81V3VlURQMcj+9QsQNzzYt5o337Q8XAXpA2Ie1bMW1WFYOo4XrFuxJWKJruqiToWQ5KJliU0iDrSMCzQwtSRhJmKgKkjBeNqNuFrXK90NK6VtCuR1g9MVQS1ql/+IRSW6pOOE1sVQY90/GGtIuiNjkN7FQF0JI0VmEJQEUDH37HtGIqKADq23DmQL1DxLbaNCTqyhu7MCCrOScfQAx2hImtAzb+ORBWBdx2JKgLnOlJVBK51JKsIPOtIVhEMl251xPw4VUUQ3tSnjrjQZBXBH6c6hs/NVhE41fEqKgKXOl5JRRC69Zc3Ha+kIsCVeoltJ1xNRYA3v4ttF1z5AnvT8cqf15mOV7fBlY4ZXFxPOmbwWR3pmIUJph9irLiGEGN0GVzYqV0XHy3bVMdpySyP2MBgm8ZVK9/317YPsAJ6pjR1+pTLTQlDuQofZLpe7H0DDdEc+FJZYpCJimCi0c1fwplZNXYDYFMQWGp8a8lERaChI7pooDYiBHsi8r1B2agI5DpiC1DFdNsFdq8E2lXbO0NGKgLpZMEo9M/I52ZFfe0VhVG1jFQEwqkoFF/YsUA/bbwi3t+Eab5sVASyic6HzWmJrB6rh7kdYosynESW6XgfvkrVeMVtcou8uHmGc6JCHW+qPXnHkB9oljPuwnUHg9AFjrEQ76XKdD2H9O64fSptoJDQH3nOh4oXajzVnrS2yCtFYh9TltN7Qh0PAj8gH4/ALrlMJ4/fpXN4o/rTVuBvfF1ApioC7LGRzRAP6s9b6/U/8WBEtioC7OCSDR/c/Lc5UZGlcOV7xioCqY6DeTxPO2SDERmrCIQ6okrQPm+Cw81aRSDT8eij10fy6E3mKgLJdt3agGCdeWoHyVxFINiBen/kMbVi+RB/oxvZqwiS9zdXlVwiy1/NU5ey4dRJGYdEHatZsi3j4rZ5j5x0l8pJkZBEHesPqHh6GIbD/ab77RblS13s6k3SsT4guClzVk7ij4FZ586F4rhO9own6BjnzSp2W5d/xhcSZoIw1u+lIkGCjrszE87N99z/wyb9E6RyoyJI0HE3eNO4928Cv/tzhCMVAeqQdhRoFO+MzXODMenux+1JRYAqt13vjpvBm/1zU74l1Ld0pSJA4daUu6PKvwB2piJI0DHcH1XqeXhTEaToqIQ7FUGSjho4VBEoV+lui0cVgXIN+La4VBGolzVvA/4FHqtCrTJX0BHlolmVz7W5go7h0Y1VV18fuo6OVQRkHT2rCMg6ulYRUHV0riIIF5ylo3cVAY6BpKN7FQEMoejYAxUBScc+qAhIOvZCRQBLKPRARRAuPIM+qAjK5opTI2b2KhbF/widqCUVw+WYAAAAAElFTkSuQmCC;" parent="1" vertex="1">
          <mxGeometry x="158.31000000000012" y="1240" width="80" height="40.26" as="geometry" />
        </mxCell>
        <mxCell id="FqY0RiTJkdxc6DmevvFK-5" value="" style="shape=image;verticalLabelPosition=bottom;labelBackgroundColor=default;verticalAlign=top;aspect=fixed;imageAspect=0;image=data:image/png,iVBORw0KGgoAAAANSUhEUgAAAS4AAACZCAMAAACmJicIAAAAAXNSR0IArs4c6QAAAARnQU1BAACxjwv8YQUAAABjUExURQAAAAAAAAAAAAAAAAAAAAAAAAAAAAAAAAAAAAAAAAAAAAAAAAAAAAAAAAAAAAAAAAAAAAAAAAAAAAAAAAAAAAAAAAAAAAAAAAAAAAAAAAAAAAAAAAAAAAAAAAAAAAAAAAAAAGZodN4AAAAgdFJOUwAIEBggKDA4QEhQWGBocHiAh4+Xn6evt7/Hz9ff5+/3v+H4wgAAAAlwSFlzAAAXEQAAFxEByibzPwAABq5JREFUeF7dne1W2zAMhlNaPrYx6MbHYBSW+7/K6U0Eo2ubOLb0xsrzy9k5I7XsR01sJW2ud60/vy8bZza/9FSe7G6bF2368nau3XLijNONtnnQhjMvZ9oxHx71NM48N+u3tr3Tk3qxkXM8atuFrXTlStte3Lbtn4umuSac6ouc41bbDnyVP3+jbS/O/7TtFg1JkrtV909+yNC0X7Rtzrn35AXP8oXVRYmhI5LL20bbxqwkzb8QxhsqAoaOjn1yHIkPPlQEDB3djHH1/J0PFQFFR6d87Pwt0vNJRcDQ0efb3v0aBeypCBg6eiSZLiX6XgELeyoCio64U9k/bTFyT+J9f3WgIqDoiEl9r20TbuRTf9W2GwcqAoqOxun+Sv7cQUfMOVARUHRsfsi8NpvElDR/TEVA0RGT+NUo3a9k2Hfuaf6oioCi49mubZ9tznIvw+6e5o+rCDg6mqV7Spo/pSLg6PhNzvJd2wVcSdh/aNuPkyoCio7NTxmw4rX7zWvbPmnbkZMqAo6OzZOk+7W2M+Gk+SEVAUdHg3R/N9wPIwZVBBwdL+VjFM3i7zKs37TtyKCKgKQjZvG1tjNAuH9q25ERFQFHx7J0v+ak+VEVAUfHlaT7XWa679J84VdFCvIRx9dPSDquJd0/5Q2LyYXIOMiPCd8mJB2z809h3ktlI58v6TKYo2M3ehndJqV5qJi2c0XSMe/aqUDiSWAwE40n6ZhzZY6viNI7ghSSVQQkHTMuCEhpPl1FwNJxch4yWs0YZYKKADoyBhFrVhNuZi4kvIxhnKQiEB3dqzTApBVRw5XYYSapCCbHN5NJ6Z6U5qeqCDL+SxZY5vul7RFMd5EGyJoqkydkJsmLyIwSwY6snrN0TN2iMNsSGSPTK5aOaXUOtDSfPU1YOq5+y4nG0r18VVtt5w6T3Wuajgmb94xK8I4Cp2g6jpaG0NJ80RRh6YhV8aF0j7rWB237UtRjmo7DhYUOZXQnKPSJpuNgHTmjEryjeHrQdBxI90jz7pXgHcW95el4suCbUgneYeASTcdTk4hTIghMpgZNx+MpivLAT49JT3k6Hv0CpKV5qyVRno5HLq9GLsgMwYK7yYYcT8eDi3dOJXiH2XYOT8f/bw15ad5ys5CnI8b4X6pKWqqwwXTvi6fj3rIW5YGfHtOdVaKOnxZNOZXgHcb79kQdP9I9pxK8w3wbmqfj+4bPhC2iYkxVBEQdMTSva1IleIdDCQ1Rxy7dS5onPPDT4VIRQtQRpRACKc3bqwiYOqLQhlIiCBxUBEQdUcZFqATvcCvOIuq4utmS0ryPioCpIw0nFQF09H9uiYqbikB05Gxg0XBTESQ9JRMJRxVBwjNYkXBVEYw+4RcKVxXBonR0VhEsSEd3FcFydHRXESxGR4KKYCE64oEkdxXBMnR8aNtXSi8WoSPWiDhVUEvQESpSqvRBfB2hImuJKL6ORBVBcB2pKoLYOlJVBKF1JKsIAutIVxHE1ZGuIgir4wwqgqA6zqIiiKnjLCqCkDrOpCIIqONsKoJ4Os6mIgin44wqgmA6zqoiiKXjrCqCUDrOrCKw13H7jh6bMbuKwFxHmQI9emzG7CoCcx01WObhqkBFYK1jHytBj42oQkUgOj5r0wINlnW47mtQEaAM3vBRfA2WcbjwvgBWof4IW9HR7gmLPlaCHptwJipyXgszDh7TtNNRg2UbLqjIeG1hEqY6arBMwwUVCb+ekIqljn2sBD02oCYVgaWOGizLcFWlIjDUUYNlGK7KVAR2OvaxEvS4mNpUBHY6arDswlWdisBMRw2WWbgqVBHk64h3k4ySextfo4ogX0fXcFWpIsjW0TNclaoIcnV0DFetKoJcHR3DVa2KIFNHv3BVrCLI09EtXDWrCPJ0dAtX1SqCLB29wlW5iiBPx8/00RH0OJvaVQTl944arPJwVa8iKL531GAVhyuAiqBUxz5Wgh5nEkFFUKqjBqs0XCFUBIU6arAKw4UX1AZQEZTp2MdK0OMsVjvaC2qLKdNRg1UWrru2fQuhIijSUYNVFC6oSPi5XitKdOxjJehxBlCR9RJRC0p01GCVhCuUiqBARw1WQbiCqQjydexjJejxZKKpCKBj3ssptZA3v5Q3nIrgQuYH40eGDwioIsCrrjk/KrJHRBUBfrKG9a7YT4RUEVzOoWNQFcEMOkZVEcygY1gVAV3HwCoCso6RVQRkHUOrCKg6BlcREHWMriIg6hheRUDTcQEqApKOS1ARkHRchIoAOlJYgIpAdGSwBBXB6lE75MqTv4pN8xdmXntD6ROg2AAAAABJRU5ErkJggg==;" parent="1" vertex="1">
          <mxGeometry x="159.65000000000012" y="1289.73" width="80" height="40.53" as="geometry" />
        </mxCell>
      </root>
    </mxGraphModel>
  </diagram>
</mxfile>
